<svg version="1.1" id="Layer_1" xmlns="http://www.w3.org/2000/svg" xmlns:xlink="http://www.w3.org/1999/xlink" x="0px" y="0px"
	 width="100%" viewBox="0 0 1024 1024" enable-background="new 0 0 1024 1024" xml:space="preserve">
<path fill="#2E2E2E" opacity="1.000000" stroke="none"
	d="
M465.486908,353.571228
	C474.090210,336.407806 482.106873,319.350922 491.049652,302.794220
	C507.495972,272.345459 533.544800,256.787231 567.993652,255.748184
	C599.452759,254.799316 625.348145,266.962311 644.410645,291.838776
	C680.562561,339.016815 657.004272,409.877563 600.107971,427.019165
	C588.789185,430.429291 577.294495,431.815765 565.639832,432.090698
	C551.631104,432.421143 541.504761,437.837585 534.487610,450.592590
	C520.503235,476.011749 498.809967,491.664398 470.558411,498.628937
	C426.776581,509.422028 378.399597,487.563873 359.407501,446.857910
	C338.089233,401.166321 357.395447,347.117218 407.480682,325.787262
	C425.934418,317.928314 445.234436,317.533417 464.516876,317.984039
	C464.901245,318.817078 465.234009,319.205627 465.144745,319.392456
	C460.128296,329.888000 455.130615,340.393311 449.992065,350.829224
	C448.645355,353.564301 445.784424,353.049988 443.325989,353.217987
	C427.544678,354.296600 413.335907,359.111908 401.960358,370.648560
	C382.453339,390.431671 380.663818,420.755676 397.709930,442.677643
	C420.052704,471.411346 461.031647,475.683807 488.679413,451.990387
	C494.767212,446.773315 499.888123,440.578857 503.628876,433.390350
	C516.228882,409.177155 536.942078,398.494415 563.450317,397.793243
	C573.520630,397.526855 583.406982,396.570374 592.815247,392.808777
	C617.522583,382.930389 628.672119,357.778625 626.331421,337.888367
	C622.858276,308.375580 595.711487,290.757385 574.521301,290.039307
	C549.799683,289.201508 531.911194,298.969116 520.917480,321.527832
	C508.438812,347.133484 495.429779,372.480957 482.609070,397.919342
	C478.609131,405.855865 472.895386,411.532715 463.257568,411.202484
	C450.846710,410.777252 442.988129,397.964691 448.448853,386.801544
	C453.863129,375.733368 459.678528,364.861420 465.486908,353.571228
z"/>
<path fill="#2E2E2E" opacity="1.000000" stroke="none"
	d="
M591.108154,693.146973
	C586.313965,691.455627 582.110352,689.434509 578.289795,686.713989
	C573.514893,683.313843 572.226440,677.606567 575.096802,673.134155
	C577.735474,669.022766 583.611328,667.638916 588.395264,670.604187
	C597.536987,676.270691 607.100769,679.072632 617.870667,676.678772
	C628.848145,674.238770 635.451721,664.194580 632.748840,652.890869
	C621.652649,661.689209 609.349731,664.690125 595.845520,660.622559
	C586.814148,657.902283 579.403931,652.708984 573.962769,644.856689
	C563.651306,629.976013 564.650024,607.275269 576.296021,594.083069
	C583.670593,585.729370 592.861877,580.705811 604.029968,579.845398
	C614.909302,579.007141 624.801758,581.750061 633.368958,589.942200
	C635.782288,583.779480 639.476685,580.395203 645.709473,581.001953
	C651.290100,581.545044 654.840881,584.574402 654.880371,590.345093
	C655.039734,613.662170 656.139343,637.029907 654.319824,660.285339
	C652.804321,679.655518 640.150696,692.066467 621.045349,695.328918
	C610.987305,697.046387 601.157898,696.557556 591.108154,693.146973
M633.618652,619.779114
	C633.381897,618.638916 633.126282,617.502258 632.911194,616.357971
	C630.956665,605.960815 624.124268,600.467651 614.223877,598.873718
	C605.741760,597.508057 598.333740,600.265320 593.239258,607.466797
	C587.523804,615.546021 586.990417,624.177490 591.989868,632.799194
	C597.063660,641.549133 606.572266,645.187866 616.971985,642.723389
	C627.125854,640.317078 632.925659,632.631287 633.618652,619.779114
z"/>
<path fill="#2E2E2E" opacity="1.000000" stroke="none"
	d="
M494.197113,658.885742
	C493.064056,656.841309 492.181366,655.075134 491.012360,652.736145
	C481.138031,662.406250 469.161957,664.531677 456.315491,661.966980
	C447.271149,660.161194 439.662903,655.448364 433.762787,648.165894
	C420.902588,632.292786 421.489197,608.712158 435.190552,592.973450
	C448.631744,577.533569 469.602905,575.811584 490.356445,588.514099
	C492.150818,587.009277 491.584686,584.886597 491.602692,583.025574
	C491.683197,574.701660 491.564545,566.375732 491.651398,558.052002
	C491.720062,551.469238 495.026428,547.795593 501.018250,547.338318
	C507.319855,546.857361 511.974731,550.567627 512.919739,556.867676
	C513.067139,557.850159 513.088074,558.858826 513.086914,559.855286
	C513.052307,589.823914 513.004700,619.792542 512.967590,649.761169
	C512.961914,654.331543 511.993958,658.602112 507.523254,660.728882
	C503.008301,662.876648 498.471649,662.479797 494.197113,658.885742
M465.315338,598.892334
	C451.579926,601.873901 444.656097,612.355103 447.259705,626.224609
	C449.580292,638.586121 460.606750,645.795288 473.821350,643.590881
	C484.543945,641.802185 492.979126,630.208862 491.549591,619.225281
	C489.839081,606.083191 479.385956,597.643433 465.315338,598.892334
z"/>
<path fill="#2E2E2E" opacity="1.000000" stroke="none"
	d="
M284.452698,657.691528
	C255.000992,640.496704 258.586639,598.986023 285.277496,584.497559
	C299.588867,576.729004 316.491272,578.413330 331.248749,590.055969
	C332.477417,583.907837 336.162262,580.747437 342.358948,580.908569
	C348.716339,581.073853 352.334106,584.805237 352.343231,591.398743
	C352.370178,610.868530 352.344635,630.338501 352.330933,649.808350
	C352.325500,657.504150 350.127869,660.769958 344.436859,661.598633
	C337.085144,662.669128 333.566071,660.274048 331.244049,652.308411
	C317.020050,665.134460 301.374725,665.842285 284.452698,657.691528
M310.264252,643.818970
	C320.203705,643.062744 327.354126,637.473633 330.104187,628.311096
	C332.927032,618.905884 330.061218,609.514343 322.577667,603.646484
	C314.775513,597.528809 304.161469,596.809143 295.941620,601.840454
	C287.782990,606.834290 283.860199,618.020447 286.697418,628.200989
	C289.473053,638.160461 297.661652,643.825989 310.264252,643.818970
z"/>
<path fill="#2E2E2E" opacity="1.000000" stroke="none"
	d="
M731.312927,655.526917
	C705.800110,673.066772 671.752075,657.001953 668.682678,626.328186
	C665.729431,596.814453 690.473816,574.224548 718.567566,580.724670
	C724.731262,582.150696 729.811157,585.513672 734.544373,589.295593
	C736.693298,588.553101 736.610229,586.546692 737.511169,585.238037
	C739.959961,581.681213 744.963501,579.968018 749.505798,581.298157
	C753.879272,582.578918 756.261414,585.562073 756.273743,590.079529
	C756.330505,610.898682 756.355103,631.718567 756.225830,652.537170
	C756.192932,657.833679 753.242126,660.876953 748.550903,661.338867
	C740.216919,662.159485 737.717712,660.515747 735.389954,652.594055
	C733.486877,652.600708 732.908081,654.508972 731.312927,655.526917
M707.734741,643.683167
	C711.033569,644.726135 714.335327,644.238953 717.609558,643.611389
	C729.838501,641.267334 737.224121,628.973816 734.487549,615.586365
	C732.173462,604.265625 719.579224,596.271057 708.209045,598.905273
	C697.228088,601.449402 690.749573,609.053833 690.276611,619.954102
	C689.766113,631.719788 695.360474,639.645264 707.734741,643.683167
z"/>
<path fill="#2E2E2E" opacity="1.000000" stroke="none"
	d="
M829.397217,581.241333
	C842.927795,585.742737 850.229248,595.619812 850.334045,609.481628
	C850.438538,623.305664 850.408813,637.130981 850.373474,650.955627
	C850.355042,658.163330 846.595337,662.031494 839.802490,662.030334
	C833.125183,662.029175 829.012939,658.070435 828.918701,651.005127
	C828.754395,638.681519 828.957336,626.353027 828.783691,614.029724
	C828.692139,607.537048 825.959229,602.237305 819.669800,599.791748
	C812.953125,597.180054 806.429626,598.071167 801.100403,603.175293
	C796.455261,607.624329 795.571594,613.713074 795.446960,619.757202
	C795.234070,630.079041 795.416138,640.408325 795.354492,650.734070
	C795.308655,658.406555 792.008423,661.652893 784.378113,661.728516
	C777.656067,661.795166 773.916687,657.972229 773.882202,650.588318
	C773.793518,631.600525 773.834778,612.612183 773.813599,593.624023
	C773.805054,586.001526 776.089478,582.425659 781.849182,581.117798
	C788.064697,579.706482 792.072937,582.143188 795.417175,589.714539
	C805.126160,580.923706 816.319275,577.905579 829.397217,581.241333
z"/>
<path fill="#2E2E2E" opacity="1.000000" stroke="none"
	d="
M238.286865,635.994507
	C243.146027,631.721863 250.438736,634.498962 253.269882,638.197815
	C256.332947,642.199463 255.904373,647.074219 251.493805,651.144836
	C230.549011,670.475098 189.712601,666.800720 178.200348,635.390259
	C167.230545,605.459900 192.828918,575.563293 225.142960,580.052429
	C234.067993,581.292297 242.256714,584.275940 249.378494,589.854370
	C255.282318,594.478699 256.441711,599.457520 252.854767,603.913818
	C248.726273,609.042969 242.466492,609.819092 236.981995,605.579590
	C228.057938,598.681335 218.484131,596.259888 208.201630,601.899414
	C197.746002,607.633972 194.416122,621.545837 200.387970,632.454468
	C206.257019,643.175293 220.116837,647.189514 231.133575,641.198425
	C233.591476,639.861755 235.712021,637.904602 238.286865,635.994507
z"/>
<path fill="#2E2E2E" opacity="1.000000" stroke="none"
	d="
M399.366211,604.318604
	C393.994720,608.909424 392.433289,614.801331 392.318237,621.123230
	C392.142456,630.783691 392.308441,640.449768 392.226074,650.112610
	C392.160156,657.843384 388.534393,661.746460 381.641693,661.745728
	C374.181091,661.744934 370.644318,658.005005 370.642548,650.117310
	C370.638306,631.290039 370.621521,612.462769 370.634125,593.635498
	C370.639618,585.489563 372.379913,582.547668 377.844482,581.242981
	C383.712311,579.842102 387.976868,582.126770 391.355469,588.463928
	C391.503113,588.740845 391.774384,588.951904 392.196075,589.428894
	C395.850555,587.539124 398.242859,583.739136 402.327820,582.559326
	C404.718994,581.868835 407.039337,580.836670 409.470856,580.400452
	C416.291870,579.176819 420.696136,581.987000 421.315948,587.698975
	C422.109100,595.008606 418.627899,599.783997 411.724701,600.077698
	C407.207825,600.269897 403.207916,601.341125 399.366211,604.318604
z"/>
<path fill="#2E2E2E" opacity="1.000000" stroke="none"
	d="
M530.856079,644.924255
	C530.863953,627.116943 530.781372,609.797607 530.920715,592.480042
	C530.990295,583.839905 536.540955,579.535645 544.697388,581.335327
	C549.609436,582.419128 552.299866,585.476929 552.320435,590.434326
	C552.406250,611.083191 552.410767,631.732910 552.313538,652.381714
	C552.288208,657.755310 549.448303,660.750732 544.334351,661.546143
	C537.810608,662.560852 533.654236,660.474365 531.728394,655.302002
	C530.525757,652.072083 530.949585,648.726013 530.856079,644.924255
z"/>
<path fill="#2E2E2E" opacity="1.000000" stroke="none"
	d="
M546.853027,571.326843
	C538.816162,573.364807 532.603149,570.688232 529.968872,564.335022
	C527.669617,558.789612 529.689514,552.326721 534.743347,549.058960
	C540.833801,545.120911 549.313599,546.950989 553.077942,553.015869
	C557.305786,559.827454 555.065369,566.809937 546.853027,571.326843
z"/>
</svg>
