<?xml version="1.0" encoding="UTF-8" standalone="no"?>
<!DOCTYPE svg PUBLIC "-//W3C//DTD SVG 1.1//EN" "http://www.w3.org/Graphics/SVG/1.1/DTD/svg11.dtd">
<!-- Created with Vectornator (http://vectornator.io/) -->
<svg height="1024.0px" stroke-miterlimit="10" style="fill-rule:nonzero;clip-rule:evenodd;stroke-linecap:round;stroke-linejoin:round;" version="1.1" viewBox="0 0 1024 1024" width="1024.0px" xml:space="preserve" xmlns="http://www.w3.org/2000/svg" xmlns:xlink="http://www.w3.org/1999/xlink">
<defs/>
<clipPath id="ArtboardFrame">
<rect height="1024" width="1024" x="0" y="0"/>
</clipPath>
<g clip-path="url(#ArtboardFrame)" id="Layer-1">
<path d="M-1.00891-4.05467L1028.27-4.05467L1028.27 1028.72L-1.00891 1028.72L-1.00891-4.05467Z" fill="#c2c8e3" fill-rule="nonzero" opacity="1" stroke="none"/>
<path d="M221.424 493.156C202.624 493.156 191.533 534.586 189.17 548.768C185.33 571.808 193.427 592.793 190.659 612.166C184.01 658.707 191.246 764.482 198.309 778.756C257.272 897.913 376.679 969.87 506.785 965.518C621.74 961.672 721.066 898.065 762.677 852.541C815.939 794.271 813.509 692.075 812.103 632.021C811.564 608.988 810.319 593.243 810.912 590.477C816.975 562.173 790.132 501.35 788.695 501.35C787.274 501.35 504.943 780.522 504.199 780.15C503.769 779.935 272.588 573.237 252.567 539.87" fill="#7eb6b0" fill-rule="nonzero" opacity="1" stroke="none"/>
<path d="M244.043 528.85C201.897 459.912 250.302 425.09 279.266 358.324C335.733 228.161 345.388 89.0777 508.115 82.0308C568.175 79.4299 614.693 118.973 627.374 140.933C659.642 196.814 745.42 400.374 761.444 437.562C766.657 449.661 785.083 487.296 783.786 500.942C781.617 523.762 498.447 777.026 496.862 776.793" fill="#6a884e" fill-rule="nonzero" opacity="1" stroke="none"/>
<path d="M504.366 775.369C502.116 777.543 249.124 562.565 256.039 541.803C266.554 510.226 317.437 363.69 336.394 332.608C373.064 272.482 388.744 139.41 477.701 128.64C629.094 110.31 646.8 318.444 685.652 382.297C707.204 417.716 747.511 547.28 744.015 555.207C733.133 579.883 661.91 665.936 635.968 684.693C558.818 740.474 543.351 737.698 504.366 775.369Z" fill="#c7d05b" fill-rule="nonzero" opacity="1" stroke="none"/>
<path d="M227.014 495.003C222.131 447.856 270.433 385.241 286.899 341.555C319.474 255.129 343.679 160.662 425.716 107.194C448.454 92.3753 485.567 80.6816 511.582 80.7252C614.115 80.8967 648.493 165.77 684.46 253.057C715.939 329.451 784.19 451.046 782.114 504.667" fill="none" opacity="1" stroke="#000000" stroke-linecap="round" stroke-linejoin="round" stroke-width="10"/>
<path d="M500.459 775.283C459.178 748.011 419.754 716.495 310.713 615.58C252.266 561.489 243.096 505.075 226.022 491.669C210.365 479.375 167.638 579.279 203.796 618.277C262.375 681.456 445.684 816.645 474.495 841.318" fill="none" opacity="1" stroke="#000000" stroke-linecap="round" stroke-linejoin="round" stroke-width="10"/>
<path d="M492.467 868.843C492.467 858.713 501.515 850.5 512.676 850.5C523.837 850.5 532.885 858.713 532.885 868.843C532.885 878.974 523.837 887.187 512.676 887.187C501.515 887.187 492.467 878.974 492.467 868.843Z" fill="#d9d9d9" fill-rule="nonzero" opacity="1" stroke="#000000" stroke-linecap="round" stroke-linejoin="round" stroke-width="10"/>
<path d="M374.415 525.049C374.415 449.386 430.604 388.049 499.915 388.049C569.227 388.049 625.415 449.386 625.415 525.049C625.415 600.712 569.227 662.049 499.915 662.049C430.604 662.049 374.415 600.712 374.415 525.049Z" fill="#996736" fill-rule="nonzero" opacity="1" stroke="#000000" stroke-linecap="round" stroke-linejoin="round" stroke-width="10"/>
<path d="M255.415 540.049C253.744 543.392 259.237 528.586 260.415 525.049C264.017 514.245 289.305 428.982 342.415 321.049C376.624 251.53 392.074 143.273 483.415 128.049C554.411 116.216 604.533 175.99 629.415 234.049C659.873 305.115 679.495 382.208 714.415 452.049C725.574 474.365 734.363 504.838 740.415 529.049C742.67 538.067 745.564 545.508 745.415 555.356" fill="none" opacity="1" stroke="#000000" stroke-linecap="round" stroke-linejoin="round" stroke-width="10"/>
<path d="M469.485 962.756C466.956 965.094 465.166 936.03 465.193 933.097C465.294 921.863 464.607 910.873 465.876 899.618C469.95 863.501 471.987 828.845 492.433 797.617C519.37 756.476 577.202 731.639 615.238 702.349C671.077 659.349 693.583 641.958 729.719 580.412C732.453 575.755 782.848 498.563 787.537 500.503C809.766 509.7 821.727 588.786 811.58 607.233C800.608 627.176 731.947 717.15 645.142 767.164C618.986 782.234 591.311 797.459 569.62 817.509C547.822 837.658 546.303 923.508 554.075 950.288" fill="none" opacity="1" stroke="#000000" stroke-linecap="round" stroke-linejoin="round" stroke-width="10"/>
<path d="M190.204 594.148C190.955 592.038 189.365 613.045 188.506 616.605C185.571 628.758 183.203 681.886 183.203 681.886C183.696 696.44 185.429 735.623 194.228 765.433C223.923 866.047 308.981 921.071 403.371 954.651C473.552 979.619 622.053 957.105 686.372 918.544C763.469 872.322 801.605 818.988 813.992 733.802C818.612 702.028 816.834 644.397 812.867 612.003" fill="none" opacity="1" stroke="#000000" stroke-linecap="round" stroke-linejoin="round" stroke-width="10"/>
<path d="M426.06 346.919C425.872 347.548 425.683 348.177 425.495 348.806" fill="#aeb650" fill-rule="nonzero" opacity="1" stroke="none"/>
</g>
</svg>
