<svg xmlns="http://www.w3.org/2000/svg" viewBox="0 0 200 200" role="img" aria-label="Aguacate">
  <circle cx="100" cy="100" r="100" fill="#E5E0EC"/>
  <path d="M100 40 Q72 40 72 80 Q72 120 100 122 Q128 120 128 80 Q128 40 100 40 Z" fill="#A8C4A4" stroke="#2E2E2E" stroke-width="2.4" stroke-linejoin="round"/>
  <path d="M100 55 Q85 55 85 80 Q85 105 100 107 Q115 105 115 80 Q115 55 100 55 Z" fill="#EFE4D3" stroke="#2E2E2E" stroke-width="2"/>
  <circle cx="100" cy="82" r="12" fill="#8C6A4A" stroke="#2E2E2E" stroke-width="2"/>
  <path d="M55 140 Q55 122 100 122 Q145 122 145 140 L145 185 L55 185 Z" fill="#5B9BAF" stroke="#2E2E2E" stroke-width="2.4" stroke-linejoin="round"/>
  <path d="M100 122 L86 142 L100 162 L114 142 Z" fill="#E5E0EC" stroke="#2E2E2E" stroke-width="2.4" stroke-linejoin="round"/>
  <circle cx="100" cy="152" r="3" fill="#FFFFFF" stroke="#2E2E2E" stroke-width="1.4"/>
</svg>
