<svg xmlns="http://www.w3.org/2000/svg" viewBox="0 0 200 200" role="img" aria-label="Libro">
  <circle cx="100" cy="100" r="100" fill="#C9D2C7"/>
  <g stroke="#2C2C2C" stroke-width="3" stroke-linejoin="round">
    <path d="M56 34 L144 34 L144 132 L56 132 Z" fill="#4E7079"/>
    <path d="M66 34 L66 132" fill="none"/>
  </g>
  <g fill="none" stroke="#F2E8D9" stroke-width="2.4" stroke-linecap="round" opacity="0.9">
    <path d="M80 58 L132 58"/>
    <path d="M80 72 L124 72"/>
    <path d="M80 86 L128 86"/>
  </g>
  <path d="M22 200 L22 140 C22 114 36 106 56 112 C80 118 92 132 100 152 C108 132 120 118 144 112 C164 106 178 114 178 140 L178 200 Z" fill="#5E8790" stroke="#2C2C2C" stroke-width="3" stroke-linejoin="round"/>
  <path d="M100 152 L100 200" stroke="#2C2C2C" stroke-width="2.2"/>
  <circle cx="100" cy="174" r="3.6" fill="#F2E8D9" stroke="#2C2C2C" stroke-width="1.6"/>
</svg>
