<svg xmlns="http://www.w3.org/2000/svg" viewBox="0 0 200 200" role="img" aria-label="Libro">
  <circle cx="100" cy="100" r="100" fill="#CCD4C4"/>
  <path d="M100 60 Q82 46 42 52 Q30 54 30 66 L30 154 Q30 166 42 166 Q82 160 100 172 Q118 160 158 166 Q170 166 170 154 L170 66 Q170 54 158 52 Q118 46 100 60 Z" fill="#F6EBD8" stroke="#3D3228" stroke-width="3" stroke-linejoin="round"/>
  <path d="M100 60 L100 172" stroke="#3D3228" stroke-width="3" stroke-linecap="round" fill="none"/>
  <g stroke="#839BA4" stroke-width="2.4" stroke-linecap="round" fill="none" opacity="0.8">
    <path d="M48 80 L86 78"/>
    <path d="M48 96 L84 94"/>
    <path d="M48 112 L86 110"/>
    <path d="M48 128 L82 126"/>
    <path d="M114 78 L152 80"/>
    <path d="M116 94 L150 96"/>
    <path d="M114 110 L150 112"/>
    <path d="M116 126 L148 128"/>
  </g>
  <path d="M138 38 L138 92 L130 82 L122 92 L122 38" fill="#E08B8B" stroke="#3D3228" stroke-width="2.4" stroke-linejoin="round"/>
</svg>
