<?xml version="1.0" encoding="UTF-8" standalone="no"?>
<!DOCTYPE svg PUBLIC "-//W3C//DTD SVG 1.1//EN" "http://www.w3.org/Graphics/SVG/1.1/DTD/svg11.dtd">
<!-- Created with Vectornator (http://vectornator.io/) -->
<svg height="1024.0px" stroke-miterlimit="10" style="fill-rule:nonzero;clip-rule:evenodd;stroke-linecap:round;stroke-linejoin:round;" version="1.1" viewBox="0 0 1024 1024" width="1024.0px" xml:space="preserve" xmlns="http://www.w3.org/2000/svg" xmlns:xlink="http://www.w3.org/1999/xlink">
<defs/>
<clipPath id="ArtboardFrame">
<rect height="1024" width="1024" x="0" y="0"/>
</clipPath>
<g clip-path="url(#ArtboardFrame)" id="Layer-1">
<circle data-cardigan-refit="1" cx="512" cy="512" r="512" fill="#dadcc8" stroke="none"/><g transform="translate(512 512) scale(0.86) translate(-512 -512)">
<path d="M219.353 541.694C210.437 558.097 199.114 610.048 215.624 632.062C220.088 638.014 219.061 681.419 218.16 693.89C212.682 769.735 226.591 847.987 239.825 862.543C340.145 972.879 488.317 968.507 591.896 959.247C672.233 952.065 764.245 914.973 782.134 827.034C790.271 787.031 781.913 724.862 785.405 684.559C787.271 663.027 801.986 610.028 799.695 574.559C798.027 548.732 786.311 536.806 780.507 534.296C773.766 531.38 676.38 597.454 618.046 648.641C612.606 653.415 548.472 713.827 542.293 717.917C542.293 717.917 500.938 763.047 490.395 778.275C489.66 779.337 478.002 771.81 476.592 771.025C420.441 739.776 368.193 704.928 333.825 663.967C265.835 582.936 222.704 535.527 219.353 541.694Z" fill="#bcd9de" fill-rule="nonzero" opacity="1" stroke="none"/>
<path d="M255.12 407.103C198.016 435.655 227.193 523.324 224.024 535.999C223.829 536.779 285.571 612.643 318.092 645.165C337.72 664.792 367.227 688.172 388.18 705.633C416.592 729.309 428.8 740.752 462.024 757.364C467.843 760.274 483.982 776.427 488.181 771.264C490.636 768.246 625.133 648.002 633.083 642.25C688.776 601.95 780.545 528.414 782.082 525.34C786.653 516.199 795.983 441.606 774.692 424.518C751.403 405.827 723.103 389.858 686.539 378.067C560.963 337.57 453.229 353.784 419.969 358.536C390.169 362.793 358.737 365.398 317.036 377.539" fill="#f2e3dc" fill-rule="nonzero" opacity="1" stroke="none"/>
<path d="M286.609 452.145C282.393 447.448 351.7 423.535 374.291 420.272C458.303 408.137 550.022 405.367 634.125 423.021C658.7 428.18 719.978 445.255 721.255 449.067C723.299 455.168 640.475 482.356 610.986 489.577C541.995 506.472 473.578 498.291 398.389 490.067C378.662 487.909 313.31 481.889 286.609 452.145Z" fill="#996736" fill-rule="nonzero" opacity="1" stroke="none"/>
<path d="M790.904 496.457C790.252 498.7 789.867 517.33 790.512 520.554C793.094 533.462 790.065 550.912 798.74 562.479C799.884 564.004 835.955 553.779 843.896 555.062C885.611 561.803 883.847 635.333 883.847 635.333C883.847 635.333 889.815 693.043 857.6 716.054C844.828 725.177 804.297 738.362 793.993 745.232C793.097 745.829 789.842 769.127 789.842 771.32C789.842 779.372 786.545 816.042 795.129 814.815C808.943 812.842 1014.05 743.526 927.538 545.217C903.047 489.076 793.535 487.397 790.904 496.457Z" fill="#f2e3dc" fill-rule="nonzero" opacity="1" stroke="none"/>
<path d="M225.851 540.676C210.313 528.76 204.276 587.553 204.854 592.796C209.581 635.718 218.254 634.989 221.028 649.407C223.486 662.182 215.255 805.099 226.778 837.224C250.598 903.634 316.335 935.747 381.871 948.605C510.968 973.935 715.095 983.034 779.786 848.648C792.812 821.589 777.577 700.456 790.513 622.958C791.375 617.792 795.753 613.273 797.475 606.076C802.271 586.037 800.837 583.347 800.372 576.838C798.3 547.819 787.987 530.49 785.102 530.648C768.087 531.577 673.896 598.194 606.745 658.732C556.972 703.604 491.828 777.124 488.647 775.961C481.249 773.258 386.299 719.715 321.653 653.18C295.915 626.689 255.075 563.088 225.851 540.676Z" fill="none" opacity="1" stroke="#000000" stroke-linecap="round" stroke-linejoin="round" stroke-width="10"/>
<path d="M463.794 958.489C449.033 914.207 448.477 857.691 467.25 813.887C472.78 800.985 482.366 790.569 488.566 778.169" fill="none" opacity="1" stroke="#000000" stroke-linecap="round" stroke-linejoin="round" stroke-width="10"/>
<path d="M542.954 960.344C537.47 913.794 533.704 857.006 558.799 817.418C612.844 732.158 712.077 686.017 788.715 620.316" fill="none" opacity="1" stroke="#000000" stroke-linecap="round" stroke-linejoin="round" stroke-width="10"/>
<path d="M219.831 643.051C287.727 751.78 390.94 812.567 455.147 844.67" fill="none" opacity="1" stroke="#000000" stroke-linecap="round" stroke-linejoin="round" stroke-width="10"/>
<path d="M476.547 867.565C476.547 854.662 487.007 844.202 499.91 844.202C512.813 844.202 523.274 854.662 523.274 867.565C523.274 880.468 512.813 890.928 499.91 890.928C487.007 890.928 476.547 880.468 476.547 867.565Z" fill="#dddddd" fill-rule="nonzero" opacity="1" stroke="#000000" stroke-linecap="round" stroke-linejoin="round" stroke-width="10"/>
<path d="M221.988 539.34C218.656 500.844 209.093 458.967 230.882 428.155C254.303 395.036 319.782 350.122 518.361 349.053C626.944 348.469 763.163 393.518 781.957 431.324C790.449 448.406 792.06 521.734 786.652 530.189" fill="none" opacity="1" stroke="#000000" stroke-linecap="round" stroke-linejoin="round" stroke-width="10"/>
<path d="M789.76 496.487C803.425 489.694 925.652 476.803 946.713 595.326C964.859 697.442 892.189 803.117 789.964 817.479" fill="none" opacity="1" stroke="#000000" stroke-linecap="round" stroke-linejoin="round" stroke-width="10"/>
<path d="M802.482 567.927C822.478 541.393 873.125 552.439 880.656 602.343C894.011 690.844 862.874 733.413 794.928 742.959" fill="none" opacity="1" stroke="#000000" stroke-linecap="round" stroke-linejoin="round" stroke-width="10"/>
<path d="M511.502 20.435C530.117 46.1021 525.631 56.4647 520.329 69.7207C504.486 109.329 443.644 118.16 453.58 166.675C464.294 218.993 595.145 236.184 521.065 310.264" fill="none" opacity="1" stroke="#000000" stroke-linecap="round" stroke-linejoin="round" stroke-width="10"/>
<path d="M565.937 97.6737C569.475 132.979 532.715 146.621 535.777 174.177C539.851 210.846 594.953 196.963 585.148 241.081" fill="none" opacity="1" stroke="#000000" stroke-linecap="round" stroke-linejoin="round" stroke-width="10"/>
<path d="M414.402 113.857C387.562 144.978 390.741 163.206 392.333 169.028C404.183 212.339 455.052 212.365 429.849 269.07" fill="none" opacity="1" stroke="#000000" stroke-linecap="round" stroke-linejoin="round" stroke-width="10"/>
<path d="M261.153 430.526C276.812 453.019 288.109 457.773 298.432 463.975C317.626 475.508 345.151 482.883 367.077 487.008C470.32 506.431 594.144 505.911 693.282 467.907C712.407 460.575 727.515 448.634 744.518 438.839" fill="none" opacity="1" stroke="#000000" stroke-linecap="round" stroke-linejoin="round" stroke-width="10"/>
<path d="M285.355 446.747C299.509 438.593 390.803 407.332 502.066 408.709C602.3 409.949 710.586 439.21 724.317 445.975" fill="none" opacity="1" stroke="#000000" stroke-linecap="round" stroke-linejoin="round" stroke-width="10"/>
</g></g>
</svg>
