<?xml version="1.0" encoding="UTF-8" standalone="no"?>
<!DOCTYPE svg PUBLIC "-//W3C//DTD SVG 1.1//EN" "http://www.w3.org/Graphics/SVG/1.1/DTD/svg11.dtd">
<!-- Created with Vectornator (http://vectornator.io/) -->
<svg height="1024.0px" stroke-miterlimit="10" style="fill-rule:nonzero;clip-rule:evenodd;stroke-linecap:round;stroke-linejoin:round;" version="1.1" viewBox="0 0 1024 1024" width="1024.0px" xml:space="preserve" xmlns="http://www.w3.org/2000/svg" xmlns:xlink="http://www.w3.org/1999/xlink">
<defs/>
<clipPath id="ArtboardFrame">
<rect height="1024" width="1024" x="0" y="0"/>
</clipPath>
<g clip-path="url(#ArtboardFrame)" id="Layer-1">
<path d="M-29.811-31.1146L1064.47-31.1146L1064.47 1060.77L-29.811 1060.77L-29.811-31.1146Z" fill="#d9dcb9" fill-rule="nonzero" opacity="1" stroke="none"/>
<path d="M219.353 541.694C210.437 558.097 199.114 610.048 215.624 632.062C220.088 638.014 219.061 681.419 218.16 693.89C212.682 769.735 226.591 847.987 239.825 862.543C340.145 972.879 469.467 963.884 573.046 954.623C653.383 947.441 763.534 906.082 781.423 818.143C789.56 778.14 787.398 725.83 790.89 685.527C794.114 648.317 794.281 540.252 780.507 534.296C773.766 531.38 741.32 557.894 734.077 564.612C674.968 619.429 675.297 609.359 616.964 660.547C611.524 665.32 548.472 713.827 542.293 717.917C542.293 717.917 500.938 763.047 490.395 778.275C489.66 779.337 478.002 771.81 476.592 771.025C317.424 682.445 224.531 532.166 219.353 541.694Z" fill="#bcd9de" fill-rule="nonzero" opacity="1" stroke="none"/>
<path d="M255.12 407.103C198.016 435.655 232.052 524.278 228.883 536.953C228.688 537.733 285.571 612.643 318.092 645.165C337.72 664.792 367.227 688.172 388.18 705.633C416.592 729.309 428.8 740.752 462.024 757.364C467.843 760.274 483.982 776.427 488.181 771.264C490.636 768.246 625.133 648.002 633.083 642.25C688.776 601.95 780.545 528.414 782.082 525.34C786.653 516.199 795.983 441.606 774.692 424.518C751.403 405.827 723.103 389.858 686.539 378.067C560.963 337.57 453.229 353.784 419.969 358.536C390.169 362.793 358.737 365.398 317.036 377.539" fill="#f2e3dc" fill-rule="nonzero" opacity="1" stroke="none"/>
<path d="M286.609 452.145C282.393 447.448 351.7 423.535 374.291 420.272C458.303 408.137 550.022 405.367 634.125 423.021C658.7 428.18 719.978 445.255 721.255 449.067C723.299 455.168 640.475 482.356 610.986 489.577C541.995 506.472 473.578 498.291 398.389 490.067C378.662 487.909 313.31 481.889 286.609 452.145Z" fill="#996736" fill-rule="nonzero" opacity="1" stroke="none"/>
<path d="M790.904 496.457C790.252 498.7 789.867 517.33 790.512 520.554C793.094 533.462 790.065 550.912 798.74 562.479C799.884 564.004 808.41 558.428 809.712 557.778C816.746 554.26 824.835 552.187 832.829 553.076C869.61 557.162 894.346 629.09 894.346 629.09C894.346 629.09 865.828 705.995 833.613 729.005C820.84 738.129 797.682 737.417 787.377 744.287C786.482 744.884 789.842 769.127 789.842 771.32C789.842 779.372 787.805 816.042 796.389 814.815C810.203 812.842 825.701 808.815 837.839 802.988C926.123 760.603 988.783 631.633 927.538 545.217C904.308 512.439 885.262 503.119 840.264 492.487C833.658 490.926 793.535 487.397 790.904 496.457Z" fill="#f2e3dc" fill-rule="nonzero" opacity="1" stroke="none"/>
<path d="M221.626 538.771C206.088 526.855 203.281 599.305 203.956 608.137C205.23 624.808 218.254 634.989 221.028 649.407C223.486 662.182 215.255 805.099 226.778 837.224C250.598 903.634 316.335 935.747 381.871 948.605C510.968 973.935 714.108 975.136 778.799 840.751C800.096 796.509 795.809 530.063 785.102 530.648C768.087 531.577 670.669 609.845 620.815 656.027C571.654 701.567 491.828 777.124 488.647 775.961C481.249 773.258 386.299 719.715 321.653 653.18C295.915 626.689 250.85 561.183 221.626 538.771Z" fill="none" opacity="1" stroke="#000000" stroke-linecap="round" stroke-linejoin="round" stroke-width="10"/>
<path d="M463.794 958.489C449.033 914.207 448.477 857.691 467.25 813.887C472.78 800.985 482.366 790.569 488.566 778.169" fill="none" opacity="1" stroke="#000000" stroke-linecap="round" stroke-linejoin="round" stroke-width="10"/>
<path d="M550.374 826.311C572.564 804.31 661.706 690.975 788.715 620.316" fill="none" opacity="1" stroke="#000000" stroke-linecap="round" stroke-linejoin="round" stroke-width="10"/>
<path d="M219.831 643.051C287.727 751.78 390.94 812.567 455.147 844.67" fill="none" opacity="1" stroke="#000000" stroke-linecap="round" stroke-linejoin="round" stroke-width="10"/>
<path d="M497.142 868.033C497.142 855.13 507.602 844.67 520.505 844.67C533.408 844.67 543.868 855.13 543.868 868.033C543.868 880.936 533.408 891.396 520.505 891.396C507.602 891.396 497.142 880.936 497.142 868.033Z" fill="#dedede" fill-rule="nonzero" opacity="1" stroke="#000000" stroke-linecap="round" stroke-linejoin="round" stroke-width="10"/>
<path d="M223.634 532.484C234.538 500.023 209.093 458.967 230.882 428.155C254.303 395.036 319.782 350.122 518.361 349.053C626.944 348.469 763.163 393.518 781.957 431.324C790.449 448.406 788.686 469.839 788.642 488.531C788.619 498.478 792.06 521.734 786.652 530.189" fill="none" opacity="1" stroke="#000000" stroke-linecap="round" stroke-linejoin="round" stroke-width="10"/>
<path d="M789.76 496.487C803.425 489.694 925.652 476.803 946.713 595.326C964.859 697.442 892.189 803.117 789.964 817.479" fill="none" opacity="1" stroke="#000000" stroke-linecap="round" stroke-linejoin="round" stroke-width="10"/>
<path d="M796.025 571.873C816.021 545.34 877.158 562.162 883.777 592.127C903.084 679.524 862.874 733.413 794.928 742.959" fill="none" opacity="1" stroke="#000000" stroke-linecap="round" stroke-linejoin="round" stroke-width="10"/>
<path d="M511.502 20.435C530.117 46.1021 525.631 56.4647 520.329 69.7207C504.486 109.329 443.644 118.16 453.58 166.675C464.294 218.993 595.145 236.184 521.065 310.264" fill="none" opacity="1" stroke="#000000" stroke-linecap="round" stroke-linejoin="round" stroke-width="10"/>
<path d="M565.937 97.6737C569.475 132.979 532.715 146.621 535.777 174.177C539.851 210.846 594.953 196.963 585.148 241.081" fill="none" opacity="1" stroke="#000000" stroke-linecap="round" stroke-linejoin="round" stroke-width="10"/>
<path d="M414.402 113.857C387.562 144.978 390.741 163.206 392.333 169.028C404.183 212.339 455.052 212.365 429.849 269.07" fill="none" opacity="1" stroke="#000000" stroke-linecap="round" stroke-linejoin="round" stroke-width="10"/>
<path d="M261.153 430.526C276.812 453.019 288.109 457.773 298.432 463.975C317.626 475.508 345.151 482.883 367.077 487.008C470.32 506.431 594.144 505.911 693.282 467.907C712.407 460.575 727.515 448.634 744.518 438.839" fill="none" opacity="1" stroke="#000000" stroke-linecap="round" stroke-linejoin="round" stroke-width="10"/>
<path d="M285.355 446.747C299.509 438.593 390.803 407.332 502.066 408.709C602.3 409.949 710.586 439.21 724.317 445.975" fill="none" opacity="1" stroke="#000000" stroke-linecap="round" stroke-linejoin="round" stroke-width="10"/>
</g>
</svg>
