<?xml version="1.0" encoding="UTF-8" standalone="no"?>
<!DOCTYPE svg PUBLIC "-//W3C//DTD SVG 1.1//EN" "http://www.w3.org/Graphics/SVG/1.1/DTD/svg11.dtd">
<!-- Created with Vectornator (http://vectornator.io/) -->
<svg height="1024.0px" stroke-miterlimit="10" style="fill-rule:nonzero;clip-rule:evenodd;stroke-linecap:round;stroke-linejoin:round;" version="1.1" viewBox="0 0 1024 1024" width="1024.0px" xml:space="preserve" xmlns="http://www.w3.org/2000/svg" xmlns:xlink="http://www.w3.org/1999/xlink">
<defs/>
<clipPath id="ArtboardFrame">
<rect height="1024" width="1024" x="0" y="0"/>
</clipPath>
<g clip-path="url(#ArtboardFrame)" id="Layer-1">
<circle data-cardigan-refit="1" cx="512" cy="512" r="512" fill="#f5eded" stroke="none"/><g transform="translate(512 542) scale(0.80) translate(-512 -512)">
<path d="M410.145 125.697C374.451 173.289 327.184 448.95 327.184 513.429C327.184 535.617 304.411 552.991 316.39 572.956C325.833 588.694 366.107 623.785 380.179 635.042C407.542 656.933 530.009 824.556 538.287 826.211C539.382 826.43 654.637 717.322 684.169 669.333C696.797 648.813 736.748 593.879 736.748 567.572C736.748 561.871 711.815 545.032 721.243 528.532C731.14 511.213 748.021 506.456 763.819 503.823C781.805 500.825 804.901 489.218 816.215 474.132C842.883 438.574 843.324 394.212 836.629 354.041C833.534 335.474 834.623 324.583 812.722 315.197C778.07 300.346 737.39 304.901 700.944 302.098C692.476 301.446 728.48 228.985 644.584 147.596C546.199 52.1505 418.702 114.288 410.145 125.697Z" fill="#fff7ef" fill-rule="nonzero" opacity="1" stroke="none"/>
<path d="M291.92 545.496C282.682 543.762 254.319 571.444 251.254 580.983C235.102 631.263 235.536 621.938 233.111 625.328C172.943 709.453 152.356 815.777 140.095 870.955C126.354 932.786 137.176 1066.81 137.71 1067.61C140.332 1071.54 919.714 1071.61 929.71 1056.61C935.692 1047.64 880.343 777.54 854.71 722.612C841.707 694.747 791.476 560.483 791.476 560.483C791.476 560.483 742.048 508.598 726.6 595.326C721.704 622.815 676.779 676.358 656.363 705.07C649.827 714.261 551.159 806.227 542.306 806.227C541.379 806.227 491.762 761.475 477.71 744.612C434.347 692.576 384.262 646.163 335.71 597.612C323.374 585.275 311.533 549.178 291.92 545.496Z" fill="#b5c8b0" fill-rule="nonzero" opacity="1" stroke="none"/>
<path d="M583.677 108.718C581.336 114.92 614.284 143.445 618.973 149.444C638.049 173.855 661.305 198.082 672.151 227.878C678.58 245.538 681.126 284.855 697.968 296.469C710.319 304.986 761.549 306.344 763.067 303.733C764.901 300.581 755.369 273.108 754.145 270.462C748.447 258.138 738.971 236.053 739.198 236.05C743.939 235.986 763.233 251.006 769.983 252.386C814.496 261.487 823.85 250.33 826.553 245.685C828.944 241.575 816.789 160.63 789.928 142.67C779.591 135.758 748.423 119.383 748.435 119.203C748.6 116.596 767.268 104.132 766.706 103.274C765.94 102.106 709.956 109.562 706.809 110.219C691.289 113.46 671.474 119.295 662.071 118.699C658.831 118.493 666.65 95.8978 665.966 95.7555C663.369 95.215 641.435 125.967 632.78 124.165C620.647 121.64 612.644 112.294 599.717 110.834C595.458 110.353 584.48 106.591 583.677 108.718Z" fill="#825930" fill-rule="nonzero" opacity="1" stroke="none"/>
<path d="M453.319 104.1C450.234 101.999 426.257 103.728 412.834 114.467C410.071 116.677 386.19 142.012 382.401 141.255C376.617 140.098 358.673 111.008 355.32 112.125C351.841 113.285 358.54 132.252 354.066 134.489C351.705 135.67 338.144 130.372 335.371 130.174C313.887 128.64 302.234 121.093 281.003 124.632C273.443 125.892 235.566 159.226 232.266 163.351C207.837 193.888 208.257 203.177 203.15 244.035C197.645 288.076 228.403 276.788 259.124 268.595C267.454 266.374 298.39 248.391 296.82 249.176C290.518 252.327 231.655 286.264 240.757 316.034C241.124 317.235 292.718 289.272 292.937 289.6C296.06 294.285 284.094 312.287 281.399 315.431C268.134 330.907 255.054 361.41 260.266 382.257C264.081 397.517 304.188 364.27 303.674 366.836C299.397 388.225 256.345 460.789 258.343 464.786C261.218 470.536 291.884 445.031 301.39 451.368C304.306 453.312 260.951 507.801 256.418 525.931C249.899 552.008 278.29 518.114 292.868 532.693C311.513 551.338 271.669 561.169 314.527 571.883C337.135 577.536 399.076 563.248 405.342 538.185C407.866 528.088 383.42 510.85 383.637 510.198C384.207 508.49 442.621 502.534 442.621 497.731C442.621 497.444 402.475 465.658 404.199 463.934C405.184 462.949 474.093 485.992 479.582 487.56C508.535 495.832 559.518 472.042 560.698 468.503C561.069 467.39 535.135 435.25 537.852 421.667C538.149 420.182 581.227 391.001 579.543 389.878C578.434 389.139 546.403 385.876 546.594 385.495C552.181 374.321 581.917 355.498 580.689 354.27C578.73 352.311 541.315 352.117 541.617 351.512C543.702 347.342 550 353.036 573.203 296.676C577.937 285.178 575.727 236.686 511.578 157.219C473.31 109.812 462.177 110.133 453.319 104.1Z" fill="#825930" fill-rule="nonzero" opacity="1" stroke="none"/>
<path d="M537.23 800.527C544.164 807.216 479.579 741.345 448.23 709.577C429.926 691.03 366.936 631.057 322.874 575.391" fill="none" opacity="1" stroke="#000000" stroke-linecap="round" stroke-linejoin="round" stroke-width="10"/>
<path d="M495.215 870.68C495.088 870.924 489.617 864.444 487.535 862.837C480.104 857.103 472.57 851.358 464.946 845.843C441.47 828.861 419.065 810.441 395.825 793.12C348.941 758.178 306.637 712.847 271.137 667.193C258.378 650.787 240.305 620.994 243.127 599.219C244.177 591.114 248.262 575.964 258.322 563.786C273.187 545.791 292.546 542.335 292.546 542.335" fill="none" opacity="1" stroke="#000000" stroke-linecap="round" stroke-linejoin="round" stroke-width="10"/>
<path d="M242.298 615.144C234.263 617.602 207.297 666.519 203.266 674.574C190.883 699.318 155.595 777.988 140.62 867.924C125.679 957.658 131.035 1058.68 133.404 1065.88" fill="none" opacity="1" stroke="#000000" stroke-linecap="round" stroke-linejoin="round" stroke-width="10"/>
<path d="M509.827 1061.78C506.665 1065.79 492.556 1003.6 492.168 1000.34C490.732 988.263 489.839 974.468 488.526 962.362C484.441 924.706 494.412 870.362 514.14 837.554C533.139 805.958 564.022 793.818 589.929 769.149C630.269 730.737 668.44 690.18 700.2 644.864C709.32 631.851 743.872 577.034 735.361 560.351" fill="none" opacity="1" stroke="#000000" stroke-linecap="round" stroke-linejoin="round" stroke-width="10"/>
<path d="M617.37 1066.62C615.707 1054.85 602.917 993.513 602.995 981.767C603.211 949.127 600.431 900.075 617.23 870.616C634.322 840.642 664.791 814.823 689.417 790.355C720.212 759.757 746.686 721.396 769.623 685.055C797.287 641.226 825.97 593.254 788.108 556.07C755.207 523.759 734.555 555.233 735.502 559.72" fill="none" opacity="1" stroke="#000000" stroke-linecap="round" stroke-linejoin="round" stroke-width="10"/>
<path d="M806.522 611.738C848.496 694.02 910.088 805.588 926.072 1063.12" fill="none" opacity="1" stroke="#000000" stroke-linecap="round" stroke-linejoin="round" stroke-width="10"/>
<path d="M523.596 913.784C523.596 902.386 532.836 893.146 544.234 893.146C555.632 893.146 564.872 902.386 564.872 913.784C564.872 925.182 555.632 934.422 544.234 934.422C532.836 934.422 523.596 925.182 523.596 913.784Z" fill="#dddddd" fill-rule="nonzero" opacity="1" stroke="#000000" stroke-linecap="butt" stroke-linejoin="round" stroke-width="10"/>
<path d="M635.581 122.522C635.581 117.267 651.155 108.172 654.683 104.101C658.627 99.5504 663.366 95.1184 666.282 89.7739C667.455 87.6236 666.561 82.9514 669.011 82.9514C669.838 82.9514 664.165 117.214 664.917 117.064C691.75 111.697 716.551 108.664 744.058 106.83C751.724 106.319 758.766 104.043 765.889 101.372C766.467 101.155 774.076 98.0804 774.076 98.643C774.076 103.639 758.715 112.464 754.974 114.335C752.783 115.43 747.056 114.873 748.151 117.064C748.509 117.779 760.292 120.335 762.478 122.522C780.817 140.86 799.411 139.031 819.105 183.241C828.322 203.934 827.304 248.265 825.927 250.102C822.98 254.031 812.725 253.515 808.871 254.195C777.605 259.713 757.253 255.098 727.544 224.063" fill="none" opacity="1" stroke="#000000" stroke-linecap="round" stroke-linejoin="round" stroke-width="10"/>
<path d="M293.093 247.373C288.932 256.427 262.503 266.695 252.934 278.999C238.162 297.993 239.827 318.3 241.243 319.008C242.4 319.587 297.869 284.259 297.869 284.896C297.869 290.645 269.217 327.368 266.729 332.897C257.891 352.538 255.268 366.619 259.663 388.597C261.515 397.858 285.64 377.126 289 374.952C289.324 374.742 303.271 367.336 302.645 366.083C302.096 364.986 294.921 378.523 294.458 379.728C291.081 388.507 282.57 408.601 278.915 417.28C275.181 426.149 250.806 460.932 254.888 467.056C258.011 471.74 295.119 445.884 303.327 454.093C303.377 454.143 284.914 468.29 272.839 487.155C259.184 508.489 251.841 534.962 254.205 537.327C254.238 537.359 285.049 524.75 297.395 537.096C301.273 540.974 291.833 557.305 288.318 558.476" fill="none" opacity="1" stroke="#000000" stroke-linecap="round" stroke-linejoin="round" stroke-width="10"/>
<path d="M561.596 100.613C677.065 174.106 666.434 264.045 695.324 292.935C709.759 307.37 768.336 295.59 826.103 319.977C842.083 326.723 835.576 362.477 838.805 377.007C847.143 414.53 833.716 469.15 800.062 491.586C772.43 510.007 759.128 495.191 732.454 514.244C710.28 530.082 713.866 549.6 731.964 558.649" fill="none" opacity="1" stroke="#000000" stroke-linecap="round" stroke-linejoin="round" stroke-width="10"/>
<path d="M710.999 204.377C686.062 199.405 678.066 221.38 707.489 229.647C710.964 230.624 726.8 233.267 730.54 233.267" fill="#bda27c" fill-rule="nonzero" opacity="1" stroke="#000000" stroke-linecap="round" stroke-linejoin="round" stroke-width="10"/>
<path d="M452.826 100.585C475.323 108.189 594.686 243.592 575.887 294.62C570.117 310.279 561.203 325.3 551.982 339.132C550.078 341.988 542.16 347.166 541.266 349.848C539.589 354.878 575.873 351.994 578.36 351.497C579.998 351.169 583.305 349.001 583.305 350.673C583.305 355.801 546.875 383.664 547.036 384.469C549.193 395.252 574.26 385.583 580.008 389.415C582.825 391.293 578.243 392.93 577.535 393.537C566.754 402.778 545.255 409.595 540.442 424.036C535.575 438.635 552.354 456.152 562.698 464.427C564.165 465.601 566.206 467.513 564.346 469.373C539.13 494.589 482.819 491.393 452.241 481.737C447.74 480.316 404.17 467.986 403.607 468.548C400.148 472.008 418.806 481.655 422.626 484.711C431.371 491.707 448.944 497.31 448.944 499.048C448.944 500.679 433.255 506.437 417.976 507.812C401.949 509.254 386.297 506.296 386.297 507.291C386.297 512.483 407.209 529.191 403.458 542.266C399.341 556.615 369.576 567.269 346.111 569.71C323.911 572.02 290.475 565.778 288.607 560.174" fill="none" opacity="1" stroke="#000000" stroke-linecap="round" stroke-linejoin="round" stroke-width="10"/>
<path d="M744.787 326.883C755.122 319.225 766.565 314.339 780.006 312.143C788.137 310.814 797.608 311.263 805.558 313.014C812.139 314.464 829.365 318.854 832.292 325.999C837.273 338.158 803.81 375.096 788.959 373.982C776.684 373.061 765.362 361.507 757.292 353.57C752.568 348.923 739.152 331.058 744.787 326.883Z" fill="#000002" fill-rule="nonzero" opacity="1" stroke="#000000" stroke-linecap="round" stroke-linejoin="round" stroke-width="10"/>
<path d="M491.352 287.485C491.352 278.328 496.3 270.905 502.404 270.905C508.508 270.905 513.456 278.328 513.456 287.485C513.456 296.641 508.508 304.064 502.404 304.064C496.3 304.064 491.352 296.641 491.352 287.485Z" fill="#000002" fill-rule="nonzero" opacity="1" stroke="#000000" stroke-linecap="butt" stroke-linejoin="round" stroke-width="10"/>
<path d="M380.745 139.969C465.737 46.8327 638.301 113.549 670.314 150.438C752.902 245.607 760.045 288.238 762.609 303.495" fill="none" opacity="1" stroke="#000000" stroke-linecap="round" stroke-linejoin="round" stroke-width="10"/>
<path d="M710.269 263.005C708.025 255.572 709.524 248.544 713.617 247.309C717.709 246.073 722.846 251.098 725.09 258.531C727.334 265.965 725.836 272.993 721.743 274.228C717.65 275.464 712.513 270.439 710.269 263.005Z" fill="#000002" fill-rule="nonzero" opacity="1" stroke="#000000" stroke-linecap="butt" stroke-linejoin="round" stroke-width="10"/>
<path d="M380.831 140.327C380.831 134.744 365.39 124.044 362.127 119.719C358.479 114.883 354.096 110.174 351.4 104.495C350.315 102.211 351.141 97.2463 348.876 97.2463C348.111 97.2463 353.358 133.652 352.662 133.492C327.844 127.79 304.906 124.567 279.464 122.618C272.373 122.075 265.861 119.657 259.272 116.819C258.738 116.589 251.7 113.321 251.7 113.919C251.7 119.228 265.908 128.605 269.368 130.592C271.395 131.756 276.692 131.164 275.678 133.492C275.348 134.252 264.449 136.968 262.427 139.291C245.466 158.777 228.268 156.833 210.053 203.809C201.528 225.795 202.469 272.899 203.743 274.85C206.469 279.025 267.26 280.159 294.738 247.184" fill="none" opacity="1" stroke="#000000" stroke-linecap="round" stroke-linejoin="round" stroke-width="10"/>
<path d="M790.468 376.753C789.618 375.053 790.302 385.399 790.468 387.39C790.917 392.784 790.974 398.154 790.974 403.599C790.974 420.35 786.633 438.695 776.791 452.227C758.95 476.759 703.03 481.753 696.758 444.122" fill="none" opacity="1" stroke="#000000" stroke-linecap="round" stroke-linejoin="round" stroke-width="10"/>
<path d="M789.455 425.887C789.455 448.169 799.095 466.376 824.717 464.111" fill="none" opacity="1" stroke="#000000" stroke-linecap="round" stroke-linejoin="round" stroke-width="10"/>
<path d="M-140.05 150.934C-138.717 152.6-137.384 154.267-136.05 155.934" fill="#bda27c" fill-rule="nonzero" opacity="1" stroke="none"/>
<path d="M474.125 234.453C460.322 235.942 455.498 240.435 450.951 250.362C440.025 274.218 458.106 278.368 476.39 266.271C481.864 262.649 486.252 258.428 488.935 252.437C492.641 244.162 481.966 233.608 474.125 234.453Z" fill="#bda27c" fill-rule="nonzero" opacity="1" stroke="#000000" stroke-linecap="round" stroke-linejoin="round" stroke-width="10"/>
</g></g>
</svg>
