<svg xmlns="http://www.w3.org/2000/svg" viewBox="0 0 200 200" role="img" aria-label="Gato">
  <circle cx="100" cy="100" r="100" fill="#E5E0EC"/>
  <g fill="#FAF6EE" stroke="#2E2E2E" stroke-width="2.4" stroke-linejoin="round">
    <path d="M66 55 L76 88 L58 88 Z"/>
    <path d="M134 55 L142 88 L124 88 Z"/>
    <path d="M68 88 Q68 54 100 54 Q132 54 132 88 Q132 116 100 118 Q68 116 68 88 Z"/>
  </g>
  <g fill="#2E2E2E">
    <circle cx="88" cy="88" r="2.6"/>
    <circle cx="112" cy="88" r="2.6"/>
  </g>
  <g fill="none" stroke="#2E2E2E" stroke-width="2" stroke-linecap="round">
    <path d="M92 100 L100 104 L108 100"/>
    <path d="M74 95 L64 92"/>
    <path d="M74 99 L62 100"/>
    <path d="M126 95 L136 92"/>
    <path d="M126 99 L138 100"/>
  </g>
  <path d="M55 150 Q55 128 100 128 Q145 128 145 150 L145 185 L55 185 Z" fill="#7FA398" stroke="#2E2E2E" stroke-width="2.4" stroke-linejoin="round"/>
  <path d="M100 128 L86 148 L100 168 L114 148 Z" fill="#E5E0EC" stroke="#2E2E2E" stroke-width="2.4" stroke-linejoin="round"/>
  <circle cx="100" cy="158" r="3" fill="#FFFFFF" stroke="#2E2E2E" stroke-width="1.4"/>
</svg>
