<svg xmlns="http://www.w3.org/2000/svg" viewBox="0 0 200 200" role="img" aria-label="Gato">
  <circle cx="100" cy="100" r="100" fill="#DDD5E4"/>
  <g stroke="#2E2E2E" stroke-width="3.2" stroke-linejoin="round" stroke-linecap="round" fill="#F2E8D9">
    <path d="M58 44 L82 90 L50 92 Z"/>
    <path d="M142 44 L150 92 L118 90 Z"/>
    <path d="M100 56 Q60 56 58 96 Q58 136 100 144 Q142 136 142 96 Q140 56 100 56 Z"/>
  </g>
  <circle cx="84" cy="102" r="4" fill="#2E2E2E"/>
  <circle cx="116" cy="102" r="4" fill="#2E2E2E"/>
  <path d="M93 116 L100 122 L107 116" fill="none" stroke="#2E2E2E" stroke-width="2.6" stroke-linejoin="round" stroke-linecap="round"/>
  <g stroke="#2E2E2E" stroke-width="2.2" stroke-linecap="round" fill="none">
    <path d="M70 110 L54 106"/>
    <path d="M70 116 L54 120"/>
    <path d="M130 110 L146 106"/>
    <path d="M130 116 L146 120"/>
  </g>
</svg>
