<svg xmlns="http://www.w3.org/2000/svg" viewBox="0 0 200 200" role="img" aria-label="Nube">
  <circle cx="100" cy="100" r="100" fill="#CEDDDE"/>
  <path d="M58 114 Q42 114 42 96 Q42 78 62 78 Q66 58 86 58 Q100 58 108 70 Q120 60 134 66 Q150 72 148 90 Q162 92 160 108 Q158 124 138 124 L62 124 Q58 124 58 114 Z" fill="#F2E8D9" stroke="#2C2C2C" stroke-width="3" stroke-linejoin="round"/>
  <path d="M22 200 L22 140 C22 114 36 106 56 112 C80 118 92 132 100 152 C108 132 120 118 144 112 C164 106 178 114 178 140 L178 200 Z" fill="#5E8790" stroke="#2C2C2C" stroke-width="3" stroke-linejoin="round"/>
  <path d="M100 152 L100 200" stroke="#2C2C2C" stroke-width="2.2"/>
  <circle cx="100" cy="174" r="3.6" fill="#F2E8D9" stroke="#2C2C2C" stroke-width="1.6"/>
</svg>
