<svg xmlns="http://www.w3.org/2000/svg" viewBox="0 0 200 200" role="img" aria-label="Café">
  <circle cx="100" cy="100" r="100" fill="#DAD4CC"/>
  <g fill="none" stroke="#3D3228" stroke-width="2.8" stroke-linecap="round">
    <path d="M84 36 Q92 48 84 60"/>
    <path d="M100 30 Q108 44 100 58"/>
    <path d="M116 36 Q108 48 116 60"/>
  </g>
  <path d="M100 74 C56 74 50 102 50 124 C50 154 74 172 100 172 C126 172 150 154 150 124 C150 102 144 74 100 74 Z" fill="#F6EBD8" stroke="#3D3228" stroke-width="3" stroke-linejoin="round"/>
  <path d="M62 98 Q100 92 138 98" stroke="#6E4A36" stroke-width="8" stroke-linecap="round" fill="none"/>
  <path d="M150 104 Q178 108 176 128 Q174 150 148 150" fill="none" stroke="#3D3228" stroke-width="3" stroke-linejoin="round"/>
  <g fill="#F2B5AC" opacity="0.85">
    <ellipse cx="78" cy="138" rx="9.5" ry="5.5"/>
    <ellipse cx="122" cy="138" rx="9.5" ry="5.5"/>
  </g>
  <g fill="#3D3228">
    <circle cx="86" cy="128" r="3.2"/>
    <circle cx="114" cy="128" r="3.2"/>
  </g>
  <g fill="#FFFFFF">
    <circle cx="87" cy="126.5" r="1.1"/>
    <circle cx="115" cy="126.5" r="1.1"/>
  </g>
  <path d="M92 140 Q100 147 108 140" fill="none" stroke="#3D3228" stroke-width="2.4" stroke-linecap="round"/>
</svg>
