<svg xmlns="http://www.w3.org/2000/svg" viewBox="0 0 200 200" role="img" aria-label="Perro">
  <circle cx="100" cy="100" r="100" fill="#DCECE5"/>
  <g fill="none" stroke="#2E2E2E" stroke-width="2.4" stroke-linecap="round" stroke-linejoin="round">
    <path d="M60 70 Q55 95 68 108" fill="#FAF6EE"/>
    <path d="M140 70 Q145 95 132 108" fill="#FAF6EE"/>
    <path d="M70 82 Q70 50 100 50 Q130 50 130 82 Q130 112 100 115 Q70 112 70 82 Z" fill="#FAF6EE"/>
    <circle cx="88" cy="85" r="2.6" fill="#2E2E2E"/>
    <circle cx="112" cy="85" r="2.6" fill="#2E2E2E"/>
    <ellipse cx="100" cy="97" rx="4" ry="3" fill="#2E2E2E"/>
    <path d="M100 100 L100 106" />
  </g>
  <path d="M55 150 Q55 128 100 128 Q145 128 145 150 L145 185 L55 185 Z" fill="#5B9BAF" stroke="#2E2E2E" stroke-width="2.4" stroke-linejoin="round"/>
  <path d="M100 128 L86 148 L100 168 L114 148 Z" fill="#DCECE5" stroke="#2E2E2E" stroke-width="2.4" stroke-linejoin="round"/>
  <circle cx="100" cy="158" r="3" fill="#FFFFFF" stroke="#2E2E2E" stroke-width="1.4"/>
</svg>
