<svg xmlns="http://www.w3.org/2000/svg" viewBox="0 0 200 200" role="img" aria-label="Perro">
  <circle cx="100" cy="100" r="100" fill="#D0DED3"/>
  <g stroke="#2E2E2E" stroke-width="3.2" stroke-linejoin="round" stroke-linecap="round" fill="#F2E8D9">
    <path d="M52 70 Q40 102 50 138 Q64 140 72 122 Q66 94 74 70 Z"/>
    <path d="M148 70 Q160 102 150 138 Q136 140 128 122 Q134 94 126 70 Z"/>
    <path d="M100 54 Q60 54 58 96 Q58 136 100 144 Q142 136 142 96 Q140 54 100 54 Z"/>
  </g>
  <circle cx="84" cy="100" r="4.2" fill="#2E2E2E"/>
  <circle cx="116" cy="100" r="4.2" fill="#2E2E2E"/>
  <ellipse cx="100" cy="118" rx="6.5" ry="4.8" fill="#2E2E2E"/>
  <path d="M100 122 L100 128 Q94 132 90 128 M100 128 Q106 132 110 128" fill="none" stroke="#2E2E2E" stroke-width="2.6" stroke-linejoin="round" stroke-linecap="round"/>
</svg>
