<svg xmlns="http://www.w3.org/2000/svg" viewBox="0 0 200 200" role="img" aria-label="Perro">
  <circle cx="100" cy="100" r="100" fill="#D6E3D7"/>
  <g stroke="#3D3228" stroke-width="3" stroke-linejoin="round" stroke-linecap="round" fill="#F6EBD8">
    <ellipse cx="52" cy="108" rx="22" ry="32" transform="rotate(-12 52 108)"/>
    <ellipse cx="148" cy="108" rx="22" ry="32" transform="rotate(12 148 108)"/>
    <path d="M100 54 C58 54 50 90 50 114 C50 146 72 160 100 160 C128 160 150 146 150 114 C150 90 142 54 100 54 Z"/>
  </g>
  <g fill="#F2B5AC" opacity="0.85">
    <ellipse cx="72" cy="122" rx="11" ry="6.5"/>
    <ellipse cx="128" cy="122" rx="11" ry="6.5"/>
  </g>
  <g fill="#3D3228">
    <circle cx="82" cy="106" r="6"/>
    <circle cx="118" cy="106" r="6"/>
  </g>
  <g fill="#FFFFFF">
    <circle cx="84.5" cy="103" r="2"/>
    <circle cx="120.5" cy="103" r="2"/>
  </g>
  <ellipse cx="100" cy="124" rx="6.5" ry="4.8" fill="#3D3228"/>
  <path d="M100 129 Q100 136 94 138 M100 136 Q100 136 106 138" fill="none" stroke="#3D3228" stroke-width="2.6" stroke-linejoin="round" stroke-linecap="round"/>
</svg>
