<?xml version="1.0" encoding="UTF-8" standalone="no"?>
<svg xmlns="http://www.w3.org/2000/svg" xmlns:xlink="http://www.w3.org/1999/xlink" viewBox="0 0 1024 1024" role="img" aria-label="Gatito" stroke-miterlimit="10" style="fill-rule:nonzero;clip-rule:evenodd;stroke-linecap:round;stroke-linejoin:round;">
<clipPath id="ArtboardFrame"><rect height="1024" width="1024" x="0" y="0"/></clipPath>
<g clip-path="url(#ArtboardFrame)" id="Layer-2">
<path d="M66.5368 518.607C66.5368 249.528 275.743 31.396 533.812 31.396C791.881 31.396 1001.09 249.528 1001.09 518.607C1001.09 787.687 791.881 1005.82 533.812 1005.82C275.743 1005.82 66.5368 787.687 66.5368 518.607Z" fill="#b3d2db" fill-rule="nonzero" opacity="1" stroke="none"/>
<path d="M260.238 1052.25C256.494 1053.9 252.749 1055.55 249.005 1057.2" fill="#517968" fill-rule="nonzero" opacity="1" stroke="none"/>
<path d="M341.24 612.617C338.821 606.467 321.648 630.305 320.238 634.371C316.415 645.396 310.232 664.626 311.121 676.249C311.329 678.975 315.585 687.519 314.92 689.435C313.998 692.094 307.993 695.265 305.927 697.338C298.454 704.839 290.997 715.6 286.468 725.032C267.577 764.384 255.747 803.148 247.111 845.866C244.738 857.604 237.146 883.425 242.789 895.059C256.224 922.757 318.248 951.769 345.425 964.725C377.633 980.078 420.957 992.678 457.089 998.716C495.907 1005.2 517.083 1006.92 555.117 1005.57C578.396 1004.74 629.952 996.773 652.958 989.505C675.837 982.278 701.039 974.968 722.805 965.494C755.204 951.392 776.03 941.097 803.255 918.324C809.298 913.27 822.824 905.229 825.095 897.513C828.667 885.375 820.551 862.64 819.903 850.451C818.007 814.773 814.093 768.711 795.998 737.247C787.583 722.615 775.734 710.341 766.918 696.112C765.073 693.134 758.442 690.643 757.26 688.207C753.411 680.271 760.027 662.842 757.546 653.877C754.926 644.407 752.041 635.128 748.8 625.901C747.172 621.265 736.424 612.991 730.023 612.422C727.286 612.178 721.598 631.365 719.785 634.305C706.207 656.33 690.278 680.279 672.55 699.314C646.028 727.792 615.645 750.378 586.952 776.242C573.897 788.011 545.261 815.094 527.905 820.306C527.144 820.534 497.942 799.881 494.674 797.867C482.425 790.316 480.226 780.825 468.506 772.448C460.361 766.627 438.616 747.436 431.44 740.414C418.063 727.326 416.379 721.034 403.309 706.839C385.372 687.359 376.498 664.278 362.6 642.702C357.698 635.092 350.609 626.849 347.343 618.548" fill="#517968" fill-rule="nonzero" opacity="1" stroke="none"/>
<path d="M518.82 905.89C518.82 895.854 526.494 887.718 535.961 887.718C545.428 887.718 553.103 895.854 553.103 905.89C553.103 915.926 545.428 924.061 535.961 924.061C526.494 924.061 518.82 915.926 518.82 905.89Z" fill="#bda27c" fill-rule="nonzero" opacity="1" stroke="#000002" stroke-linecap="butt" stroke-linejoin="round" stroke-width="10"/>
<path d="M537.725 818.039C532.2 815.071 497.399 793.887 493.506 789.021C478.533 770.304 455.223 756.007 436.823 740.674C418.024 725.008 399.152 700.117 386.809 679.545C379.096 666.69 364.827 645.52 361.246 631.198C360.501 628.218 362.382 624.034 361.246 621.195C357.554 611.965 345.519 604.616 340.129 595.632C327.4 574.417 320.253 551.53 316.789 527.28C310.507 483.305 332.68 438.154 342.908 397.243C345.089 388.517 332.869 375.884 331.846 366.669C329.12 342.139 332.6 305.708 339.322 282.184C341.726 273.77 354.953 242.258 363.495 237.987C384.243 227.613 441.554 294.667 452.939 308.328C458.175 314.612 466.709 330.349 474.01 333.27C475.918 334.032 508.232 323.201 513.466 323.201C541.059 323.201 568.965 326.886 595.712 332.236C610.002 335.094 605.748 329.44 614.233 319.743C633.248 298.012 655.422 268.859 680.878 254.717C684.85 252.51 702.088 243.079 707.456 244.421C712.827 245.764 724.111 271.269 726.233 276.219C743.772 317.144 744.728 358.861 733.762 402.723C732.568 407.501 747.579 425.329 748.833 431.603C752.964 452.255 758.525 475.64 760.805 496.16C766.143 544.202 736.672 587.635 710.272 622.835C706.215 628.245 722.46 619.717 722.46 624.53C722.46 641.461 686.131 686.092 674.901 697.322C645.472 726.752 625.081 741.336 593.811 768.698C590.173 771.881 545.19 822.048 537.725 818.039Z" fill="#d88c53" fill-rule="nonzero" opacity="1" stroke="none"/>
</g>
<g id="Layer-1">
<path d="M240.818 891.232C240.183 891.641 242.444 864.436 243.177 859.804C246.668 837.732 251.645 816.594 257.177 794.872C264.695 765.354 274.05 736.225 289.586 709.957C295.163 700.528 307.101 692.388 310.846 682.264C312.131 678.788 309.219 669.986 310.055 665.446C313.174 648.503 323.88 621.309 339.003 611.551" fill="none" opacity="1" stroke="#000000" stroke-linecap="round" stroke-linejoin="round" stroke-width="10"/>
<path d="M364.62 623.72C365.193 626.05 354.796 617.991 353.282 616.659C347.063 611.187 341.657 604.331 336.751 597.74C320.878 576.417 314.243 549.999 313.637 523.35C313.007 495.609 312.667 483.777 320.655 456.894C324.291 444.659 338.377 416.365 341.014 404.699C343.16 395.204 331.735 376.352 330.683 365.813C327.786 336.797 331.688 305.298 339.984 277.379C342.426 269.161 350.962 245.68 358.975 240.621C382.205 225.955 429.873 283.013 440.341 296.123C447.44 305.013 468.208 322.095 470.849 332.821" fill="none" opacity="1" stroke="#000000" stroke-linecap="round" stroke-linejoin="round" stroke-width="10"/>
<path d="M473.887 332.093C501.573 321.194 533.047 325.865 561.893 328.427C564.957 328.7 599.206 335.358 600.158 334.744C606.475 330.673 623.292 306.923 628.591 301.339C647.56 281.346 653.544 274.551 676.493 259.314C683.489 254.669 698.68 241.234 708.102 242.071C711.167 242.343 725.404 271.611 727.142 276.027C733.951 293.324 739.398 319.539 740.385 338.045C741.67 362.118 737.174 380.597 735.033 404.693" fill="none" opacity="1" stroke="#000000" stroke-linecap="round" stroke-linejoin="round" stroke-width="10"/>
<path d="M735.018 408.062C738.1 406.809 743.348 419.278 744.502 421.684C752.496 438.348 757.095 457.535 759.51 475.795C766.451 528.269 750.125 589.479 709.063 624.622" fill="none" opacity="1" stroke="#000000" stroke-linecap="round" stroke-linejoin="round" stroke-width="10"/>
<path d="M730.26 609.838C750.213 609.530 766.996 669.252 759.298 685.262C759.145 685.580 761.467 686.342 763.204 687.524C767.374 690.364 771.330 694.457 774.368 698.500C783.313 710.409 792.509 725.089 797.449 739.177C815.014 789.276 824.885 841.181 825.704 894.201" fill="none" opacity="1" stroke="#000000" stroke-linecap="round" stroke-linejoin="round" stroke-width="10"/>
<path d="M505.682 991.260C499.150 948.476 496.724 901.374 511.576 859.713C527.223 815.823 594.708 773.061 629.340 742.795C657.965 717.779 700.726 673.540 718.177 639.080C721.695 632.133 723.919 622.252 728.424 616.123" fill="none" opacity="1" stroke="#000000" stroke-linecap="round" stroke-linejoin="round" stroke-width="10"/>
<path d="M581.939 990.315C567.494 950.605 567.578 887.399 596.337 854.414C614.138 833.997 639.479 818.805 659.047 799.764C695.087 764.695 730.365 726.191 760.069 685.783" fill="none" opacity="1" stroke="#000000" stroke-linecap="round" stroke-linejoin="round" stroke-width="10"/>
<path d="M354.959 622.869C352.474 627.838 374.655 662.000 378.018 666.764C407.003 707.827 434.734 745.174 474.977 775.948C488.626 786.385 501.979 797.291 516.094 807.064C519.970 809.747 536.500 821.944 534.153 819.010" fill="none" opacity="1" stroke="#000000" stroke-linecap="round" stroke-linejoin="round" stroke-width="10"/>
<path d="M310.507 671.765C307.717 677.347 331.175 708.490 334.678 713.160C364.983 753.568 405.272 787.700 442.750 821.233C455.867 832.968 470.547 843.372 484.145 854.571C488.482 858.142 493.516 861.997 497.480 865.962C498.566 867.047 504.714 872.173 501.648 870.129" fill="none" opacity="1" stroke="#000000" stroke-linecap="round" stroke-linejoin="round" stroke-width="10"/>
<path d="M692.509 524.953C692.092 524.557 695.980 524.017 696.774 523.806C699.439 523.098 702.073 522.341 704.713 521.528C713.359 518.864 721.893 516.199 730.738 514.191C754.715 508.749 780.433 508.170 804.913 507.538C812.489 507.343 820.368 507.696 827.896 508.574C830.156 508.838 832.479 509.232 834.735 509.582C835.110 509.641 838.608 509.872 837.566 510.250" fill="none" opacity="1" stroke="#000000" stroke-linecap="round" stroke-linejoin="round" stroke-width="10"/>
<path d="M692.978 560.337C692.132 559.534 696.298 560.067 697.266 560.078C701.186 560.122 705.038 559.995 708.970 560.221C717.657 560.719 726.091 562.254 734.678 563.556C758.489 567.165 782.755 570.971 805.843 578.011C813.054 580.209 819.600 583.371 826.634 585.916C828.430 586.566 837.014 589.351 834.869 589.406" fill="none" opacity="1" stroke="#000000" stroke-linecap="round" stroke-linejoin="round" stroke-width="10"/>
<path d="M238.493 507.548C238.116 507.172 250.201 505.802 251.875 505.762C259.922 505.569 267.990 505.390 276.037 505.745C301.021 506.845 326.500 511.413 350.546 518.127C355.253 519.441 376.572 526.174 376.254 526.280" fill="none" opacity="1" stroke="#000000" stroke-linecap="round" stroke-linejoin="round" stroke-width="10"/>
<path d="M245.070 594.598C244.489 594.308 251.219 591.272 252.174 590.803C259.555 587.178 251.461 590.925 258.805 587.955C266.613 584.798 274.116 581.260 282.131 578.582C305.128 570.897 330.030 565.816 354.252 564.671C360.523 564.375 366.805 564.177 373.083 564.066C374.369 564.043 383.485 564.034 381.137 564.297" fill="none" opacity="1" stroke="#000000" stroke-linecap="round" stroke-linejoin="round" stroke-width="10"/>
<path d="M520.702 520.533C520.796 517.377 529.544 516.268 531.901 515.791C537.752 514.606 566.034 511.758 566.837 521.703C568.931 547.623 536.575 548.855 522.125 535.485C518.518 532.148 514.746 518.661 523.595 518.927" fill="#000002" fill-rule="nonzero" opacity="1" stroke="none"/>
<path d="M542.014 539.138C541.409 541.698 542.715 544.676 542.368 547.282C540.449 561.698 531.554 572.301 517.976 577.094C514.160 578.441 506.086 581.474 502.273 578.291" fill="none" opacity="1" stroke="#000002" stroke-linecap="round" stroke-linejoin="round" stroke-width="10"/>
<path d="M544.423 543.036C543.387 542.792 543.427 544.110 543.454 544.910C543.697 551.993 543.936 558.566 547.479 564.962C554.146 576.999 566.225 578.188 576.525 571.824" fill="none" opacity="1" stroke="#000002" stroke-linecap="round" stroke-linejoin="round" stroke-width="10"/>
<path d="M613.247 486.456C613.247 476.120 618.643 467.741 625.299 467.741C631.955 467.741 637.351 476.120 637.351 486.456C637.351 496.792 631.955 505.171 625.299 505.171C618.643 505.171 637.351 496.792 613.247 486.456Z" fill="#000002" fill-rule="nonzero" opacity="1" stroke="none"/>
<path d="M436.933 494.596C436.933 483.939 442.789 475.299 450.012 475.299C457.235 475.299 463.091 483.939 463.091 494.596C463.091 505.254 457.235 513.894 450.012 513.894C442.789 513.894 436.933 505.254 436.933 494.596Z" fill="#000002" fill-rule="nonzero" opacity="1" stroke="none"/>
</g>
</svg>
