<?xml version="1.0" encoding="UTF-8" standalone="no"?>
<!DOCTYPE svg PUBLIC "-//W3C//DTD SVG 1.1//EN" "http://www.w3.org/Graphics/SVG/1.1/DTD/svg11.dtd">
<!-- Created with Vectornator (http://vectornator.io/) -->
<svg height="1024.0px" stroke-miterlimit="10" style="fill-rule:nonzero;clip-rule:evenodd;stroke-linecap:round;stroke-linejoin:round;" version="1.1" viewBox="0 0 1024 1024" width="1024.0px" xml:space="preserve" xmlns="http://www.w3.org/2000/svg" xmlns:xlink="http://www.w3.org/1999/xlink">
<defs/>
<clipPath id="ArtboardFrame">
<rect height="1024" width="1024" x="0" y="0"/>
</clipPath>
<g clip-path="url(#ArtboardFrame)" id="Layer-1">
<circle data-cardigan-refit="1" cx="512" cy="512" r="512" fill="#ccdbde" stroke="none"/><g transform="translate(512 625) scale(0.78) translate(-512 -512)">
<path d="M161.195 1082.73C156.348 1084.74 151.501 1086.75 146.655 1088.76" fill="#517968" fill-rule="nonzero" opacity="1" stroke="none"/>
<path d="M266.041 547.778C258.324 550.275 240.682 569.302 238.857 574.249C233.908 587.664 225.905 611.063 227.056 625.207C227.12 626 222.739 631.867 215.957 641.855C194.381 673.63 161.128 746.498 145.406 832.402C138.314 871.157 104.742 1005.81 126.278 1035.95C137.954 1052.29 343.361 1021.07 538.931 1021.92C712.681 1022.69 882.086 1036.11 898.665 1023.07C906.485 1016.92 898.147 878.127 890.42 841.425C860.846 700.966 811.683 638.298 810.154 635.334C805.172 625.678 805.096 587.69 800.901 576.464C798.793 570.822 777.554 548.234 769.269 547.541C765.727 547.244 717.825 630.11 694.878 653.273C660.549 687.925 538.504 794.885 516.04 801.226C515.055 801.504 370.082 691.335 345.97 656.061C327.247 628.669 280.857 542.985 266.041 547.778Z" fill="#517968" fill-rule="nonzero" opacity="1" stroke="none"/>
<path d="M507.457 909.455C507.457 897.243 517.391 887.343 529.645 887.343C541.899 887.343 551.832 897.243 551.832 909.455C551.832 921.666 541.899 931.566 529.645 931.566C517.391 931.566 507.457 921.666 507.457 909.455Z" fill="#dddddd" fill-rule="nonzero" opacity="1" stroke="#000002" stroke-linecap="butt" stroke-linejoin="round" stroke-width="10"/>
<path d="M520.365 797.739C513.213 794.127 433.795 746.256 389.761 703.6C254.213 572.294 294.855 560.578 291.936 558.217C236.835 513.642 238.772 473.463 234.392 443.939C221.725 358.536 274.448 317.673 260.474 268.093C230.078 160.247 283.791 97.1205 294.847 91.9237C321.703 79.3002 417.481 173.91 437.895 207.865C439.254 210.125 507.171 197.081 513.946 197.081C549.661 197.081 560.465 210.97 595.421 206.607C609.673 204.828 631.246 172.245 660.31 145.364C689.061 118.771 725.302 97.8565 740.059 99.7525C776.885 104.484 788.303 239.005 774.109 292.377C772.563 298.19 816.371 345.443 809.112 406.071C798.315 496.241 777.876 517.379 743.704 560.212C738.452 566.795 767.41 540.558 767.41 546.415C767.41 567.017 691.52 666.983 616.936 722.771C612.054 726.423 530.027 802.618 520.365 797.739Z" fill="#ca8858" fill-rule="nonzero" opacity="1" stroke="none"/>
<path d="M121.284 1023.19C123.185 1022.35 113.177 1026.33 121.851 949.353C128.013 894.665 148.177 795.393 157.233 769.549C189.203 678.315 221.853 644.845 226.7 632.526C228.364 628.297 224.594 617.586 225.676 612.061C229.714 591.445 243.571 558.355 263.145 546.481" fill="none" opacity="1" stroke="#000000" stroke-linecap="round" stroke-linejoin="round" stroke-width="10"/>
<path d="M296.303 561.288C297.046 564.123 283.587 554.317 281.628 552.697C273.578 546.038 266.581 537.695 260.231 529.676C239.686 503.73 231.097 471.584 230.313 439.157C229.497 405.402 229.057 391.004 239.397 358.292C244.102 343.405 262.336 308.976 265.748 294.781C268.526 283.228 244.84 273.177 253.572 185.666C257.769 143.604 278.625 101.284 288.997 95.1285C319.065 77.2829 351.731 121.477 380.182 144.962C411.495 170.811 430.384 194.267 433.802 207.319" fill="none" opacity="1" stroke="#000000" stroke-linecap="round" stroke-linejoin="round" stroke-width="10"/>
<path d="M437.735 206.433C473.57 193.171 514.31 198.854 551.647 201.973C555.613 202.304 599.943 210.405 601.177 209.658C609.353 204.705 636.244 170.407 656.303 150.687C680.95 126.455 728.7 95.8742 740.895 96.8927C744.862 97.224 770.821 132.558 777.275 193.248C780.378 222.424 778.525 265.453 775.754 294.774" fill="none" opacity="1" stroke="#000000" stroke-linecap="round" stroke-linejoin="round" stroke-width="10"/>
<path d="M775.734 298.873C779.724 297.348 786.517 312.521 788.01 315.448C798.358 335.726 804.31 359.072 807.436 381.291C816.421 445.143 795.288 519.623 742.139 562.387" fill="none" opacity="1" stroke="#000000" stroke-linecap="round" stroke-linejoin="round" stroke-width="10"/>
<path d="M769.576 544.397C795.402 544.022 817.126 616.693 807.162 636.174C806.964 636.561 805.37 634.498 807.618 635.937C813.016 639.392 860.245 719.26 872.825 771.681C901.595 891.562 907.349 948.28 900.467 1030.82" fill="none" opacity="1" stroke="#000000" stroke-linecap="round" stroke-linejoin="round" stroke-width="10"/>
<path d="M493.474 1081.88C485.02 1029.82 467.295 899.142 486.519 848.449C506.771 795.043 594.122 743.01 638.948 706.182C676 675.741 731.348 621.911 753.936 579.979C758.489 571.525 761.368 559.503 767.2 552.044" fill="none" opacity="1" stroke="#000000" stroke-linecap="round" stroke-linejoin="round" stroke-width="10"/>
<path d="M596.507 1070.97C577.81 1022.65 559.006 882.138 596.23 842C619.271 817.157 652.072 798.671 677.4 775.501C724.049 732.83 769.712 685.977 808.16 636.808" fill="none" opacity="1" stroke="#000000" stroke-linecap="round" stroke-linejoin="round" stroke-width="10"/>
<path d="M283.798 560.253C280.582 566.3 309.292 607.869 313.645 613.666C351.163 663.632 387.057 709.076 439.146 746.522C456.812 759.222 474.096 772.493 492.367 784.384C497.384 787.649 518.78 802.491 515.741 798.92" fill="none" opacity="1" stroke="#000000" stroke-linecap="round" stroke-linejoin="round" stroke-width="10"/>
<path d="M226.262 619.751C222.65 626.542 253.013 664.439 257.547 670.121C296.774 719.289 463.142 851.227 468.274 856.052C469.679 857.373 482.523 866.871 478.554 864.383" fill="none" opacity="1" stroke="#000000" stroke-linecap="round" stroke-linejoin="round" stroke-width="10"/>
<path d="M720.712 441.107C720.173 440.626 765.986 419.85 808.331 416.831C848.837 413.943 909.818 422.757 908.469 423.217" fill="none" opacity="1" stroke="#000000" stroke-linecap="round" stroke-linejoin="round" stroke-width="10"/>
<path d="M721.319 484.163C720.225 483.186 775.695 481.529 810.296 487.864C840.919 493.471 907.754 519.468 904.979 519.535" fill="none" opacity="1" stroke="#000000" stroke-linecap="round" stroke-linejoin="round" stroke-width="10"/>
<path d="M133.048 419.93C132.56 419.471 193.102 415.671 225.189 418.099C286.095 422.71 311.773 442.594 311.362 442.723" fill="none" opacity="1" stroke="#000000" stroke-linecap="round" stroke-linejoin="round" stroke-width="10"/>
<path d="M141.562 525.853C140.809 525.5 177.432 505.453 217.651 495.116C264.596 483.05 320.721 488.662 317.683 488.981" fill="none" opacity="1" stroke="#000000" stroke-linecap="round" stroke-linejoin="round" stroke-width="10"/>
<path d="M498.33 435.729C498.453 431.889 509.776 430.54 512.826 429.959C520.4 428.517 557.007 425.052 558.047 437.153C560.757 468.692 518.877 470.192 500.173 453.924C495.504 449.863 490.621 433.451 502.075 433.775" fill="#000002" fill-rule="nonzero" opacity="1" stroke="none"/>
<path d="M525.916 458.368C525.133 461.484 526.824 465.107 526.375 468.278C523.891 485.819 506.566 523.42 474.476 506.01" fill="none" opacity="1" stroke="#000002" stroke-linecap="round" stroke-linejoin="round" stroke-width="10"/>
<path d="M529.034 463.112C527.694 462.814 527.745 464.418 527.78 465.392C528.095 474.011 527.423 485.932 532.009 493.715C540.638 508.361 557.254 505.885 570.586 498.141" fill="none" opacity="1" stroke="#000002" stroke-linecap="round" stroke-linejoin="round" stroke-width="10"/>
<path d="M618.118 394.264C618.118 381.687 625.102 371.491 633.718 371.491C642.333 371.491 649.318 381.687 649.318 394.264C649.318 406.841 642.333 417.036 633.718 417.036C625.102 417.036 618.118 406.841 618.118 394.264Z" fill="#000002" fill-rule="nonzero" opacity="1" stroke="none"/>
<path d="M389.903 404.169C389.903 391.201 397.482 380.688 406.832 380.688C416.181 380.688 423.76 391.201 423.76 404.169C423.76 417.138 416.181 427.651 406.832 427.651C397.482 427.651 389.903 417.138 389.903 404.169Z" fill="#000002" fill-rule="nonzero" opacity="1" stroke="none"/>
<path d="M653.787 216.837C653.787 216.837 668.224 193.226 686.517 175.646C704.809 158.065 726.957 146.515 726.957 146.515C726.957 146.515 737.698 171.9 742.203 200.298C746.386 226.666 744.384 256.206 743.726 255.989C743.726 255.989 652.805 217.78 653.787 216.837Z" fill="#e0c9b7" fill-rule="nonzero" opacity="1" stroke="#000000" stroke-linecap="butt" stroke-linejoin="round" stroke-width="10"/>
<path d="M295.96 245.156C295.96 245.156 289.922 218.148 290.847 192.794C291.772 167.44 299.66 143.739 299.66 143.739C299.66 143.739 325.03 154.518 348.011 171.797C369.35 187.841 388.45 210.464 387.826 210.766C387.826 210.766 295.911 246.516 295.96 245.156Z" fill="#e0c9b7" fill-rule="nonzero" opacity="1" stroke="#000000" stroke-linecap="butt" stroke-linejoin="round" stroke-width="10"/>
</g></g>
</svg>
