<?xml version="1.0" encoding="UTF-8" standalone="no"?>
<!DOCTYPE svg PUBLIC "-//W3C//DTD SVG 1.1//EN" "http://www.w3.org/Graphics/SVG/1.1/DTD/svg11.dtd">
<!-- Created with Vectornator (http://vectornator.io/) -->
<svg height="1024.0px" stroke-miterlimit="10" style="fill-rule:nonzero;clip-rule:evenodd;stroke-linecap:round;stroke-linejoin:round;" version="1.1" viewBox="0 0 1024 1024" width="1024.0px" xml:space="preserve" xmlns="http://www.w3.org/2000/svg" xmlns:xlink="http://www.w3.org/1999/xlink">
<defs/>
<clipPath id="ArtboardFrame">
<rect height="1024" width="1024" x="0" y="0"/>
</clipPath>
<g clip-path="url(#ArtboardFrame)" id="Layer-2">
<path d="M-18.9389-37.7516L1062.06-37.7516L1062.06 1043.25L-18.9389 1043.25L-18.9389-37.7516Z" fill="#bcd9de" fill-rule="nonzero" opacity="1" stroke="none"/>
<g transform="translate(0, 60)">
<path d="M158.195 1049.73C153.348 1051.74 148.501 1053.75 143.655 1055.76" fill="#517968" fill-rule="nonzero" opacity="1" stroke="none"/>
<path d="M263.041 514.778C259.91 507.296 237.682 536.302 235.857 541.249C230.908 554.664 222.905 578.063 224.056 592.207C224.326 595.524 215.985 601.547 215.125 603.879C213.932 607.114 220.007 615.346 217.333 617.869C207.66 626.996 191.083 640.818 185.222 652.296C160.769 700.18 152.381 746.619 141.203 798.6C138.132 812.882 128.305 844.302 135.609 858.458C152.998 892.161 233.282 927.464 268.458 943.228C310.147 961.91 366.224 977.242 412.992 984.589C463.236 992.482 490.647 994.57 539.877 992.924C570.009 991.917 636.74 982.225 666.519 973.382C696.132 964.587 728.753 955.693 756.927 944.164C798.863 927.004 825.82 914.478 861.059 886.767C868.88 880.617 886.388 870.834 889.327 861.443C893.951 846.674 883.445 819.01 882.607 804.179C880.153 760.765 875.086 704.715 851.665 666.43C840.772 648.625 834.684 634.896 823.273 617.583C820.885 613.959 808.683 605.298 807.154 602.334C802.172 592.678 805.105 575.893 801.894 564.985C798.502 553.461 794.769 542.17 790.574 530.943C788.466 525.301 774.554 515.234 766.269 514.541C762.727 514.244 755.364 537.591 753.017 541.169C735.443 567.969 714.825 597.11 691.878 620.273C657.549 654.925 618.222 682.408 581.083 713.88C564.184 728.201 527.119 761.156 504.654 767.497C503.67 767.775 475.711 743.009 471.481 740.557C455.627 731.369 442.941 719.456 427.77 709.264C417.228 702.18 389.081 678.829 379.792 670.284C362.479 654.358 360.299 646.702 343.381 629.429C320.165 605.725 308.677 577.641 290.689 551.387C284.344 542.126 283.551 528.452 279.323 518.351" fill="#517968" fill-rule="nonzero" opacity="1" stroke="none"/>
<path d="M492.895 871.637C492.895 859.425 502.828 849.525 515.082 849.525C527.336 849.525 537.269 859.425 537.269 871.637C537.269 883.849 527.336 893.748 515.082 893.748C502.828 893.748 492.895 883.849 492.895 871.637Z" fill="#dedede" fill-rule="nonzero" opacity="1" stroke="#000002" stroke-linecap="butt" stroke-linejoin="round" stroke-width="10"/>
<path d="M517.365 764.739C510.213 761.127 465.168 735.351 460.129 729.429C440.748 706.655 410.577 689.257 386.761 670.6C362.428 651.537 338.001 621.25 322.024 596.218C312.04 580.575 293.571 554.815 288.936 537.388C287.972 533.762 290.406 528.671 288.936 525.217C284.157 513.985 258.271 500.682 251.294 489.75C234.818 463.935 235.877 440.447 231.392 410.939C223.261 357.43 251.961 302.49 265.199 252.708C268.023 242.09 252.206 226.718 250.881 215.506C247.353 185.657 251.858 141.327 260.558 112.702C263.67 102.464 280.791 64.1205 291.847 58.9237C318.703 46.3002 392.885 127.892 407.621 144.516C414.398 152.162 425.445 171.311 434.895 174.865C437.363 175.793 479.19 162.613 485.965 162.613C521.68 162.613 557.801 167.097 592.421 173.607C610.918 177.084 605.412 170.205 616.394 158.405C641.006 131.963 669.708 96.4883 702.658 79.28C707.798 76.5953 730.111 65.1195 737.059 66.7525C744.012 68.3864 758.617 99.4211 761.363 105.445C784.065 155.243 785.303 206.005 771.109 259.377C769.563 265.19 788.993 286.884 790.617 294.518C795.963 319.648 803.161 348.103 806.112 373.071C813.021 431.53 774.876 484.379 740.704 527.212C735.452 533.795 764.41 507.558 764.41 513.415C764.41 534.017 709.457 604.184 694.921 617.849C656.829 653.659 630.436 671.406 589.961 704.7C585.252 708.573 527.027 769.618 517.365 764.739Z" fill="#d88c53" fill-rule="nonzero" opacity="1" stroke="none"/>
<path d="M133.773 856.543C136.259 863.874 146.186 871.679 148.681 875.071C154.767 883.346 189.393 906.814 198.102 911.987C241.384 937.701 243.133 936.726 281.793 951.379C477.136 1025.42 731.505 1004.66 889.502 858.981" fill="none" opacity="1" stroke="#000002" stroke-linecap="round" stroke-linejoin="round" stroke-width="10"/>
</g>
</g>
<g id="Layer-1" transform="translate(0, 60)">
<path d="M133.058 853.801C132.237 854.299 135.163 821.196 136.112 815.559C140.63 788.702 147.072 762.981 154.233 736.549C163.964 700.631 176.072 665.186 196.182 633.223C203.4 621.749 218.853 611.845 223.7 599.526C225.364 595.297 221.594 584.586 222.676 579.061C226.714 558.445 240.571 525.355 260.145 513.481" fill="none" opacity="1" stroke="#000000" stroke-linecap="round" stroke-linejoin="round" stroke-width="10"/>
<path d="M293.303 528.288C294.046 531.123 280.587 521.317 278.628 519.697C270.578 513.038 263.581 504.695 257.231 496.676C236.686 470.73 228.097 438.584 227.313 406.157C226.497 372.402 226.057 358.004 236.397 325.292C241.102 310.405 259.336 275.976 262.748 261.781C265.526 250.228 250.738 227.288 249.376 214.464C245.627 179.157 250.677 140.829 261.415 106.857C264.576 96.8559 275.625 68.2839 285.997 62.1285C316.065 44.2829 377.765 113.711 391.315 129.664C400.502 140.482 427.384 161.267 430.802 174.319" fill="none" opacity="1" stroke="#000000" stroke-linecap="round" stroke-linejoin="round" stroke-width="10"/>
<path d="M434.735 173.433C470.57 160.171 511.31 165.854 548.647 168.973C552.613 169.304 596.943 177.405 598.177 176.658C606.353 171.705 628.12 142.806 634.979 136.011C659.532 111.683 667.277 103.415 696.981 84.8746C706.037 79.2223 725.7 62.8742 737.895 63.8927C741.862 64.224 760.29 99.8379 762.54 105.211C771.353 126.258 778.404 158.156 779.682 180.675C781.344 209.968 775.525 232.453 772.754 261.774" fill="none" opacity="1" stroke="#000000" stroke-linecap="round" stroke-linejoin="round" stroke-width="10"/>
<path d="M772.734 265.873C776.724 264.348 783.517 279.521 785.01 282.448C795.358 302.726 801.31 326.072 804.436 348.291C813.421 412.143 792.288 486.623 739.139 529.387" fill="none" opacity="1" stroke="#000000" stroke-linecap="round" stroke-linejoin="round" stroke-width="10"/>
<path d="M766.576 511.397C792.402 511.022 814.126 583.693 804.162 603.174C803.964 603.561 806.969 604.488 809.218 605.927C814.615 609.382 819.736 614.362 823.667 619.283C835.246 633.773 847.149 651.636 853.543 668.778C876.278 729.74 889.055 792.898 890.116 857.414" fill="none" opacity="1" stroke="#000000" stroke-linecap="round" stroke-linejoin="round" stroke-width="10"/>
<path d="M481.063 989.916C472.609 937.856 464.295 866.142 483.519 815.449C503.771 762.043 591.122 710.01 635.948 673.182C673 642.741 728.348 588.911 750.936 546.979C755.489 538.525 758.368 526.503 764.2 519.044" fill="none" opacity="1" stroke="#000000" stroke-linecap="round" stroke-linejoin="round" stroke-width="10"/>
<path d="M580.384 986.049C561.687 937.73 556.006 849.138 593.23 809C616.271 784.157 649.072 765.671 674.4 742.501C721.049 699.83 766.712 652.977 805.16 603.808" fill="none" opacity="1" stroke="#000000" stroke-linecap="round" stroke-linejoin="round" stroke-width="10"/>
<path d="M280.798 527.253C277.582 533.3 306.292 574.869 310.645 580.666C348.163 630.632 384.057 676.076 436.146 713.522C453.812 726.222 471.096 739.493 489.367 751.384C494.384 754.649 515.78 769.491 512.741 765.92" fill="none" opacity="1" stroke="#000000" stroke-linecap="round" stroke-linejoin="round" stroke-width="10"/>
<path d="M223.262 586.751C219.65 593.542 250.013 631.439 254.547 637.121C293.774 686.289 345.923 727.822 394.432 768.625C411.41 782.905 430.411 795.565 448.013 809.191C453.626 813.537 460.142 818.227 465.274 823.052C466.679 824.373 479.523 833.871 475.554 831.383" fill="none" opacity="1" stroke="#000000" stroke-linecap="round" stroke-linejoin="round" stroke-width="10"/>
<path d="M717.712 408.107C717.173 407.626 722.205 406.968 723.233 406.712C726.682 405.851 730.092 404.929 733.509 403.94C744.7 400.699 755.746 397.456 767.194 395.013C798.229 388.391 831.519 387.686 863.205 386.917C873.01 386.679 883.209 387.109 892.953 388.178C895.878 388.498 898.884 388.978 901.804 389.405C902.29 389.475 906.818 389.757 905.469 390.217" fill="none" opacity="1" stroke="#000000" stroke-linecap="round" stroke-linejoin="round" stroke-width="10"/>
<path d="M718.319 451.163C717.225 450.186 722.616 450.835 723.87 450.849C728.944 450.902 733.929 450.747 739.019 451.022C750.263 451.628 761.18 453.496 772.294 455.08C803.115 459.472 834.524 464.103 864.409 472.669C873.742 475.344 882.215 479.191 891.319 482.288C893.644 483.079 904.754 486.468 901.979 486.535" fill="none" opacity="1" stroke="#000000" stroke-linecap="round" stroke-linejoin="round" stroke-width="10"/>
<path d="M130.048 386.93C129.56 386.471 145.204 384.805 147.37 384.756C157.785 384.521 168.229 384.303 178.645 384.735C210.983 386.074 243.962 391.632 275.086 399.801C281.18 401.401 308.773 409.594 308.362 409.723" fill="none" opacity="1" stroke="#000000" stroke-linecap="round" stroke-linejoin="round" stroke-width="10"/>
<path d="M138.562 492.853C137.809 492.5 146.521 488.805 147.757 488.235C157.31 483.824 146.834 488.383 156.339 484.77C166.447 480.928 176.158 476.622 186.532 473.364C216.299 464.013 248.531 457.83 279.883 456.438C288 456.077 296.132 455.835 304.258 455.7C305.922 455.673 317.721 455.662 314.683 455.981" fill="none" opacity="1" stroke="#000000" stroke-linecap="round" stroke-linejoin="round" stroke-width="10"/>
<path d="M495.33 402.729C495.453 398.889 506.776 397.54 509.826 396.959C517.4 395.517 554.007 392.052 555.047 404.153C557.757 435.692 515.877 437.192 497.173 420.924C492.504 416.863 487.621 400.451 499.075 400.775" fill="#000002" fill-rule="nonzero" opacity="1" stroke="none"/>
<path d="M522.916 425.368C522.133 428.484 523.824 432.107 523.375 435.278C520.891 452.819 509.377 465.721 491.803 471.553C486.863 473.193 476.412 476.883 471.476 473.01" fill="none" opacity="1" stroke="#000002" stroke-linecap="round" stroke-linejoin="round" stroke-width="10"/>
<path d="M526.034 430.112C524.694 429.814 524.745 431.418 524.78 432.392C525.095 441.011 525.404 449.008 529.99 456.792C538.619 471.438 554.254 472.885 567.586 465.141" fill="none" opacity="1" stroke="#000002" stroke-linecap="round" stroke-linejoin="round" stroke-width="10"/>
<path d="M615.118 361.264C615.118 348.687 622.102 338.491 630.718 338.491C639.333 338.491 646.318 348.687 646.318 361.264C646.318 373.841 639.333 384.036 630.718 384.036C622.102 384.036 615.118 373.841 615.118 361.264Z" fill="#000002" fill-rule="nonzero" opacity="1" stroke="none"/>
<path d="M386.903 371.169C386.903 358.201 394.482 347.688 403.832 347.688C413.181 347.688 420.76 358.201 420.76 371.169C420.76 384.138 413.181 394.651 403.832 394.651C394.482 394.651 386.903 384.138 386.903 371.169Z" fill="#000002" fill-rule="nonzero" opacity="1" stroke="none"/>
</g>
</svg>
