<svg xmlns="http://www.w3.org/2000/svg" viewBox="0 0 200 200" role="img" aria-label="Corazón">
  <circle cx="100" cy="100" r="100" fill="#F5E9D8"/>
  <path d="M100 170 C80 156 44 128 30 98 C18 70 34 42 62 42 C80 42 94 54 100 66 C106 54 120 42 138 42 C166 42 182 70 170 98 C156 128 120 156 100 170 Z" fill="#E8A2B3" stroke="#3D3228" stroke-width="3" stroke-linejoin="round"/>
  <g fill="#D27F92" opacity="0.7">
    <ellipse cx="72" cy="114" rx="10" ry="5.5"/>
    <ellipse cx="128" cy="114" rx="10" ry="5.5"/>
  </g>
  <g fill="#3D3228">
    <circle cx="82" cy="100" r="4"/>
    <circle cx="118" cy="100" r="4"/>
  </g>
  <g fill="#FFFFFF">
    <circle cx="83.8" cy="98.2" r="1.5"/>
    <circle cx="119.8" cy="98.2" r="1.5"/>
  </g>
  <path d="M92 116 Q100 124 108 116" fill="none" stroke="#3D3228" stroke-width="2.6" stroke-linecap="round"/>
</svg>
