<svg xmlns="http://www.w3.org/2000/svg" viewBox="0 0 200 200" role="img" aria-label="Corazón">
  <circle cx="100" cy="100" r="100" fill="#F2E8D9"/>
  <path d="M100 134 L60 94 Q44 76 58 58 Q74 40 92 54 L100 64 L108 54 Q126 40 142 58 Q156 76 140 94 Z" fill="#CFC2DE" stroke="#2C2C2C" stroke-width="3" stroke-linejoin="round"/>
  <path d="M22 200 L22 140 C22 114 36 106 56 112 C80 118 92 132 100 152 C108 132 120 118 144 112 C164 106 178 114 178 140 L178 200 Z" fill="#5E8790" stroke="#2C2C2C" stroke-width="3" stroke-linejoin="round"/>
  <path d="M100 152 L100 200" stroke="#2C2C2C" stroke-width="2.2"/>
  <circle cx="100" cy="174" r="3.6" fill="#F2E8D9" stroke="#2C2C2C" stroke-width="1.6"/>
</svg>
