<svg xmlns="http://www.w3.org/2000/svg" viewBox="0 0 200 200" role="img" aria-label="Casa">
  <circle cx="100" cy="100" r="100" fill="#E3ECEF"/>
  <g stroke="#2E2E2E" stroke-width="2.4" stroke-linejoin="round">
    <path d="M48 92 L100 44 L152 92 L152 140 L48 140 Z" fill="#FAF6EE"/>
    <path d="M128 50 L128 68 L140 68 L140 62" fill="#FAF6EE"/>
    <path d="M84 100 L116 100 L116 132 L84 132 Z" fill="#2E2E2E"/>
    <path d="M100 100 L100 132 M84 116 L116 116" stroke="#E3ECEF" stroke-width="2.4"/>
  </g>
  <path d="M55 140 Q55 124 100 124 Q145 124 145 140 L145 186 L55 186 Z" fill="#5B9BAF" stroke="#2E2E2E" stroke-width="2.4" stroke-linejoin="round"/>
  <path d="M100 124 L86 144 L100 164 L114 144 Z" fill="#E3ECEF" stroke="#2E2E2E" stroke-width="2.4" stroke-linejoin="round"/>
  <circle cx="100" cy="154" r="3" fill="#FFFFFF" stroke="#2E2E2E" stroke-width="1.4"/>
</svg>
