<svg xmlns="http://www.w3.org/2000/svg" viewBox="0 0 200 200" role="img" aria-label="Casa">
  <circle cx="100" cy="100" r="100" fill="#D5DEDE"/>
  <g stroke="#3D3228" stroke-width="3" stroke-linejoin="round" stroke-linecap="round">
    <path d="M28 110 Q24 96 40 88 L92 50 Q100 44 108 50 L160 88 Q176 96 172 110 Q178 120 172 128 L172 156 Q172 170 158 170 L42 170 Q28 170 28 156 L28 128 Q22 120 28 110 Z" fill="#F6EBD8"/>
    <path d="M128 60 Q128 54 134 54 L146 54 Q152 54 152 60 L152 78 Q152 84 146 84 L134 84 Q128 84 128 78 Z" fill="#D4A37E"/>
    <path d="M78 124 Q78 118 84 118 L108 118 Q114 118 114 124 L114 170 L78 170 Z" fill="#8FB08A"/>
    <circle cx="107" cy="146" r="2.8" fill="#3D3228" stroke="none"/>
  </g>
  <g stroke="#3D3228" stroke-width="2.6" stroke-linejoin="round">
    <path d="M128 114 Q126 108 132 108 L154 108 Q160 108 158 114 L158 138 Q158 142 152 142 L134 142 Q128 142 128 138 Z" fill="#F2B5AC"/>
    <path d="M143 108 L143 142 M128 125 L158 125" fill="none" stroke-width="2.2"/>
  </g>
</svg>
