<svg xmlns="http://www.w3.org/2000/svg" viewBox="0 0 200 200" role="img" aria-label="Luna">
  <circle cx="100" cy="100" r="100" fill="#445E68"/>
  <path d="M138 30 Q130 22 112 22 Q74 26 62 62 Q54 90 62 122 Q72 156 110 172 Q126 176 136 170 Q102 150 94 116 Q86 78 102 54 Q114 38 138 30 Z" fill="#F6EBD8" stroke="#3D3228" stroke-width="3" stroke-linejoin="round"/>
  <g fill="#F2B5AC" opacity="0.85">
    <ellipse cx="98" cy="122" rx="7.5" ry="4.5"/>
  </g>
  <g fill="none" stroke="#3D3228" stroke-width="3" stroke-linecap="round">
    <path d="M84 102 Q88 110 92 102"/>
    <path d="M106 102 Q110 110 114 102"/>
    <path d="M92 128 Q100 136 108 128"/>
  </g>
  <g fill="#F6EBD8" stroke="#3D3228" stroke-width="2" stroke-linejoin="round">
    <path d="M152 52 L155 62 L165 66 L155 70 L152 80 L149 70 L139 66 L149 62 Z"/>
    <path d="M164 112 L166 120 L174 122 L166 124 L164 132 L162 124 L154 122 L162 120 Z"/>
    <path d="M144 154 L146 160 L152 162 L146 164 L144 170 L142 164 L136 162 L142 160 Z"/>
  </g>
</svg>
