<svg xmlns="http://www.w3.org/2000/svg" viewBox="0 0 200 200" role="img" aria-label="Luna">
  <circle cx="100" cy="100" r="100" fill="#4E7079"/>
  <path d="M138 30 Q78 36 72 100 Q68 164 134 172 Q90 148 92 100 Q94 52 138 30 Z" fill="#F2E8D9" stroke="#2E2E2E" stroke-width="3.2" stroke-linejoin="round"/>
  <g fill="#F2E8D9" stroke="#2E2E2E" stroke-width="2" stroke-linejoin="round">
    <path d="M154 60 L158 70 L168 74 L158 78 L154 88 L150 78 L140 74 L150 70 Z"/>
    <path d="M164 116 L166 124 L174 126 L166 128 L164 136 L162 128 L154 126 L162 124 Z"/>
    <path d="M140 154 L142 160 L148 162 L142 164 L140 170 L138 164 L132 162 L138 160 Z"/>
  </g>
</svg>
