<svg xmlns="http://www.w3.org/2000/svg" viewBox="0 0 200 200" role="img" aria-label="Montaña">
  <circle cx="100" cy="100" r="100" fill="#DED4E4"/>
  <g stroke="#2C2C2C" stroke-width="3" stroke-linejoin="round" stroke-linecap="round">
    <path d="M30 140 L84 44 L138 140 Z" fill="#7E9CA9"/>
    <path d="M68 78 L84 44 L100 78 L92 90 L84 80 L76 90 Z" fill="#F2E8D9"/>
  </g>
  <g fill="#F2E8D9" stroke="#2C2C2C" stroke-width="2.6" stroke-linejoin="round">
    <path d="M132 56 Q122 54 120 64 Q112 64 112 72 Q112 80 122 80 L156 80 Q166 80 166 72 Q166 64 158 64 Q158 54 148 54 Q144 50 139 52 Q135 50 132 56 Z"/>
  </g>
  <path d="M22 200 L22 140 C22 114 36 106 56 112 C80 118 92 132 100 152 C108 132 120 118 144 112 C164 106 178 114 178 140 L178 200 Z" fill="#5E8790" stroke="#2C2C2C" stroke-width="3" stroke-linejoin="round"/>
  <path d="M100 152 L100 200" stroke="#2C2C2C" stroke-width="2.2"/>
  <circle cx="100" cy="174" r="3.6" fill="#F2E8D9" stroke="#2C2C2C" stroke-width="1.6"/>
</svg>
