<svg xmlns="http://www.w3.org/2000/svg" viewBox="0 0 200 200" role="img" aria-label="Montaña">
  <circle cx="100" cy="100" r="100" fill="#D2DDDE"/>
  <g stroke="#3D3228" stroke-width="3" stroke-linejoin="round" stroke-linecap="round">
    <path d="M20 166 Q20 158 28 156 Q44 154 76 96 Q88 72 100 96 Q132 154 148 156 Q160 158 160 166 Q160 172 152 172 L28 172 Q20 172 20 166 Z" fill="#9CB5BF"/>
    <path d="M78 168 Q78 160 86 158 Q108 154 130 104 Q140 82 150 104 Q166 150 180 156 Q180 168 168 170 L86 172 Q78 172 78 168 Z" fill="#7A98A3"/>
    <path d="M86 124 Q92 96 100 96 Q108 96 114 124 Q108 118 102 124 Q98 120 94 126 Q90 120 86 124 Z" fill="#F6EBD8"/>
    <path d="M134 132 Q140 104 150 104 Q158 104 164 132 Q158 126 152 132 Q148 128 144 134 Q140 128 134 132 Z" fill="#F6EBD8"/>
  </g>
  <g stroke="#3D3228" stroke-width="2.6" stroke-linejoin="round" stroke-linecap="round" fill="#F6EBD8">
    <path d="M38 66 Q32 66 32 58 Q32 50 42 50 Q46 42 56 44 Q62 40 68 46 Q74 50 72 58 Q78 62 74 70 Q70 74 60 72 Q54 76 48 72 Q42 74 38 66 Z"/>
  </g>
</svg>
