<svg xmlns="http://www.w3.org/2000/svg" viewBox="0 0 200 200" role="img" aria-label="Montaña">
  <circle cx="100" cy="100" r="100" fill="#D2DDDE"/>
  <g stroke="#3D3228" stroke-width="3" stroke-linejoin="round" stroke-linecap="round">
    <path d="M14 170 Q14 160 24 158 Q38 156 52 140 Q64 126 70 104 Q76 82 86 82 Q96 82 102 104 Q110 126 120 140 Q132 156 146 158 Q158 160 158 170 Q158 174 152 174 L20 174 Q14 174 14 170 Z" fill="#A7BEC6"/>
    <path d="M68 174 Q68 164 78 162 Q94 160 110 144 Q124 130 132 108 Q140 84 152 84 Q164 84 172 108 Q180 130 188 150 Q188 174 180 174 L78 174 Q68 174 68 174 Z" fill="#839BA4"/>
    <path d="M74 124 Q82 98 86 98 Q90 98 98 124 Q92 120 88 126 Q84 120 80 126 Q76 120 74 124 Z" fill="#F6EBD8"/>
    <path d="M138 134 Q146 108 152 108 Q158 108 166 134 Q160 130 156 136 Q152 130 148 136 Q144 130 138 134 Z" fill="#F6EBD8"/>
  </g>
  <g stroke="#3D3228" stroke-width="2.6" stroke-linejoin="round" stroke-linecap="round" fill="#F6EBD8">
    <path d="M38 60 Q28 60 28 52 Q28 44 40 44 Q46 36 56 38 Q64 36 70 44 Q80 44 80 54 Q86 58 82 66 Q78 72 68 70 Q60 74 52 70 Q44 72 38 60 Z"/>
  </g>
</svg>
