<svg version="1.1" xmlns="http://www.w3.org/2000/svg" xmlns:xlink="http://www.w3.org/1999/xlink" viewBox="0 0 288 288" role="img" aria-label="Cardigan">
<path fill="#000000" opacity="1.000000" stroke="none" d="M140.428467,289.000000 C141.213394,285.252228 140.493408,281.392975 140.542679,277.597717 C140.743744,262.107941 140.637009,246.613388 140.944519,231.126587 C141.002655,228.199219 139.567245,226.908630 137.672607,225.527252 C126.599373,217.453812 114.304886,211.423935 102.483414,204.611145 C89.932655,197.378082 77.131767,190.578278 64.600220,183.313095 C60.639572,181.016907 58.668507,181.500107 56.546505,185.664185 C50.754097,197.030762 46.796219,208.959717 44.306007,221.423111 C43.965572,223.126968 44.308559,225.646545 41.532486,225.136703 C38.920311,224.656967 39.155926,222.458572 39.521393,220.330521 C41.708946,207.592896 45.695919,195.430511 51.736351,184.034775 C53.943489,179.870834 54.764790,175.241989 56.637882,171.206955 C60.373013,163.160736 61.587898,154.511703 64.477272,146.357407 C68.539627,134.892776 77.040726,127.621719 89.265854,125.659981 C93.782936,124.935143 95.949837,123.167633 97.192574,118.606880 C103.789070,94.398308 126.335625,80.276878 150.044647,81.119415 C174.050781,81.972519 194.689499,100.369316 199.238861,124.174637 C199.832031,127.278435 200.970901,128.590057 204.332809,128.904358 C221.532059,130.512360 233.459747,142.659866 235.235336,160.077164 C235.414368,161.833527 235.939056,163.217194 237.114136,164.530228 C239.996155,167.750565 241.538971,171.614182 241.517517,175.915588 C241.504684,178.486710 242.861343,180.322113 244.034927,182.296631 C251.008698,194.029694 255.249374,206.743958 257.766388,220.096100 C258.200104,222.396896 258.370636,224.975800 255.643051,225.332932 C252.901031,225.691940 253.141937,222.721603 252.813889,220.938416 C250.289093,207.214111 245.371643,194.448288 237.841721,182.044418 C213.267700,196.144867 188.491425,209.175751 165.174377,225.936523 C164.206879,221.417252 167.108582,220.276901 168.936325,218.794052 C178.921387,210.693146 189.762146,203.848328 200.927673,197.505692 C211.496109,191.502243 222.096725,185.554596 232.623489,179.478989 C236.336960,177.335739 236.981903,173.384613 234.525101,169.852158 C232.743713,167.290817 230.938812,169.109360 229.316223,169.905457 C215.558701,176.655396 202.141312,184.045822 188.803421,191.583908 C179.520325,196.830399 170.483292,202.449661 161.784561,208.634079 C152.024475,215.573044 145.679901,224.230957 145.522873,236.798676 C145.308640,253.944275 144.977478,271.084259 145.857788,288.611969 C144.285645,289.000000 142.571289,289.000000 140.428467,289.000000 M78.407349,135.845398 C71.420670,141.323318 68.140068,148.674927 67.262985,157.360748 C66.852959,161.421204 68.430084,163.655396 72.091461,165.487411 C98.300217,178.601242 124.624886,191.532242 148.913055,208.104309 C151.309891,209.739685 152.902084,209.349503 155.023438,207.574448 C158.463272,204.696198 162.200867,202.162262 165.894501,199.600815 C184.571365,186.648849 204.954300,176.718842 225.149887,166.491638 C229.473541,164.302139 230.296646,161.521545 229.460983,157.269943 C226.615784,142.794495 215.660980,133.814880 200.695389,134.250839 C196.556244,134.371429 195.033829,133.352325 194.453583,128.913055 C191.201477,104.032013 172.452774,86.668076 148.020584,86.482918 C125.533195,86.312492 104.795097,100.827415 101.093666,125.732262 C100.615829,128.947311 99.333794,130.424286 95.923836,130.278442 C89.727936,130.013443 84.138977,132.065552 78.407349,135.845398 M63.962097,175.634750 C63.710594,178.554352 66.243614,179.097351 67.999748,180.083984 C84.401527,189.298996 100.909378,198.326355 117.265404,207.621185 C125.899696,212.527878 134.294006,217.856873 143.042496,223.143768 C144.129303,221.183502 144.985779,219.188019 146.238373,217.483673 C148.178528,214.843826 147.669922,213.078049 144.980347,211.385773 C120.491531,195.977676 95.683449,181.202408 68.009850,172.032730 C65.417580,171.173782 64.279373,172.544067 63.962097,175.634750 z"/>
<path fill="#000000" opacity="1.000000" stroke="none" d="M159.491562,250.036224 C152.272797,250.100143 147.977646,246.092346 148.824402,240.351089 C149.473038,235.953247 152.083038,232.915024 156.451477,232.154160 C160.307068,231.482574 163.244919,233.678436 165.087128,236.909241 C167.237045,240.679672 166.547745,244.349976 163.563095,247.438019 C162.554474,248.481552 161.120850,249.114319 159.491562,250.036224 M153.672348,241.284836 C154.246017,243.575348 155.318207,245.440582 158.048706,245.037125 C159.655106,244.799759 160.633514,243.596268 160.786316,241.891373 C160.961182,239.940247 160.742630,238.012543 158.526215,237.465027 C155.985229,236.837326 154.422195,238.205139 153.672348,241.284836 z"/>
</svg>
