<?xml version="1.0" encoding="UTF-8" standalone="no"?>
<!DOCTYPE svg PUBLIC "-//W3C//DTD SVG 1.1//EN" "http://www.w3.org/Graphics/SVG/1.1/DTD/svg11.dtd">
<!-- Created with Vectornator (http://vectornator.io/) -->
<svg height="1024.0px" stroke-miterlimit="10" style="fill-rule:nonzero;clip-rule:evenodd;stroke-linecap:round;stroke-linejoin:round;" version="1.1" viewBox="0 0 1024 1024" width="1024.0px" xml:space="preserve" xmlns="http://www.w3.org/2000/svg" xmlns:xlink="http://www.w3.org/1999/xlink">
<defs/>
<clipPath id="ArtboardFrame">
<rect height="1024" width="1024" x="0" y="0"/>
</clipPath>
<g clip-path="url(#ArtboardFrame)" id="Layer-1">
<path d="M-58.0428-48.4062L1057-48.4062L1057 1066.23L-58.0428 1066.23L-58.0428-48.4062Z" fill="#e5d7d8" fill-rule="nonzero" opacity="1" stroke="none"/>
<path d="M183.563 443.029C168.169 424.821 140.669 487.159 142.838 502.342C144.433 513.513 158.144 552.05 157.554 554.998C154.126 572.138 145.697 580.149 139.888 597.575C123.731 646.046 102.2 760.415 162.967 830.642C195.044 867.713 329.276 931.406 406.445 939.265C493.668 948.148 596.043 949.949 681.81 934.355C763.516 919.499 829.306 884.247 871.722 807.898C899.4 758.077 903.729 701.239 896.177 648.372C892.704 624.063 883.394 598.811 879.355 574.58C877.874 565.69 872.452 558.211 873.967 549.119C876.652 533.01 885.153 517.327 881.696 500.039C879.457 488.843 870.277 447.027 855.877 449.427C844.856 451.264 832.454 467.632 825.12 474.578C708.913 584.645 515.015 721.536 512.362 720.873C509.151 720.07 352.066 592.888 302.803 550.663C265.139 518.379 216.944 482.513 183.563 443.029Z" fill="#bec8a1" fill-rule="nonzero" opacity="1" stroke="none"/>
<path d="M178.928 401.741C186.619 372.058 210.055 366.82 209.491 365.691C207.689 362.088 179.365 349.042 201.844 298.956C214.016 271.835 247.636 260.379 247.724 260.028C248.64 256.364 214.889 236.07 260.237 185.646C300.133 141.284 326.018 156.49 326.972 155.059C330.8 149.316 312.857 124.68 364.049 100.101C426.135 70.2913 440.658 105.863 440.978 105.703C448.242 102.071 458.233 74.0752 514.672 69.8293C560.97 66.3463 575.658 99.5218 579.813 101.599C583.241 103.313 607.32 69.934 664.98 101.911C707.112 125.277 695.779 157.625 698.186 159.23C705.335 163.996 738.228 138.128 773.441 184.065C803.832 223.712 771.676 255.66 771.873 255.857C772.196 256.18 813.693 257.502 829.571 301.714C845.347 345.641 817.14 371.376 818.448 373.338C820.649 376.64 841.369 382.189 848.382 407.245C860.406 450.21 824.38 474.139 803.393 493.218C775.789 518.312 751.091 541.273 721.642 564.178C681.255 595.59 636.081 626.419 597.406 659.937C579.917 675.094 519.38 719.738 514.665 720.917C511.803 721.632 458.433 675.711 452.1 670.17C432.451 652.977 335.85 579.921 315.168 564.41C296.089 550.1 226.403 488.267 206.015 467.88C200.076 461.941 186.925 447.919 183.077 440.223C181.645 437.358 172.336 427.182 178.928 401.741Z" fill="#f2ebdc" fill-rule="nonzero" opacity="1" stroke="#000000" stroke-linecap="round" stroke-linejoin="round" stroke-width="10"/>
<path d="M181.264 439.589C175.986 436.95 164.54 451.773 161.858 455.222C148.706 472.131 137.045 501.539 145.147 523.143C148.081 530.968 153.057 541.761 158.335 551.492C160.616 555.696 135.522 608.888 128.782 648.722C113.465 739.246 121.215 817.505 208.23 869.461C335.228 945.29 459.212 948.335 468.043 945.226C481.043 940.649 464.265 932.04 464.809 867.601C465.264 813.666 478.232 758.832 516.797 720.267" fill="none" opacity="1" stroke="#000000" stroke-linecap="round" stroke-linejoin="round" stroke-width="10"/>
<path d="M502.099 834.926C502.099 822.715 512.078 812.816 524.387 812.816C536.696 812.816 546.675 822.715 546.675 834.926C546.675 847.136 536.696 857.035 524.387 857.035C512.078 857.035 502.099 847.136 502.099 834.926Z" fill="#dddddd" fill-rule="nonzero" opacity="1" stroke="#000000" stroke-linecap="round" stroke-linejoin="round" stroke-width="10"/>
<path d="M159.146 552.449C175.588 575.946 284.845 664.139 348.041 704.765C367.331 717.166 458.626 767.33 474.209 782.912" fill="none" opacity="1" stroke="#000000" stroke-linecap="round" stroke-linejoin="round" stroke-width="10"/>
<path d="M575.854 941.991C575.854 892.433 558.297 833.778 580.167 785.665C599.452 743.236 656.098 722.62 691.213 697.259C738.391 663.186 784.205 628.428 829.212 591.604C841.288 581.723 855.99 571.069 865.868 558.721C872.072 550.966 879.248 542.051 880.961 531.768C884.784 508.835 882.985 446.058 848.079 446.058" fill="none" opacity="1" stroke="#000000" stroke-linecap="round" stroke-linejoin="round" stroke-width="10"/>
<path d="M875.107 547.914C873.743 547.233 894.131 625.313 896.055 645.509C902.275 710.819 898.276 763.556 865.041 820.53C844.685 855.427 798.706 895.883 763.266 911.389C671.905 951.359 566.658 947.367 469.576 947.367" fill="none" opacity="1" stroke="#000000" stroke-linecap="round" stroke-linejoin="round" stroke-width="10"/>
<path d="M648.819 359.439C648.819 347.855 653.842 338.464 660.038 338.464C666.234 338.464 671.257 347.855 671.257 359.439C671.257 371.023 666.234 380.414 660.038 380.414C653.842 380.414 648.819 371.023 648.819 359.439Z" fill="#000002" fill-rule="nonzero" opacity="1" stroke="#000000" stroke-linecap="round" stroke-linejoin="round" stroke-width="10"/>
<path d="M366.365 358.52C366.365 347.16 371.834 337.951 378.58 337.951C385.325 337.951 390.794 347.16 390.794 358.52C390.794 369.879 385.325 379.088 378.58 379.088C371.834 379.088 366.365 369.879 366.365 358.52Z" fill="#000002" fill-rule="nonzero" opacity="1" stroke="#000000" stroke-linecap="round" stroke-linejoin="round" stroke-width="10"/>
</g>
</svg>
