<?xml version="1.0" encoding="UTF-8" standalone="no"?>
<!DOCTYPE svg PUBLIC "-//W3C//DTD SVG 1.1//EN" "http://www.w3.org/Graphics/SVG/1.1/DTD/svg11.dtd">
<!-- Created with Vectornator (http://vectornator.io/) -->
<svg height="1024.0px" stroke-miterlimit="10" style="fill-rule:nonzero;clip-rule:evenodd;stroke-linecap:round;stroke-linejoin:round;" version="1.1" viewBox="0 0 1024 1024" width="1024.0px" xml:space="preserve" xmlns="http://www.w3.org/2000/svg" xmlns:xlink="http://www.w3.org/1999/xlink">
<defs/>
<clipPath id="ArtboardFrame">
<rect height="1024" width="1024" x="0" y="0"/>
</clipPath>
<g clip-path="url(#ArtboardFrame)" id="Layer-1">
<circle data-cardigan-refit="1" cx="512" cy="512" r="512" fill="#bfc8b3" stroke="none"/><g transform="translate(512 512) scale(0.86) translate(-512 -512)">
<path d="M274.1 539.891C270.968 532.409 236.224 560.9 234.399 565.848C229.451 579.263 225.905 611.063 227.056 625.207C227.326 628.524 199.945 676.483 194.084 687.961C169.631 735.844 155.381 779.619 144.203 831.6C141.132 845.882 100.609 1021.17 122.145 1051.31C133.821 1067.65 340.604 1055.8 536.174 1056.66C709.925 1057.42 877.952 1070.01 894.531 1056.98C902.351 1050.83 889.388 903.834 892.327 894.443C896.951 879.674 886.445 852.01 885.607 837.179C883.153 793.765 878.086 737.715 854.665 699.43C843.772 681.625 837.684 667.896 826.273 650.583C823.885 646.959 811.683 638.298 810.154 635.334C805.172 625.678 808.105 608.893 804.894 597.985C801.502 586.461 797.769 575.17 793.574 563.943C791.466 558.301 777.554 548.234 769.269 547.541C765.727 547.244 758.364 570.591 756.017 574.169C738.443 600.969 717.825 630.11 694.878 653.273C660.549 687.925 621.222 715.408 584.083 746.88C567.184 761.201 530.119 794.156 507.654 800.497C506.67 800.775 352.818 662.429 352.818 662.429C352.818 662.429 286.551 561.452 282.323 551.351" fill="#c9d1eb" fill-rule="nonzero" opacity="1" stroke="none"/>
<path d="M504.806 909.627C504.806 897.415 514.74 887.516 526.994 887.516C539.248 887.516 549.181 897.415 549.181 909.627C549.181 921.839 539.248 931.739 526.994 931.739C514.74 931.739 504.806 921.839 504.806 909.627Z" fill="#dddddd" fill-rule="nonzero" opacity="1" stroke="#000002" stroke-linecap="butt" stroke-linejoin="round" stroke-width="10"/>
<path d="M516.136 795.861C508.984 792.028 470.043 764.025 463.129 760.25C439.483 747.336 413.577 717.617 389.761 697.817C365.428 677.587 341.001 645.445 325.024 618.88C315.04 602.279 283.633 550.968 282.163 547.302C277.384 535.382 247.413 526.106 232.257 427.559C221.099 355.011 241.761 323.696 275.843 261.541C281.368 251.464 230.532 183.512 319.051 145.114C383.163 117.304 413.582 181.918 423.033 185.69C425.501 186.675 468.316 170.567 524.043 165.495C541.12 163.94 588.734 175.938 623.95 175.025C631.563 174.828 650.947 119.25 717.362 135.579C804.938 157.111 774.246 250.242 760.946 255.099C755.258 257.177 808.539 292.682 809.112 382.066C809.721 477.141 769.857 525.292 767.41 531.005C740.047 594.882 712.457 627.333 697.921 641.836C659.829 679.839 620.425 706.347 579.95 741.68C575.241 745.79 525.799 801.039 516.136 795.861Z" fill="#815f3d" fill-rule="nonzero" opacity="1" stroke="none"/>
<path d="M119.935 1065.4C119.114 1065.89 113.177 1026.33 121.851 949.353C128.013 894.665 127.598 858.485 157.233 769.549C183.312 691.285 229.417 645.483 226.7 632.526C223.313 616.377 222.933 551.515 273.277 538.213" fill="none" opacity="1" stroke="#000000" stroke-linecap="round" stroke-linejoin="round" stroke-width="10"/>
<path d="M296.303 546.79C297.046 549.798 283.592 539.385 281.628 537.672C246.875 507.371 233.734 451.41 230.313 417.178C220.734 321.336 271.678 275.42 275.09 260.355C277.868 248.094 250.254 188.505 293.668 156.627C364.499 104.617 415.098 171.259 418.516 185.111" fill="none" opacity="1" stroke="#000000" stroke-linecap="round" stroke-linejoin="round" stroke-width="10"/>
<path d="M421.599 184.621C437.582 178.344 473.171 168.076 527.943 166.284C573.669 164.788 617.903 179.47 618.586 179.031C626.762 173.775 659.735 103.54 736.617 144.126C790.807 172.733 781.04 231.315 760.892 253.137" fill="none" opacity="1" stroke="#000000" stroke-linecap="round" stroke-linejoin="round" stroke-width="10"/>
<path d="M759.885 253.974C763.875 252.356 800.564 291.406 807.436 355.768C814.697 423.763 804.914 502.985 751.765 548.368" fill="none" opacity="1" stroke="#000000" stroke-linecap="round" stroke-linejoin="round" stroke-width="10"/>
<path d="M769.576 544.397C795.402 544.022 817.126 616.693 807.162 636.174C806.964 636.561 809.969 637.488 812.218 638.927C817.615 642.382 840.174 656.985 856.543 701.778C878.874 762.889 914.265 993.536 894.057 1067.5" fill="none" opacity="1" stroke="#000000" stroke-linecap="round" stroke-linejoin="round" stroke-width="10"/>
<path d="M493.474 1081.88C485.02 1029.82 467.295 899.142 486.519 848.449C506.771 795.043 580.57 740.122 628.514 707.455C704.631 655.593 760.155 552.923 765.987 545.464" fill="none" opacity="1" stroke="#000000" stroke-linecap="round" stroke-linejoin="round" stroke-width="10"/>
<path d="M596.507 1070.97C577.81 1022.65 559.006 882.138 596.23 842C619.271 817.157 652.072 798.671 677.4 775.501C724.049 732.83 769.712 685.977 808.16 636.808" fill="none" opacity="1" stroke="#000000" stroke-linecap="round" stroke-linejoin="round" stroke-width="10"/>
<path d="M280.012 541.766C278.161 545.246 296.437 588.503 337.042 641.619C366.985 680.787 417.038 730.629 439.146 746.522C456.812 759.222 474.096 772.493 492.367 784.384C497.384 787.649 518.78 802.491 515.741 798.92" fill="none" opacity="1" stroke="#000000" stroke-linecap="round" stroke-linejoin="round" stroke-width="10"/>
<path d="M225.854 618.528C226.491 634.012 253.013 664.439 257.547 670.121C296.774 719.289 348.923 760.822 397.432 801.625C414.41 815.905 433.411 828.565 451.013 842.191C456.626 846.537 463.142 851.227 468.274 856.052C469.679 857.373 482.523 866.871 478.554 864.383" fill="none" opacity="1" stroke="#000000" stroke-linecap="round" stroke-linejoin="round" stroke-width="10"/>
<path d="M417.724 468.9C417.724 424.153 465.259 387.879 523.896 387.879C582.533 387.879 630.067 424.153 630.067 468.9C630.067 513.647 582.533 549.922 523.896 549.922C465.259 549.922 417.724 513.647 417.724 468.9Z" fill="#c9b09a" fill-rule="nonzero" opacity="1" stroke="#000002" stroke-linecap="butt" stroke-linejoin="round" stroke-width="10"/>
<path d="M618.118 369.535C618.118 356.188 625.102 345.368 633.718 345.368C642.333 345.368 649.318 356.188 649.318 369.535C649.318 382.883 642.333 393.703 633.718 393.703C625.102 393.703 618.118 382.883 618.118 369.535Z" fill="#000002" fill-rule="nonzero" opacity="1" stroke="none"/>
<path d="M389.903 380.048C389.903 366.285 397.482 355.128 406.832 355.128C416.181 355.128 423.76 366.285 423.76 380.048C423.76 393.81 416.181 404.967 406.832 404.967C397.482 404.967 389.903 393.81 389.903 380.048Z" fill="#000002" fill-rule="nonzero" opacity="1" stroke="none"/>
<path d="M524.586 406.335C519.043 406.249 496.719 413.163 500.153 422.272C502.504 428.51 516.124 442.004 527.566 440.486C542.373 438.522 551.165 415.189 551.165 415.189C551.165 415.189 540.915 406.588 524.586 406.335Z" fill="#000002" fill-rule="nonzero" opacity="1" stroke="#000002" stroke-linecap="round" stroke-linejoin="round" stroke-width="10"/>
<path d="M528.237 432.706C530.692 445.731 531.674 467.963 524.469 479.434C516.234 492.542 498.771 499.555 492.139 481.96" fill="none" opacity="1" stroke="#000002" stroke-linecap="round" stroke-linejoin="round" stroke-width="10"/>
<path d="M529.427 439.862C526.411 452.665 529.183 472.115 536.567 482.802C547.341 498.392 564.562 495.969 570.087 477.54" fill="none" opacity="1" stroke="#000002" stroke-linecap="round" stroke-linejoin="round" stroke-width="10"/>
<path d="M655.791 186.944C676.415 170.379 696.531 146.675 725.298 166.34C764.64 193.234 743.973 232.16 741.784 233.327C741.692 233.376 653.816 188.53 655.791 186.944Z" fill="#c9b09a" fill-rule="nonzero" opacity="1" stroke="#000000" stroke-linecap="round" stroke-linejoin="round" stroke-width="10"/>
<path d="M300.227 236.036C300.367 235.786 284.856 190.303 314.921 173.366C355.358 150.586 383.527 202.625 383.369 203.838C383.043 206.336 297.56 240.813 300.227 236.036Z" fill="#c9b09a" fill-rule="nonzero" opacity="1" stroke="#000000" stroke-linecap="round" stroke-linejoin="round" stroke-width="10"/>
</g></g>
</svg>
