<?xml version="1.0" encoding="UTF-8" standalone="no"?>
<!DOCTYPE svg PUBLIC "-//W3C//DTD SVG 1.1//EN" "http://www.w3.org/Graphics/SVG/1.1/DTD/svg11.dtd">
<!-- Created with Vectornator (http://vectornator.io/) -->
<svg height="1024.0px" stroke-miterlimit="10" style="fill-rule:nonzero;clip-rule:evenodd;stroke-linecap:round;stroke-linejoin:round;" version="1.1" viewBox="0 0 1024 1024" width="1024.0px" xml:space="preserve" xmlns="http://www.w3.org/2000/svg" xmlns:xlink="http://www.w3.org/1999/xlink">
<defs/>
<clipPath id="ArtboardFrame">
<rect height="1024" width="1024" x="0" y="0"/>
</clipPath>
<g clip-path="url(#ArtboardFrame)" id="Layer-1">
<circle data-cardigan-refit="1" cx="512" cy="512" r="512" fill="#d4e0d8" stroke="none"/><g transform="translate(512 512) scale(0.86) translate(-512 -512)">
<path d="M352.468 133.932C343.754 133.867 298.031 139.349 246.692 177.577C192.766 217.73 133.409 292.914 136.991 388.745C142.076 524.776 291.579 546.83 296.086 551.337C306.866 562.116 308.824 579.863 321.436 590.673C358.975 622.85 404.408 650.043 439.446 685.081C461.382 707.017 540.797 802.062 542.595 801.342C555.84 796.044 629.929 719.487 667.598 676.34C715.676 621.268 731.325 583.396 736.293 563.522C737.895 557.115 758.032 499.762 758.509 499.762C760.006 499.762 774.244 530.357 826.693 513.748C907.806 488.062 878.403 327.584 846.798 272.484C748.02 100.277 685.083 149.231 683.333 147.481C642.952 107.101 584.867 85.9406 527.735 87.1649C405.354 89.7873 362.377 134.005 352.468 133.932Z" fill="#efd49c" fill-rule="nonzero" opacity="1" stroke="none"/>
<path d="M286.474 541.369C270.648 541.369 241.075 580.062 239.284 592.154C238.534 597.218 242.335 609.265 240.277 613.235C233.897 625.542 219.426 639.089 211.466 651.563C180.717 699.758 150.041 789.006 144.186 845.472C142.634 860.447 123.378 1013.42 132.247 1027.68C145.514 1049.01 503.472 1023.59 504.729 1022.37C505.431 1021.7 505.438 1003.93 505.298 1002.98C502.909 986.854 498.143 977.811 498.143 960.979C498.143 944.389 492.047 936.433 490.138 919.863C488.626 906.735 491.89 887.016 493.617 873.686C495.809 856.774 502.699 846.285 510.505 831.228C515.004 822.55 533.852 808.103 533.852 799.128C533.852 797.371 533.355 797.691 534.845 797.691" fill="#e5cbcd" fill-rule="nonzero" opacity="1" stroke="none"/>
<path d="M920.804 1057.08C923.485 1041.56 921.351 1009.22 916.302 970.397C904.621 880.581 877.337 756.071 857.963 724.927C850.054 712.214 843.19 693.162 836.261 679.797C823.873 655.901 808.072 624.848 793.937 602.127C784.586 587.095 770.772 509.81 741.057 547.016C732.201 558.106 732.347 578.036 726.961 591.024C705.338 643.162 672.243 687.134 631.053 726.862C608.678 748.443 584.66 768.275 562.362 789.78C556.135 795.787 546.525 796.537 539.897 801.864C517.707 819.7 505.494 839.134 497.128 866.033C484.376 907.027 491.511 943.245 491.511 984.787C491.511 991.409 504.543 1058.64 513.693 1059.9" fill="#e5cbcd" fill-rule="nonzero" opacity="1" stroke="none"/>
<path d="M596.516 409.072C577.139 409.072 576.477 425.336 583.05 437.659C591.464 453.436 609.128 468.589 626.972 473.649C652.162 480.793 697.526 439.213 680.425 415.448C671.991 403.727 644.634 403.837 631.737 404.548C628.549 404.724 620.441 407.168 617.649 405.782" fill="#000002" fill-rule="nonzero" opacity="1" stroke="none"/>
<path d="M522.363 919.756C522.363 907.715 532.426 897.955 544.838 897.955C557.251 897.955 567.313 907.715 567.313 919.756C567.313 931.796 557.251 941.557 544.838 941.557C532.426 941.557 522.363 931.796 522.363 919.756Z" fill="#ffffff" fill-rule="nonzero" opacity="1" stroke="#000000" stroke-linecap="butt" stroke-linejoin="round" stroke-width="10"/>
<path d="M350.744 134.565C244.311 134.565 150.735 264.215 133.387 356.242C128.243 383.534 136.818 414.195 146.907 439.496C168.967 494.816 272.37 601.873 325.784 511.717C342.327 483.795 330.984 452.174 330.984 422.444C330.984 369.872 334.312 310.704 359.064 262.957" fill="none" opacity="1" stroke="#000000" stroke-linecap="round" stroke-linejoin="round" stroke-width="10"/>
<path d="M354.225 134.604C346.515 130.886 372.432 117.438 375.962 115.735C400.335 103.981 424.366 95.9396 450.955 89.5283C522.19 72.3518 591.068 84.0237 653.111 119.928C662.455 125.335 676.336 132.231 681.37 141.942" fill="none" opacity="1" stroke="#000000" stroke-linecap="round" stroke-linejoin="round" stroke-width="10"/>
<path d="M684.63 139.845C716.5 124.476 775.226 168.177 793.316 189.114C847.807 252.181 891.301 334.425 881.352 420.783C873.865 485.772 835.981 544.089 762.884 508.838" fill="none" opacity="1" stroke="#000000" stroke-linecap="round" stroke-linejoin="round" stroke-width="10"/>
<path d="M732.452 229.997C731.58 231.68 730.925 273.184 729.918 317.198C729.273 345.45 737.352 375.493 741.495 386.855C752.014 415.704 769.878 455.447 765.841 486.591C755.882 563.44 690.464 580.537 624.233 548.597" fill="none" opacity="1" stroke="#000000" stroke-linecap="round" stroke-linejoin="round" stroke-width="10"/>
<path d="M628.114 477.39C619.822 501.381 637.519 526.094 618.332 550.769C577.9 602.764 496.652 593.795 453.129 551.817C445.591 544.547 433.953 539.985 429.218 530.852" fill="none" opacity="1" stroke="#000000" stroke-linecap="round" stroke-linejoin="round" stroke-width="10"/>
<path d="M629.458 473.101C639.479 468.348 651.987 470.944 661.915 462.496C730.496 404.136 614.555 391.763 578.614 419.082C563.779 430.359 604.954 460.786 613.357 465.848C616.396 467.68 625.283 475.082 629.458 473.101Z" fill="none" opacity="1" stroke="#000000" stroke-linecap="round" stroke-linejoin="round" stroke-width="10"/>
<path d="M533.613 797.88C540.547 804.569 486.65 737.53 426.433 680.489C362.414 619.847 331.584 614.704 295.529 545.156" fill="none" opacity="1" stroke="#000000" stroke-linecap="round" stroke-linejoin="round" stroke-width="10"/>
<path d="M491.598 868.033C491.471 868.278 415.448 807.794 392.208 790.473C345.324 755.531 303.02 710.2 267.52 664.547C254.761 648.14 236.688 618.348 239.51 596.572C241.801 578.891 259.892 562.919 267.971 547.335" fill="none" opacity="1" stroke="#000000" stroke-linecap="round" stroke-linejoin="round" stroke-width="10"/>
<path d="M238.681 612.498C230.646 614.956 203.68 663.872 199.649 671.927C174.91 721.361 157.746 771.89 148.435 825.966C128.919 939.31 125.941 1016.08 130.684 1030.5" fill="none" opacity="1" stroke="#000000" stroke-linecap="round" stroke-linejoin="round" stroke-width="10"/>
<path d="M500.335 1028.19C505.629 1041.47 490.884 1015.84 484.909 959.715C480.899 922.051 490.795 867.715 510.523 834.907C529.522 803.311 560.405 791.171 586.312 766.502C626.652 728.09 664.823 687.533 696.582 642.217C705.703 629.204 744.19 570.094 735.68 553.411" fill="none" opacity="1" stroke="#000000" stroke-linecap="round" stroke-linejoin="round" stroke-width="10"/>
<path d="M607.486 1021.67C605.824 1009.91 571.82 953.742 597.555 873.061C608.04 840.187 664.317 816.178 714.432 744.473C763.137 674.784 807.066 599.346 776.402 556.035C772.252 550.173 761.75 535.973 754.323 533.534" fill="none" opacity="1" stroke="#000000" stroke-linecap="round" stroke-linejoin="round" stroke-width="10"/>
<path d="M787.032 588.762C829.006 671.044 905.688 764.167 921.672 1021.7" fill="none" opacity="1" stroke="#000000" stroke-linecap="round" stroke-linejoin="round" stroke-width="10"/>
<path d="M463.597 315.555C463.597 302.913 468.991 292.665 475.645 292.665C482.298 292.665 487.692 302.913 487.692 315.555C487.692 328.197 482.298 338.445 475.645 338.445C468.991 338.445 463.597 328.197 463.597 315.555Z" fill="#000002" fill-rule="nonzero" opacity="1" stroke="#000000" stroke-linecap="butt" stroke-linejoin="round" stroke-width="10"/>
<path d="M663.499 308.664C663.499 296.048 668.652 285.821 675.009 285.821C681.366 285.821 686.519 296.048 686.519 308.664C686.519 321.279 681.366 331.506 675.009 331.506C668.652 331.506 663.499 321.279 663.499 308.664Z" fill="#000002" fill-rule="nonzero" opacity="1" stroke="#000000" stroke-linecap="butt" stroke-linejoin="round" stroke-width="10"/>
</g></g>
</svg>
