<?xml version="1.0" encoding="UTF-8" standalone="no"?>
<svg xmlns="http://www.w3.org/2000/svg" xmlns:xlink="http://www.w3.org/1999/xlink" viewBox="0 0 1024 1024" role="img" aria-label="Perrito" stroke-miterlimit="10" style="fill-rule:nonzero;clip-rule:evenodd;stroke-linecap:round;stroke-linejoin:round;">
<g id="Layer-2">
<rect x="0" y="0" width="1024" height="1024" fill="#d3e0d8"/>
<path d="M340.934 597.421C328.751 597.421 305.985 628.303 304.606 637.954C304.029 641.996 306.956 651.611 305.371 654.78C300.46 664.602 289.32 675.414 283.193 685.371C259.522 723.836 241.43 776.817 236.923 821.885C235.728 833.837 224.138 859.647 230.966 871.027C241.178 888.048 289.367 919.394 306.224 929.228C347.674 953.407 406.393 975.441 453.76 983.234C460.812 984.394 502.892 988.642 503.859 987.675C504.4 987.134 509.492 966.608 509.384 965.85C507.545 952.978 503.876 945.761 503.876 932.326C503.876 919.085 499.183 912.735 497.714 899.51C496.55 889.032 494.09 878.793 495.42 868.154C497.107 854.656 507.383 840.785 513.392 828.768C516.855 821.841 531.364 810.31 531.364 803.147C531.364 801.745 530.982 802 532.129 802" fill="#5b9baf" fill-rule="nonzero" opacity="1" stroke="none"/>
<path d="M690.871 601.928C684.053 610.779 684.166 626.686 680.02 637.052C663.375 678.665 637.898 713.761 606.19 745.469C588.966 762.693 570.476 778.522 553.312 795.687C548.518 800.48 541.121 801.079 536.018 805.331C518.936 819.566 509.535 835.077 503.094 856.546C493.278 889.266 498.771 918.172 498.771 951.328C498.771 956.613 494.487 986.679 501.531 987.685C546.955 994.174 592.188 983.756 637.592 972.405C647.744 969.867 665.361 963.498 675.097 959.441C694.479 951.365 709.448 943.729 728.379 934.895C743.991 927.609 798.194 892.627 801.441 873.149C808.279 832.119 802.226 779.527 780.865 743.925C774.777 733.778 769.492 718.572 764.159 707.905C754.623 688.833 744.111 677.469 733.23 659.334C726.032 647.337 713.746 572.233 690.871 601.928Z" fill="#5b9baf" fill-rule="nonzero" opacity="1" stroke="none"/>
<path d="M530.344 871.023C518.391 871.023 528.021 904.986 546.744 895.624C563.841 887.076 550.596 862.591 534.087 870.845" fill="#f5f0eb" fill-rule="nonzero" opacity="1" stroke="none"/>
<path d="M393.153 274.293C390.547 267.276 337.779 284.566 331.336 288.849C278.346 324.082 239.498 385.434 222.746 445.237C214.106 476.082 237.429 532.211 259.648 552.971C268.959 561.671 279.627 573.099 288.569 581.454C306.496 598.204 338.328 601.239 360.894 583.087C389.45 560.116 378.173 468.251 379.403 434.708C379.958 419.593 383.382 403.605 388.536 389.613C391.063 382.752 395.488 381.423 396.349 373.481" fill="#f5f0eb" fill-rule="nonzero" opacity="1" stroke="none"/>
<path d="M389.631 272.697C388.612 272.915 402.179 262.663 405.705 259.487C414.12 251.906 434.109 245.367 444.771 240.907C477.102 227.382 522.268 223.117 556.893 232.925C573.201 237.545 581.686 240.108 597.164 247.023C607.422 251.606 620.244 256.999 630.243 263.828C639.138 269.904 641.618 277.141 645.075 276.186C656.359 273.068 680.185 275.778 690.925 280.738C701.17 285.469 712.291 293.262 718.572 302.769C721.998 307.953 722.448 314.377 727.378 318.799C758.521 346.734 798.883 425.429 798.388 469.515C797.967 507.038 793.995 568.092 747.683 574.34C738.628 575.561 721.962 575.026 713.064 572.505C711.352 572.02 708.701 564.411 708.45 564.541C706.139 565.736 701.268 584.058 698.488 587.366C692.05 595.028 683.228 598.624 675.916 604.471C675.707 604.638 682.693 607.134 682.924 609.8C683.855 620.541 675.134 642.288 668.901 650.465C637.951 691.067 609.903 736.325 572.059 771.67C563.124 780.015 548.219 794.801 537.774 800.2C536.731 800.739 526.129 791.973 525.376 791.297C511.16 778.546 498.111 764.76 484.09 751.583C472.173 740.383 465.766 724.275 455.651 711.626C440.821 693.079 418.287 684.65 402.558 667.809C391.315 655.771 378.054 643.962 369.303 630.122C363.611 621.119 346.335 602.049 347.515 591.445" fill="#f5f0eb" fill-rule="nonzero" opacity="1" stroke="none"/>
<path d="M579.023 491.559C564.76 491.559 564.273 503.619 569.11 512.757C575.304 524.456 588.306 535.692 601.44 539.444C619.982 544.742 653.373 513.909 640.786 496.287C634.578 487.596 614.441 487.677 604.948 488.204C602.602 488.334 596.633 490.147 594.578 489.119" fill="#000002" fill-rule="nonzero" opacity="1" stroke="none"/>
</g>
<g id="Layer-1">
<path d="M390.408 272.737C308.477 272.737 236.442 376.215 223.087 449.665C219.127 471.447 225.728 495.918 233.495 516.113C250.477 560.265 330.076 645.711 371.195 573.754C383.929 551.469 375.197 526.231 375.197 502.503C375.197 460.543 377.759 413.319 396.813 375.211" fill="none" opacity="1" stroke="#000000" stroke-linecap="round" stroke-linejoin="round" stroke-width="10"/>
<path d="M393.088 272.768C387.153 269.8 407.104 259.066 409.821 257.708C428.583 248.326 447.082 241.908 467.551 236.791C522.387 223.082 575.409 232.398 623.17 261.054C630.363 265.37 641.048 270.874 644.924 278.624" fill="none" opacity="1" stroke="#000000" stroke-linecap="round" stroke-linejoin="round" stroke-width="10"/>
<path d="M647.434 276.951C671.967 264.684 717.174 299.563 731.1 316.274C773.047 366.61 806.528 432.252 798.87 501.177C793.106 553.047 763.943 599.592 707.673 571.457" fill="none" opacity="1" stroke="#000000" stroke-linecap="round" stroke-linejoin="round" stroke-width="10"/>
<path d="M684.247 348.904C683.123 351.151 697.423 401.397 698.47 410.817C700.926 432.924 696.01 455.606 698.47 477.75C701.175 502.097 716.637 524.846 713.53 549.703C705.863 611.039 658.258 631.252 607.274 605.76" fill="none" opacity="1" stroke="#000000" stroke-linecap="round" stroke-linejoin="round" stroke-width="10"/>
<path d="M603.927 546.357C597.544 565.505 611.167 585.23 596.397 604.923C565.273 646.422 502.728 639.264 469.224 605.76C463.422 599.957 454.463 596.317 450.818 589.027" fill="none" opacity="1" stroke="#000000" stroke-linecap="round" stroke-linejoin="round" stroke-width="10"/>
<path d="M604.962 542.934C612.676 539.141 622.305 541.212 629.947 534.469C682.741 487.89 593.49 478.015 565.822 499.819C554.402 508.82 586.099 533.104 592.567 537.145C594.907 538.607 601.748 544.515 604.962 542.934Z" fill="none" opacity="1" stroke="#000000" stroke-linecap="round" stroke-linejoin="round" stroke-width="10"/>
<path d="M531.18 802.152C536.519 807.49 514.827 787.461 511.01 784.067C495.781 770.531 479.233 749.782 466.842 733.574C424.677 678.418 375.659 655.952 347.904 600.443" fill="none" opacity="1" stroke="#000000" stroke-linecap="round" stroke-linejoin="round" stroke-width="10"/>
<path d="M498.838 858.143C498.74 858.338 494.529 853.166 492.925 851.883C487.205 847.307 481.406 842.722 475.537 838.32C457.465 824.766 440.218 810.064 422.328 796.239C386.236 768.351 353.671 732.171 326.342 695.733C316.521 682.638 302.608 658.86 304.78 641.481C306.544 627.368 320.471 614.621 326.69 602.182" fill="none" opacity="1" stroke="#000000" stroke-linecap="round" stroke-linejoin="round" stroke-width="10"/>
<path d="M304.142 654.191C297.957 656.153 277.199 695.194 274.096 701.623C255.051 741.078 242.304 781.493 234.671 824.568C232.682 835.794 228.011 857.14 231.663 868.652" fill="none" opacity="1" stroke="#000000" stroke-linecap="round" stroke-linejoin="round" stroke-width="10"/>
<path d="M499.63 976.88C497.196 980.083 497.391 962.844 497.092 960.241C495.986 950.6 494.699 940.979 493.688 931.317C490.544 901.263 498.219 857.889 513.406 831.704C528.031 806.486 551.805 796.797 571.749 777.107C602.802 746.45 632.186 714.079 656.634 677.911C663.655 667.525 690.253 623.773 683.702 610.458" fill="none" opacity="1" stroke="#000000" stroke-linecap="round" stroke-linejoin="round" stroke-width="10"/>
<path d="M579.922 975.506C578.642 966.116 581.746 956.18 581.806 946.805C581.973 920.754 579.833 881.604 592.764 858.092C605.922 834.168 629.377 813.562 648.334 794.032C672.04 769.611 692.42 738.994 710.077 709.989C731.372 675.007 738.655 646.549 715.05 611.981C711.855 607.303 707.076 598.539 701.358 596.593" fill="none" opacity="1" stroke="#000000" stroke-linecap="round" stroke-linejoin="round" stroke-width="10"/>
<path d="M731.646 645.712C763.957 711.384 797.321 759.974 804.104 835.078C805.367 849.073 806.048 864.581 801.563 877.753" fill="none" opacity="1" stroke="#000000" stroke-linecap="round" stroke-linejoin="round" stroke-width="10"/>
<path d="M638.094 398.441C633.184 398.879 631.418 426.979 639.691 429.462C650.626 432.744 652.835 397.75 639.854 396.337C630.312 395.298 634.602 422.062 638.222 426.087C643.126 431.541 648.404 406.757 642.441 403.507C640.212 402.292 640.173 405.36 640.012 406.84C638.776 418.188 645.066 428.576 643.724 413.521" fill="none" opacity="1" stroke="#000000" stroke-linecap="round" stroke-linejoin="round" stroke-width="10"/>
<path d="M485.092 399.423C473.397 402.169 475.884 435.887 487.472 434.854C499.28 433.801 498.453 401.515 488.518 398.533C482.299 396.667 479.039 424.824 488.466 428.532C493.783 430.624 496.082 407.262 488.752 405.524C484.749 404.575 482.009 431.056 489.025 430.43C498.032 429.627 493.407 397.036 483.246 400.561C478.804 402.102 480.546 413.972 480.863 417.524C480.886 417.782 480.955 418.555 480.932 418.297C480.424 412.6 479.046 401.237 485.358 398.036C486.239 397.589 489.29 398.446 489.395 399.624C489.422 399.929 483.771 399.614 483.177 399.788C480.196 400.666 481.254 404.44 481.444 406.565C481.536 407.596 481.719 409.657 481.719 409.657C481.719 409.657 481.559 407.853 481.478 406.952C480.645 397.609 488.48 398.627 485.092 399.423Z" fill="none" opacity="1" stroke="#000000" stroke-linecap="round" stroke-linejoin="round" stroke-width="10"/>
<path d="M533.164 871.533C513.487 879.912 530.286 907.124 549.351 899.391C569.345 891.281 550.779 864.032 533.164 871.533Z" fill="none" opacity="1" stroke="#000000" stroke-linecap="round" stroke-linejoin="round" stroke-width="10"/>
</g>
</svg>
