<?xml version="1.0" encoding="UTF-8" standalone="no"?>
<!DOCTYPE svg PUBLIC "-//W3C//DTD SVG 1.1//EN" "http://www.w3.org/Graphics/SVG/1.1/DTD/svg11.dtd">
<!-- Created with Vectornator (http://vectornator.io/) -->
<svg height="1024.0px" stroke-miterlimit="10" style="fill-rule:nonzero;clip-rule:evenodd;stroke-linecap:round;stroke-linejoin:round;" version="1.1" viewBox="0 0 1024 1024" width="1024.0px" xml:space="preserve" xmlns="http://www.w3.org/2000/svg" xmlns:xlink="http://www.w3.org/1999/xlink">
<defs/>
<clipPath id="ArtboardFrame">
<rect height="1024" width="1024" x="0" y="0"/>
</clipPath>
<g clip-path="url(#ArtboardFrame)" id="Layer-2">
<path d="M-1.14507-13.9974L1040.93-13.9974L1040.93 1032.9L-1.14507 1032.9L-1.14507-13.9974Z" fill="#d3e0d8" fill-rule="nonzero" opacity="1" stroke="none"/>
<path d="M286.474 509.051C270.648 509.051 241.075 547.744 239.284 559.837C238.534 564.901 242.335 576.947 240.277 580.917C233.897 593.225 219.426 606.771 211.466 619.246C180.717 667.44 157.215 733.821 151.36 790.287C149.808 805.262 134.752 837.601 143.622 851.858C156.888 873.184 219.487 912.459 241.385 924.779C295.23 955.073 371.508 982.681 433.041 992.445C442.201 993.898 496.865 999.221 498.122 998.009C498.824 997.332 505.438 971.613 505.298 970.665C502.909 954.536 498.143 945.494 498.143 928.661C498.143 912.071 492.047 904.116 490.138 887.545C488.626 874.417 485.43 861.589 487.158 848.258C489.35 831.347 502.699 813.967 510.505 798.911C515.004 790.232 533.852 775.785 533.852 766.81C533.852 765.054 533.355 765.373 534.845 765.373" fill="#5b9baf" fill-rule="nonzero" opacity="1" stroke="none"/>
<path d="M741.057 514.698C732.201 525.788 732.347 545.719 726.961 558.706C705.338 610.844 672.243 654.817 631.053 694.544C608.678 716.125 584.66 735.957 562.362 757.463C556.135 763.469 546.525 764.219 539.897 769.546C517.707 787.382 505.494 806.816 497.128 833.715C484.376 874.71 491.511 910.927 491.511 952.469C491.511 959.091 485.947 996.761 495.097 998.022C554.105 1006.15 612.864 993.099 671.846 978.877C685.034 975.697 707.919 967.717 720.566 962.634C745.745 952.516 765.19 942.948 789.782 931.88C810.062 922.751 880.475 878.921 884.692 854.517C893.575 803.11 885.711 737.215 857.963 692.609C850.054 679.897 843.19 660.844 836.261 647.48C823.873 623.583 810.218 609.345 796.084 586.624C786.733 571.592 770.772 477.492 741.057 514.698Z" fill="#5b9baf" fill-rule="nonzero" opacity="1" stroke="none"/>
<path d="M354.309 104.197C350.924 95.4063 282.376 117.069 274.007 122.436C205.17 166.579 154.706 243.448 132.944 318.376C121.719 357.024 152.017 427.348 180.881 453.36C192.976 464.26 206.835 478.578 218.45 489.046C241.739 510.033 283.09 513.835 312.404 491.092C349.499 462.311 334.849 347.211 336.448 305.185C337.168 286.248 341.616 266.215 348.312 248.684C351.595 240.088 357.342 238.424 358.461 228.472" fill="#f5f0eb" fill-rule="nonzero" opacity="1" stroke="none"/>
<path d="M349.734 102.197C348.41 102.471 366.034 89.6264 370.615 85.6462C381.547 76.1483 407.513 67.9555 421.364 62.3671C463.362 45.4218 522.034 40.0776 567.015 52.3669C588.199 58.1548 599.221 61.3668 619.328 70.0308C632.653 75.7727 649.31 82.5294 662.298 91.086C673.854 98.6989 677.076 107.766 681.566 106.57C696.224 102.663 727.175 106.058 741.127 112.272C754.436 118.2 768.883 127.964 777.043 139.875C781.492 146.371 782.077 154.42 788.482 159.961C828.938 194.96 881.37 293.559 880.727 348.795C880.18 395.809 875.019 472.305 814.858 480.132C803.096 481.663 781.446 480.992 769.886 477.834C767.663 477.226 764.22 467.693 763.894 467.856C760.89 469.353 754.564 492.309 750.952 496.454C742.588 506.053 731.129 510.559 721.63 517.885C721.359 518.094 730.433 521.221 730.734 524.562C731.944 538.019 720.615 565.266 712.517 575.512C672.312 626.382 635.876 683.088 586.716 727.372C575.109 737.828 555.746 756.353 542.178 763.118C540.823 763.793 527.051 752.81 526.073 751.963C507.605 735.986 490.654 718.714 472.44 702.204C456.96 688.171 448.636 667.99 435.497 652.141C416.232 628.903 386.959 618.342 366.527 597.243C351.922 582.16 334.696 567.363 323.328 550.023C315.933 538.743 293.49 514.85 295.024 501.564" fill="#f5f0eb" fill-rule="nonzero" opacity="1" stroke="none"/>
<path d="M596.516 376.755C577.139 376.755 576.477 393.018 583.05 405.341C591.464 421.118 609.128 436.271 626.972 441.332C652.162 448.476 697.526 406.895 680.425 383.13C671.991 371.41 644.634 371.519 631.737 372.23C628.549 372.406 620.441 374.85 617.649 373.464" fill="#000002" fill-rule="nonzero" opacity="1" stroke="none"/>
<path d="M522.363 891.355C522.363 881.477 530.234 873.47 539.943 873.47C549.651 873.47 557.522 881.477 557.522 891.355C557.522 901.232 549.651 909.24 539.943 909.24C530.234 909.24 522.363 901.232 522.363 891.355Z" fill="#f5f0eb" fill-rule="nonzero" opacity="1" stroke="#000000" stroke-linecap="butt" stroke-linejoin="round" stroke-width="10"/>
</g>
<g id="Layer-1">
<path d="M350.744 102.248C244.311 102.248 150.735 231.898 133.387 323.924C128.243 351.216 136.818 381.877 146.907 407.178C168.967 462.499 272.37 569.555 325.784 479.399C342.327 451.478 330.984 419.856 330.984 390.126C330.984 337.554 334.312 278.387 359.064 230.64" fill="none" opacity="1" stroke="#000000" stroke-linecap="round" stroke-linejoin="round" stroke-width="10"/>
<path d="M354.225 102.286C346.515 98.5686 372.432 85.1198 375.962 83.4174C400.335 71.6635 424.366 63.622 450.955 57.2106C522.19 40.0341 591.068 51.706 653.111 87.6105C662.455 93.0174 676.336 99.9138 681.37 109.624" fill="none" opacity="1" stroke="#000000" stroke-linecap="round" stroke-linejoin="round" stroke-width="10"/>
<path d="M684.63 107.528C716.5 92.1588 775.226 135.859 793.316 156.797C847.807 219.864 891.301 302.108 881.352 388.465C873.865 453.454 835.981 511.771 762.884 476.52" fill="none" opacity="1" stroke="#000000" stroke-linecap="round" stroke-linejoin="round" stroke-width="10"/>
<path d="M732.452 197.679C730.993 200.494 749.569 263.449 750.929 275.252C754.12 302.95 747.733 331.368 750.929 359.114C754.443 389.618 774.529 418.121 770.492 449.265C760.533 526.114 698.692 551.439 632.461 519.499" fill="none" opacity="1" stroke="#000000" stroke-linecap="round" stroke-linejoin="round" stroke-width="10"/>
<path d="M628.114 445.072C619.822 469.064 637.519 493.777 618.332 518.451C577.9 570.446 496.652 561.478 453.129 519.499C445.591 512.229 433.953 507.668 429.218 498.534" fill="none" opacity="1" stroke="#000000" stroke-linecap="round" stroke-linejoin="round" stroke-width="10"/>
<path d="M629.458 440.784C639.479 436.031 651.987 438.626 661.915 430.178C730.496 371.818 614.555 359.445 578.614 386.764C563.779 398.041 604.954 428.468 613.357 433.53C616.396 435.362 625.283 442.764 629.458 440.784Z" fill="none" opacity="1" stroke="#000000" stroke-linecap="round" stroke-linejoin="round" stroke-width="10"/>
<path d="M533.613 765.563C540.547 772.251 512.369 747.157 507.41 742.905C487.627 725.944 466.131 699.948 450.035 679.641C395.261 610.535 331.584 582.387 295.529 512.838" fill="none" opacity="1" stroke="#000000" stroke-linecap="round" stroke-linejoin="round" stroke-width="10"/>
<path d="M491.598 835.716C491.471 835.96 486 829.479 483.918 827.872C476.487 822.139 468.953 816.394 461.329 810.879C437.853 793.897 415.448 775.476 392.208 758.155C345.324 723.213 303.02 677.883 267.52 632.229C254.761 615.822 236.688 586.03 239.51 564.255C241.801 546.573 259.892 530.602 267.971 515.017" fill="none" opacity="1" stroke="#000000" stroke-linecap="round" stroke-linejoin="round" stroke-width="10"/>
<path d="M238.681 580.18C230.646 582.638 203.68 631.554 199.649 639.609C174.91 689.043 158.35 739.68 148.435 793.649C145.851 807.714 139.784 834.458 144.527 848.883" fill="none" opacity="1" stroke="#000000" stroke-linecap="round" stroke-linejoin="round" stroke-width="10"/>
<path d="M496.63 995.864C493.468 999.876 488.939 968.639 488.551 965.377C487.115 953.298 486.222 939.503 484.909 927.397C480.824 889.741 490.795 835.397 510.523 802.589C529.522 770.993 560.405 758.854 586.312 734.184C626.652 695.773 664.823 655.215 696.582 609.9C705.703 596.887 740.255 542.069 731.744 525.386" fill="none" opacity="1" stroke="#000000" stroke-linecap="round" stroke-linejoin="round" stroke-width="10"/>
<path d="M602.698 989.647C601.035 977.882 599.299 958.548 599.378 946.802C599.594 914.163 596.814 865.111 613.613 835.651C630.705 805.677 661.174 779.859 685.8 755.39C716.595 724.792 743.069 686.432 766.006 650.091C793.67 606.261 803.131 570.606 772.466 527.295C768.316 521.433 762.108 510.452 754.681 508.014" fill="none" opacity="1" stroke="#000000" stroke-linecap="round" stroke-linejoin="round" stroke-width="10"/>
<path d="M143.762 850.478C159.655 873.096 195.992 896.098 212.837 907.328C241.092 926.164 274.907 943.95 306.365 956.842C380.942 987.407 446.205 1004.44 517.871 1000.85C582.673 997.615 650.654 979.892 711.649 958.676C757.55 942.71 782.559 936.058 836.963 900.604C850.961 891.482 876.927 876.323 884.693 860.792" fill="none" opacity="1" stroke="#000000" stroke-linecap="round" stroke-linejoin="round" stroke-width="10"/>
<path d="M794.025 569.557C835.999 651.838 879.34 712.718 888.151 806.817C889.793 824.352 890.677 843.782 884.851 860.286" fill="none" opacity="1" stroke="#000000" stroke-linecap="round" stroke-linejoin="round" stroke-width="10"/>
<path d="M463.597 283.237C463.597 270.596 468.991 260.348 475.645 260.348C482.298 260.348 487.692 270.596 487.692 283.237C487.692 295.879 482.298 306.127 475.645 306.127C468.991 306.127 463.597 295.879 463.597 283.237Z" fill="#000002" fill-rule="nonzero" opacity="1" stroke="#000000" stroke-linecap="butt" stroke-linejoin="round" stroke-width="10"/>
<path d="M663.499 276.346C663.499 263.73 668.652 253.503 675.009 253.503C681.366 253.503 686.519 263.73 686.519 276.346C686.519 288.962 681.366 299.188 675.009 299.188C668.652 299.188 663.499 288.962 663.499 276.346Z" fill="#000002" fill-rule="nonzero" opacity="1" stroke="#000000" stroke-linecap="butt" stroke-linejoin="round" stroke-width="10"/>
</g>
</svg>
