<?xml version="1.0" encoding="UTF-8" standalone="no"?>
<!DOCTYPE svg PUBLIC "-//W3C//DTD SVG 1.1//EN" "http://www.w3.org/Graphics/SVG/1.1/DTD/svg11.dtd">
<!-- Created with Vectornator (http://vectornator.io/) -->
<svg height="1024.0px" stroke-miterlimit="10" style="fill-rule:nonzero;clip-rule:evenodd;stroke-linecap:round;stroke-linejoin:round;" version="1.1" viewBox="0 0 1024 1024" width="1024.0px" xml:space="preserve" xmlns="http://www.w3.org/2000/svg" xmlns:xlink="http://www.w3.org/1999/xlink">
<defs/>
<g id="Layer-1">
<path d="M69.2598 529.467C69.2598 272.581 261.901 64.3335 499.536 64.3335C737.171 64.3335 929.812 272.581 929.812 529.467C929.812 786.354 737.171 994.601 499.536 994.601C261.901 994.601 69.2598 786.354 69.2598 529.467Z" fill="#d3e0d8" fill-rule="nonzero" opacity="1" stroke="none"/>
<path d="M337.692 581.27C343.169 569.927 306.664 603.752 303.155 610.771C292.433 632.213 306.599 655.689 297.398 674.089C290.719 687.448 280.261 701.125 277.731 716.302C275.217 731.389 276.867 748.123 272.455 762.831C263.275 793.43 257.105 825.646 257.105 857.809C257.105 873.413 252.362 902.83 260.463 916.331C279.1 947.393 322.682 960.093 357.487 973.003C408.705 992.002 474.649 1003.07 530.186 995.133C566.884 989.89 608.753 982.532 642.374 967.822C668.383 956.444 683.075 950.158 708.014 936.554C712.833 933.926 736.305 920.048 738.316 914.016C741.952 903.109 733.913 877.75 733.913 865.484C733.913 821.306 732.822 769.196 717.124 727.334C709.533 707.093 697.141 688.889 689.302 669.292C687.528 664.857 693.775 653.486 694.578 648.666C697.972 628.301 692.737 609.563 686.424 590.624C685.624 588.224 676.489 575.599 673.952 576.233C671.316 576.892 671.831 597.739 670.273 600.856C659.985 621.43 638.528 648.682 613.181 665.672C577.657 689.483 559.972 701.246 531.005 730.212C520.645 740.573 509.487 749.915 500.306 761.392C498.728 763.364 483.79 781.332 483.517 781.059C479.633 777.176 486.505 758.956 474.403 749.88C460.464 739.426 439.47 719.278 425.639 708.521C393.181 683.276 373.388 664.273 353.331 628.17C346.856 616.515 330.639 595.875 337.692 581.27Z" fill="#98a6c0" fill-rule="nonzero" opacity="1" stroke="none"/>
<path d="M380.64 657.025C380.851 655.818 393.051 656.193 395.363 656.666C405.544 658.751 420.164 659.91 430.679 661.166C458.589 664.498 481.567 668.787 509.603 666.92C532.155 665.418 554.323 662.235 576.808 659.7C579.787 659.364 611.935 655.23 610.807 658.678C607.201 669.698 589.006 680.526 580.085 686.629C557.861 701.833 533.703 719.644 514.866 738.69C513.262 740.312 489.751 763.755 488.228 763.176C481.391 760.572 476.106 752.01 470.618 747.522C457.33 736.654 448.64 722.619 436.03 710.926C421.611 697.557 402.321 688.345 390.964 672.232C388.193 668.302 379.777 661.962 380.64 657.025Z" fill="#fcf1f1" fill-rule="nonzero" opacity="1" stroke="none"/>
<path d="M340.715 579.817C357.174 569.036 386.334 565.343 404.832 562.422C466.982 552.609 529.645 555.955 592.005 560.409C608.219 561.568 670.855 559.125 665.897 588.874C665.253 592.739 661.211 607.584 656.697 608.712C653.637 609.477 623.83 596.21 617.882 594.624C591.632 587.624 562.95 588.299 535.939 588.299C514.223 588.299 492.455 584.323 470.673 585.998C447.131 587.809 424.419 593.592 401.094 596.924C390.37 598.456 351.359 612.644 343.015 609.862C336.59 607.721 334.978 583.575 340.715 579.817Z" fill="#565d6c" fill-rule="nonzero" opacity="1" stroke="none"/>
<path d="M257.873 910.985C253.052 915.807 256.7 868.622 257.249 864.78C261.698 833.638 263.3 802.251 268.488 771.122C272.784 745.344 276.112 715.2 285.346 690.576C288.76 681.472 294.862 672.495 297.21 663.102C298.259 658.906 296.212 649.996 295.337 645.62C292.045 629.16 300.142 609.034 309.698 596.293C327.21 572.942 367.236 564.554 395.161 561.064C434.884 556.098 464.592 555.028 508.863 555.035C530.557 555.039 587.806 557.029 609.405 558.829C632.69 560.77 670.69 563.118 686.205 583.805C699.242 601.188 701.313 630.274 698.693 651.239C698.065 656.262 691.92 664.109 693.073 668.722C694.313 673.681 700.546 679.277 702.439 684.956C707.457 700.01 711.997 715.612 717.424 730.537C734.025 776.187 737.405 825.768 737.405 874.146C737.405 885.233 742.635 908.017 737.405 918.478" fill="none" opacity="1" stroke="#000000" stroke-linecap="round" stroke-linejoin="round" stroke-width="10"/>
<path d="M344.367 572.285C321.276 583.831 346.682 621.912 355.727 633.219C383.176 667.529 417.111 697.184 448.161 728.234C459.004 739.077 479.454 752.091 486.374 765.93" fill="none" opacity="1" stroke="#000000" stroke-linecap="round" stroke-linejoin="round" stroke-width="10"/>
<path d="M657.298 566.605C685.03 580.471 666.593 606.264 653.167 622.375C620.676 661.363 573.311 690.199 534.398 722.037C512.224 740.18 490.289 764.48 478.628 790.717C461.519 829.211 465.718 878.234 465.718 919.298C465.718 940.846 463.136 962.292 463.136 983.846" fill="none" opacity="1" stroke="#000000" stroke-linecap="round" stroke-linejoin="round" stroke-width="10"/>
<path d="M539.562 988.494C538.477 987.952 536.254 971.33 535.947 968.871C533.357 948.154 531.816 926.27 531.816 905.355C531.816 874.964 529.313 845.296 543.176 817.569C554.711 794.499 579.231 777.65 598.946 762.316C625.914 741.341 676.969 696.122 692.412 665.235" fill="none" opacity="1" stroke="#000000" stroke-linecap="round" stroke-linejoin="round" stroke-width="10"/>
<path d="M297.892 656.973C319.874 700.938 363.048 737.609 400.137 770.062C422.761 789.858 449.923 812.314 463.653 839.774" fill="none" opacity="1" stroke="#000000" stroke-linecap="round" stroke-linejoin="round" stroke-width="10"/>
<path d="M483.526 876.536C483.526 866.682 490.747 858.694 499.655 858.694C508.564 858.694 515.785 866.682 515.785 876.536C515.785 886.39 508.564 894.378 499.655 894.378C490.747 894.378 483.526 886.39 483.526 876.536Z" fill="#fcf1f1" fill-rule="nonzero" opacity="1" stroke="#000000" stroke-linecap="round" stroke-linejoin="round" stroke-width="10"/>
<path d="M462.496 296.158C466.743 255.733 520.012 232.583 556.613 232.583C575.005 232.583 600.73 242.023 604.751 262.129C604.9 262.874 596.892 265.604 595.788 266.113C589.873 268.843 582.968 272.114 578.856 277.401C570.34 288.351 564.072 305.132 554.622 314.583C551.167 318.037 535.098 317.446 530.055 318.567C518.59 321.114 512.819 324.088 504.16 317.903C495.676 311.843 486.735 304.314 476.937 300.639C473.609 299.392 462.19 299.075 462.496 296.158Z" fill="#ffe587" fill-rule="nonzero" opacity="1" stroke="none"/>
<path d="M504.492 389.611C504.544 389.415 489.294 394.907 486.565 397.247C477.461 405.05 468.571 414.489 461.334 424.138C448.488 441.265 433.966 467.792 436.767 490.202C437.686 497.553 441.801 503.313 444.071 510.121C446.99 518.877 455.068 528.062 463.99 531.036C489.211 539.443 507.739 482.083 510.136 465.304C511.832 453.431 508.959 440.785 512.46 429.117C515.397 419.326 522.419 402.259 522.419 392.267C522.419 387.824 503.678 392.696 504.492 389.611Z" fill="#ffe587" fill-rule="nonzero" opacity="1" stroke="none"/>
<path d="M505.156 321.72C504 311.721 471.398 300.845 461.998 297.32C414.409 279.474 350.87 326.421 345.472 375.004C345.273 376.79 348.049 394.09 352.775 390.939C355.163 389.348 357 384.709 359.415 382.64C373.121 370.891 389.704 362.401 406.557 356.081C423.541 349.712 442.993 347.449 461.002 347.449C464.756 347.449 469.788 347.378 473.285 348.777C474.5 349.263 476.691 353.507 477.933 353.093C481.24 351.991 488.96 334.917 491.877 331.514C494.398 328.572 505.468 324.417 505.156 321.72Z" fill="#ffe587" fill-rule="nonzero" opacity="1" stroke="none"/>
<path d="M556.299 315.809C558.881 300.387 584.458 277.665 596.299 269.771C638.06 241.931 649.9 234.67 699.845 230.828C719.237 229.337 766.62 260.004 763.241 283.658C754.398 345.561 706.031 319.866 664.827 325.016C650.755 326.775 607.159 333.472 593.884 338.299C592.516 338.797 584.026 343.702 582.714 342.828C582.519 342.698 577.374 329.573 573.356 326.224C571.189 324.418 556.07 317.176 556.299 315.809Z" fill="#ffe587" fill-rule="nonzero" opacity="1" stroke="none"/>
<path d="M587.846 344.337C585.375 346.729 586.07 351.096 584.223 353.997C583.386 355.313 576.096 362.799 576.978 364.563C577.088 364.782 582.848 364.947 583.62 365.167C591.143 367.316 602.96 370.993 609.28 375.733C637.328 396.769 675.093 406.69 710.109 403.506C724.13 402.232 749.458 389.397 751.467 373.318C754.088 352.355 737.482 342.918 720.977 335.582C691.043 322.278 655.709 321.018 624.072 330.752C613.091 334.131 596.871 335.602 587.846 344.337Z" fill="#ffe587" fill-rule="nonzero" opacity="1" stroke="none"/>
<path d="M524.299 387.506C520.85 387.392 538.471 423.88 541.96 428.865C557.238 450.691 562.991 479.955 594.186 484.411C602.855 485.65 615.008 487.213 621.355 479.279C635.263 461.895 610.9 401.434 598.714 387.506C594.668 382.883 582.31 366.214 573.959 367.884C570.562 368.563 563.451 378.404 560.375 380.865C552.476 387.184 534.56 387.848 524.299 387.506Z" fill="#ffe587" fill-rule="nonzero" opacity="1" stroke="none"/>
<path d="M472.622 354.421C472.818 354.678 471.448 353.456 469.634 353.093C466.615 352.489 463.905 351.344 461.002 350.437C455.529 348.727 447.736 349.351 442.079 350.105C422.071 352.773 397.945 362.17 381.326 373.676C344.249 399.344 285.735 443.771 308.29 494.518C312.622 504.267 316.035 513.311 324.557 520.413C367.954 556.577 396.364 483.343 415.52 457.004C423.746 445.694 436.378 435.775 446.727 426.461C456.706 417.48 466.394 408.476 477.269 400.567C482.014 397.116 494.271 394.153 497.52 389.279C497.894 388.719 497.489 387.889 497.188 387.287C493.867 380.644 482.557 375.307 477.601 369.36C474.263 365.354 472.215 353.889 472.622 354.421Z" fill="#ffe587" fill-rule="nonzero" opacity="1" stroke="none"/>
<path d="M479.055 364.559C474.656 346.508 493.361 326.447 520.834 319.752C548.307 313.057 574.144 322.264 578.543 340.315C582.942 358.366 564.237 378.427 536.764 385.122C509.291 391.817 483.454 382.611 479.055 364.559Z" fill="#fcf1f1" fill-rule="nonzero" opacity="1" stroke="#000000" stroke-linecap="round" stroke-linejoin="round" stroke-width="10"/>
<path d="M475.199 354.593C422.507 328.247 313.869 409.68 301.462 462.409C294.611 491.527 316.774 541.833 353.214 533.259C383.337 526.171 396.338 492.806 411.126 469.802C433.2 435.465 464.094 406.045 500.459 387.862" fill="none" opacity="1" stroke="#000000" stroke-linecap="round" stroke-linejoin="round" stroke-width="10"/>
<path d="M497.379 391.559C487.036 391.559 478.909 400.787 472.119 407.577C445.803 433.893 423.024 474.73 439.466 512.312C459.743 558.659 499.684 518.151 508.468 488.285C512.173 475.69 514.163 464.925 515.245 451.936C516.812 433.137 522.638 413.168 522.638 394.639" fill="none" opacity="1" stroke="#000000" stroke-linecap="round" stroke-linejoin="round" stroke-width="10"/>
<path d="M525.103 394.023C534.786 413.391 540.988 433.733 553.443 451.936C559.224 460.385 567.026 468.963 575.006 475.347C598.321 493.999 627.849 491.028 626.141 456.864C625.205 438.145 595.982 377.403 577.47 368.147" fill="none" opacity="1" stroke="#000000" stroke-linecap="round" stroke-linejoin="round" stroke-width="10"/>
<path d="M583.015 366.299C600.132 366.299 622.652 387.404 637.847 394.639C660.069 405.221 691.393 408.685 715.474 404.497C730.076 401.957 754.288 390.001 754.288 372.46C754.288 326.142 670.08 321.327 638.463 328.102C624.996 330.987 611.176 333.776 597.801 337.343C593.647 338.451 583.085 343.777 583.631 343.504" fill="none" opacity="1" stroke="#000000" stroke-linecap="round" stroke-linejoin="round" stroke-width="10"/>
<path d="M552.211 313.932C555.33 304.573 566.071 295.79 572.541 288.672C610.254 247.189 706.913 206.031 753.055 256.019C758.61 262.037 767.045 270.341 768.458 278.815C772.74 304.506 733.197 335.343 709.313 330.566" fill="none" opacity="1" stroke="#000000" stroke-linecap="round" stroke-linejoin="round" stroke-width="10"/>
<path d="M507.236 320.093C484.64 308.794 468.221 293.159 440.082 291.752C389.333 289.215 334.172 341.265 347.053 392.791" fill="none" opacity="1" stroke="#000000" stroke-linecap="round" stroke-linejoin="round" stroke-width="10"/>
<path d="M463.647 296.787C458.328 279.877 479.862 263.186 491.433 255.405C520.361 235.951 555.845 221.649 587.338 241.56C594.08 245.823 602.233 250.367 604.777 258.457" fill="none" opacity="1" stroke="#000000" stroke-linecap="round" stroke-linejoin="round" stroke-width="10"/>
<path d="M575.039 327.734C571.52 316.545 603.235 305.342 610.208 303.148" fill="none" opacity="1" stroke="#000000" stroke-linecap="round" stroke-linejoin="round" stroke-width="10"/>
<path d="M579.55 356.159C584.273 347.103 631.973 352.248 638.187 358.001" fill="none" opacity="1" stroke="#000000" stroke-linecap="round" stroke-linejoin="round" stroke-width="10"/>
<path d="M552.239 382.004C568.791 384.657 579.038 413.058 584.975 426.034" fill="none" opacity="1" stroke="#000000" stroke-linecap="round" stroke-linejoin="round" stroke-width="10"/>
<path d="M512.635 390.264C502.913 388.706 493.644 424.135 492.275 429.311" fill="none" opacity="1" stroke="#000000" stroke-linecap="round" stroke-linejoin="round" stroke-width="10"/>
<path d="M479.796 368.884C460.362 365.769 419.774 384.711 411.82 403.322" fill="none" opacity="1" stroke="#000000" stroke-linecap="round" stroke-linejoin="round" stroke-width="10"/>
<path d="M487.7 338.418C475.026 320.907 449.729 319.475 430.285 322.67" fill="none" opacity="1" stroke="#000000" stroke-linecap="round" stroke-linejoin="round" stroke-width="10"/>
<path d="M530.726 315.092C524.578 306.598 530.807 285.167 535.725 277.613" fill="none" opacity="1" stroke="#000000" stroke-linecap="round" stroke-linejoin="round" stroke-width="10"/>
<path d="M347.473 614.242C346.44 611.687 347.288 612.321 349.413 611.471C370.634 602.982 391.019 598.085 413.7 594.845C472.132 586.498 541.175 584.267 599.356 594.845C607.011 596.237 655.472 601.198 653.113 615.35C648.535 642.817 616.372 655.455 593.26 658.023C538.567 664.1 498.899 667.431 444.181 662.457C430.051 661.172 376.468 655.152 365.485 644.169C358.383 637.067 352.822 628.477 348.859 619.23C348.678 618.807 347.562 614.46 347.473 614.242Z" fill="#62370d" fill-rule="nonzero" opacity="1" stroke="#121010" stroke-linecap="round" stroke-linejoin="round" stroke-width="10"/>
<path d="M526.202 409.189C523.476 406.463 528.355 410.723 529.527 413.068C532.488 418.99 533.335 426.659 535.069 433.019C540.024 451.187 539.738 470.44 541.165 488.993C544.248 529.064 530.746 566.912 528.419 606.483C527.95 614.452 526.351 625.625 530.081 633.085" fill="none" opacity="1" stroke="#121010" stroke-linecap="round" stroke-linejoin="round" stroke-width="10"/>
<path d="M535.767 582.905C531.167 580.903 547.936 554.969 549.864 552.185C564.303 531.329 585.882 517.481 608.91 507.502C611.202 506.509 634.273 495.254 636.837 498.459C643.035 506.205 629.826 540.856 626.537 548.697C615.089 575.996 605.806 579.757 583.477 586.669C577.794 588.428 542.169 585.69 535.767 582.905Z" fill="#b1d3a3" fill-rule="nonzero" opacity="1" stroke="#121010" stroke-linecap="round" stroke-linejoin="round" stroke-width="10"/>
<path d="M533.309 577.549C529.133 569.854 520.226 565.645 507.504 561.029C488.205 554.026 487.523 553.852 463.309 548.114C458.75 547.033 449.405 545.304 444.9 545.304C443.488 545.304 424.273 541.112 423.821 542.918C423.349 544.807 434.494 570.128 435.496 571.601C445.186 585.852 458.758 601.062 474.86 608.039C489.317 614.304 509.294 619.197 524.863 613.359C533.6 610.082 538.061 586.306 533.309 577.549Z" fill="#aaca9c" fill-rule="nonzero" opacity="1" stroke="#121010" stroke-linecap="round" stroke-linejoin="round" stroke-width="10"/>
<path d="M542.551 580.835C541.178 578.089 553.709 571.448 555.325 570.122C567.656 559.992 581.058 553.34 595.293 546.223" fill="none" opacity="1" stroke="#121010" stroke-linecap="round" stroke-linejoin="round" stroke-width="10"/>
<path d="M530.19 596.081C513.817 585.166 496.695 580.593 476.623 578.362" fill="none" opacity="1" stroke="#121010" stroke-linecap="round" stroke-linejoin="round" stroke-width="10"/>
</g>
</svg>
