<?xml version="1.0" encoding="UTF-8" standalone="no"?>
<!DOCTYPE svg PUBLIC "-//W3C//DTD SVG 1.1//EN" "http://www.w3.org/Graphics/SVG/1.1/DTD/svg11.dtd">
<!-- Created with Vectornator (http://vectornator.io/) -->
<svg height="1024.0px" stroke-miterlimit="10" style="fill-rule:nonzero;clip-rule:evenodd;stroke-linecap:round;stroke-linejoin:round;" version="1.1" viewBox="0 0 1024 1024" width="1024.0px" xml:space="preserve" xmlns="http://www.w3.org/2000/svg" xmlns:xlink="http://www.w3.org/1999/xlink">
<defs/>
<clipPath id="ArtboardFrame">
<rect height="1024" width="1024" x="0" y="0"/>
</clipPath>
<g clip-path="url(#ArtboardFrame)" id="Layer-1">
<path d="M-26.5609-30.4178L1025.86-30.4178L1025.86 1049.36L-26.5609 1049.36L-26.5609-30.4178Z" fill="#cdded7" fill-rule="nonzero" opacity="1" stroke="none"/>
<g transform="translate(0, 110)">
<path d="M303.654 482.1C310.891 467.847 265.244 501.382 260.041 509.881C225.946 565.585 254.579 560.461 249.003 586.015C241.298 621.322 197.178 789.185 197.178 829.601C197.178 849.21 193.737 882.519 204.44 899.485C229.065 938.518 283.822 958.131 329.808 974.355C397.48 998.229 484.609 1012.13 557.987 1002.16C606.475 995.575 661.794 986.328 706.216 967.845C740.58 953.546 831.205 908.065 832.979 900.231C861.768 773.145 780.846 613.855 770.489 589.23C768.145 583.656 785.504 560.978 787.02 555.019C796.344 518.377 780.432 526.54 772.091 502.741C771.034 499.725 751.291 474.974 747.938 475.771C744.456 476.599 775.119 494.336 708.503 549.951C649.383 599.308 504.361 718.555 504 718.211C498.869 713.331 350.818 586.402 324.318 541.036C315.762 526.389 294.336 500.453 303.654 482.1Z" fill="#98a6c0" fill-rule="nonzero" opacity="1" stroke="none"/>
<path d="M360.4 577.295C360.679 575.778 376.797 576.249 379.852 576.844C393.305 579.464 412.621 580.92 426.514 582.498C463.39 586.686 665.998 575.04 664.508 579.372C659.743 593.22 504.562 711.413 502.551 710.684C493.516 707.412 389.045 616.652 374.04 596.404C370.379 591.465 359.259 583.498 360.4 577.295Z" fill="#fcf1f1" fill-rule="nonzero" opacity="1" stroke="none"/>
<path d="M308.493 476.897C330.239 463.35 367.923 462.086 392.363 458.416C474.479 446.085 557.273 450.29 639.666 455.887C661.089 457.342 752.322 453.827 745.771 491.209C744.92 496.066 737.349 525.426 731.384 526.844C727.342 527.805 630.553 480.454 530.825 487.553C422.223 495.284 321.712 521.525 310.688 518.03C302.199 515.338 300.912 481.62 308.493 476.897Z" fill="#565d6c" fill-rule="nonzero" opacity="1" stroke="none"/>
<path d="M199.991 894.328C187.927 879.941 195.747 811.843 202.844 769.744C221.116 661.336 247.065 596.734 250.167 584.932C251.553 579.658 223.491 551.975 266.667 500.978C290.812 472.459 324.074 449.309 529.814 449.134C654.472 449.028 743.628 459.291 764.127 485.286C781.353 507.129 804.639 538.397 769.589 588.684C765.905 593.971 844.832 707.572 838.637 846.172C838.014 860.09 838.686 892.693 831.775 905.838" fill="none" opacity="1" stroke="#000000" stroke-linecap="round" stroke-linejoin="round" stroke-width="10"/>
<path d="M312.474 470.81C281.964 485.318 315.533 533.171 327.484 547.38C363.75 590.494 408.586 627.758 449.612 666.776C463.938 680.402 490.957 696.755 500.1 714.146" fill="none" opacity="1" stroke="#000000" stroke-linecap="round" stroke-linejoin="round" stroke-width="10"/>
<path d="M732.019 469.734C768.66 487.158 738.215 513.507 720.476 533.753C677.548 582.746 614.967 618.981 563.552 658.99C534.255 681.787 505.273 712.323 489.866 745.293C467.261 793.665 472.809 855.268 472.809 906.868C472.809 933.946 468.268 976.496 473.862 1004.17" fill="none" opacity="1" stroke="#000000" stroke-linecap="round" stroke-linejoin="round" stroke-width="10"/>
<path d="M572.328 1000.24C570.896 999.557 566.005 972.253 565.599 969.162C562.177 943.129 560.141 915.63 560.141 889.348C560.141 851.158 556.834 813.877 575.151 779.036C590.391 750.046 622.788 728.873 648.837 709.604C684.468 683.246 751.924 626.425 772.329 587.611" fill="none" opacity="1" stroke="#000000" stroke-linecap="round" stroke-linejoin="round" stroke-width="10"/>
<path d="M251.069 577.229C280.113 632.475 337.156 678.557 386.16 719.337C416.052 744.213 451.939 772.432 470.08 806.938" fill="none" opacity="1" stroke="#000000" stroke-linecap="round" stroke-linejoin="round" stroke-width="10"/>
<path d="M496.337 853.134C496.337 840.751 505.879 830.713 517.649 830.713C529.419 830.713 538.96 840.751 538.96 853.134C538.96 865.516 529.419 875.554 517.649 875.554C505.879 875.554 496.337 865.516 496.337 853.134Z" fill="#fcf1f1" fill-rule="nonzero" opacity="1" stroke="#000000" stroke-linecap="round" stroke-linejoin="round" stroke-width="10"/>
<path d="M468.552 123.827C474.164 73.0283 544.545 43.9381 592.905 43.9381C617.204 43.9381 651.193 55.801 656.506 81.0665C656.703 82.0019 588.868 124.58 590.273 146.98C590.667 153.266 564.477 150.578 557.814 151.986C542.666 155.187 535.041 158.924 523.6 151.152C512.391 143.537 468.147 127.492 468.552 123.827Z" fill="#ffe587" fill-rule="nonzero" opacity="1" stroke="none"/>
<path d="M524.039 241.261C524.107 241.015 503.959 247.916 500.353 250.856C488.324 260.662 476.578 272.522 467.017 284.647C450.044 306.17 430.856 339.504 434.558 367.664C435.772 376.901 437.447 390.535 440.446 399.09C444.302 410.093 458.738 415.239 470.526 418.977C503.85 429.541 528.329 357.462 531.496 336.376C533.737 321.457 536.337 305.19 540.962 290.528C544.843 278.225 547.725 257.154 547.725 244.598C547.725 239.015 522.964 245.138 524.039 241.261Z" fill="#ffe587" fill-rule="nonzero" opacity="1" stroke="none"/>
<path d="M524.916 155.949C523.389 143.384 480.314 129.716 467.894 125.287C405.017 102.861 321.066 161.856 313.933 222.905C313.671 225.15 317.339 246.889 323.583 242.93C326.738 240.93 372.375 207.068 394.642 199.126C417.082 191.123 487.306 195.892 488.948 195.372C493.317 193.987 503.517 172.531 507.371 168.256C510.703 164.559 525.328 159.337 524.916 155.949Z" fill="#ffe587" fill-rule="nonzero" opacity="1" stroke="none"/>
<path d="M592.489 148.52C595.975 129.141 630.503 100.589 646.487 90.6696C702.863 55.6848 718.848 46.5613 786.271 41.7335C812.45 39.8591 876.415 78.3955 871.853 108.12C859.915 185.907 802.154 157.187 746.53 163.659C727.535 165.869 661.149 170.716 643.227 176.782C641.381 177.407 629.92 183.571 628.148 182.472C627.885 182.309 620.94 165.816 615.515 161.608C612.59 159.339 592.18 150.238 592.489 148.52Z" fill="#ffe587" fill-rule="nonzero" opacity="1" stroke="none"/>
<path d="M634.171 184.369C630.906 187.375 623.894 190.88 621.455 194.526C620.349 196.179 618.646 207.568 619.811 209.785C619.956 210.06 627.567 210.267 628.586 210.544C638.526 213.245 654.14 217.865 662.49 223.821C699.548 250.255 749.445 262.722 795.711 258.722C814.236 257.12 847.7 240.991 850.356 220.787C853.818 194.444 832.277 181.574 810.07 173.368C746.092 149.725 646.095 173.392 634.171 184.369Z" fill="#ffe587" fill-rule="nonzero" opacity="1" stroke="none"/>
<path d="M550.209 238.616C545.652 238.472 568.933 284.324 573.543 290.587C593.729 318.014 626.99 381.518 678.445 353.938C703.604 340.453 664.631 256.117 648.53 238.616C643.185 232.806 626.856 211.86 615.823 213.958C611.334 214.812 597.18 221.628 593.116 224.72C582.68 232.66 563.766 239.046 550.209 238.616Z" fill="#ffe587" fill-rule="nonzero" opacity="1" stroke="none"/>
<path d="M481.93 197.041C482.189 197.363 449.051 190.669 441.576 191.617C415.141 194.97 383.264 206.779 361.306 221.237C312.318 253.492 207.031 331.697 280.656 409.013C331.11 461.996 408.26 329.753 433.57 296.655C444.437 282.443 510.535 246.968 514.828 240.844C515.321 240.14 514.787 239.097 514.389 238.341C510.001 229.993 495.057 223.286 488.51 215.813C484.099 210.78 481.393 196.372 481.93 197.041Z" fill="#ffe587" fill-rule="nonzero" opacity="1" stroke="none"/>
<path d="M490.43 209.781C484.618 187.097 509.332 161.889 545.631 153.476C581.93 145.063 616.067 156.631 621.88 179.315C627.692 201.998 602.977 227.207 566.679 235.62C530.38 244.033 496.242 232.464 490.43 209.781Z" fill="#fcf1f1" fill-rule="nonzero" opacity="1" stroke="#000000" stroke-linecap="round" stroke-linejoin="round" stroke-width="10"/>
<path d="M485.336 197.257C415.716 164.151 272.179 266.479 255.786 332.739C246.734 369.329 276.017 432.544 324.163 421.77C363.963 412.863 381.14 370.936 400.679 342.029C429.845 298.881 470.663 261.912 518.711 239.063" fill="none" opacity="1" stroke="#000000" stroke-linecap="round" stroke-linejoin="round" stroke-width="10"/>
<path d="M514.64 243.708C500.975 243.708 490.238 255.304 481.266 263.837C446.496 296.906 416.399 348.221 438.124 395.448C464.914 453.687 517.686 402.785 529.293 365.255C534.187 349.428 536.817 335.9 538.247 319.578C540.316 295.956 548.015 270.862 548.015 247.579" fill="none" opacity="1" stroke="#000000" stroke-linecap="round" stroke-linejoin="round" stroke-width="10"/>
<path d="M551.271 246.805C564.066 271.143 572.26 296.704 588.715 319.578C596.354 330.196 606.663 340.975 617.205 348.997C648.011 372.436 687.025 368.702 684.768 325.771C683.531 302.249 644.92 225.921 620.461 214.289" fill="none" opacity="1" stroke="#000000" stroke-linecap="round" stroke-linejoin="round" stroke-width="10"/>
<path d="M627.788 211.967C650.404 211.967 680.158 238.487 700.234 247.579C729.595 260.876 770.982 265.229 802.799 259.966C822.092 256.775 854.082 241.751 854.082 219.709C854.082 161.505 742.822 155.454 701.048 163.968C683.255 167.594 664.995 171.099 647.324 175.58C641.835 176.972 627.881 183.665 628.602 183.322" fill="none" opacity="1" stroke="#000000" stroke-linecap="round" stroke-linejoin="round" stroke-width="10"/>
<path d="M587.087 146.162C591.209 134.401 605.4 123.364 613.949 114.42C663.777 62.2919 791.488 10.5735 852.454 73.3885C859.793 80.9506 870.938 91.3853 872.804 102.033C878.461 134.318 826.216 173.067 794.659 167.064" fill="none" opacity="1" stroke="#000000" stroke-linecap="round" stroke-linejoin="round" stroke-width="10"/>
<path d="M527.665 153.903C497.809 139.706 476.115 120.059 438.938 118.291C371.886 115.102 299.003 180.509 316.023 245.257" fill="none" opacity="1" stroke="#000000" stroke-linecap="round" stroke-linejoin="round" stroke-width="10"/>
<path d="M470.072 124.618C463.045 103.368 491.496 82.3948 506.785 72.616C545.005 48.1707 591.89 30.1982 633.499 55.2183C642.408 60.5752 653.179 66.286 656.541 76.4524" fill="none" opacity="1" stroke="#000000" stroke-linecap="round" stroke-linejoin="round" stroke-width="10"/>
<path d="M617.25 163.505C612.6 149.446 654.504 135.367 663.716 132.611" fill="none" opacity="1" stroke="#000000" stroke-linecap="round" stroke-linejoin="round" stroke-width="10"/>
<path d="M623.21 199.225C629.449 187.845 692.474 194.31 700.683 201.539" fill="none" opacity="1" stroke="#000000" stroke-linecap="round" stroke-linejoin="round" stroke-width="10"/>
<path d="M587.125 231.702C608.995 235.035 622.532 270.724 630.377 287.03" fill="none" opacity="1" stroke="#000000" stroke-linecap="round" stroke-linejoin="round" stroke-width="10"/>
<path d="M534.798 242.082C521.953 240.124 509.706 284.644 507.897 291.148" fill="none" opacity="1" stroke="#000000" stroke-linecap="round" stroke-linejoin="round" stroke-width="10"/>
<path d="M491.41 215.215C465.732 211.301 412.105 235.104 401.596 258.49" fill="none" opacity="1" stroke="#000000" stroke-linecap="round" stroke-linejoin="round" stroke-width="10"/>
<path d="M501.853 176.932C485.107 154.926 451.684 153.127 425.994 157.142" fill="none" opacity="1" stroke="#000000" stroke-linecap="round" stroke-linejoin="round" stroke-width="10"/>
<path d="M558.701 147.62C550.578 136.945 558.807 110.015 565.305 100.523" fill="none" opacity="1" stroke="#000000" stroke-linecap="round" stroke-linejoin="round" stroke-width="10"/>
<path d="M316.578 523.533C315.213 520.323 316.333 521.119 319.141 520.051C347.179 509.384 374.113 503.23 404.08 499.159C481.283 488.669 572.506 485.866 649.378 499.159C655.391 500.199 680.464 502.824 699.151 508.52C711.894 512.404 721.668 517.716 720.405 524.926C714.356 559.441 671.861 575.322 641.324 578.549C569.061 586.186 516.65 590.371 444.353 584.121C425.684 582.506 354.887 574.941 340.376 561.139C330.993 552.215 323.645 541.421 318.409 529.801C318.169 529.27 316.695 523.807 316.578 523.533Z" fill="#62370d" fill-rule="nonzero" opacity="1" stroke="#121010" stroke-linecap="round" stroke-linejoin="round" stroke-width="10"/>
<path d="M552.723 265.862C549.122 262.437 555.568 267.791 557.117 270.737C561.029 278.179 562.147 287.816 564.439 295.808C570.986 318.638 570.608 342.831 572.494 366.145C576.566 416.498 558.728 464.058 555.652 513.783C555.033 523.798 552.921 537.837 557.849 547.211" fill="none" opacity="1" stroke="#121010" stroke-linecap="round" stroke-linejoin="round" stroke-width="10"/>
<path d="M565.362 484.155C559.283 481.64 582.131 449.462 583.987 445.552C610.048 390.665 695.513 374.012 698.9 378.039C707.089 387.774 695.575 431.74 691.231 441.593C676.105 475.898 657.9 480.2 628.398 488.885C620.889 491.096 573.82 487.655 565.362 484.155Z" fill="#b1d3a3" fill-rule="nonzero" opacity="1" stroke="#121010" stroke-linecap="round" stroke-linejoin="round" stroke-width="10"/>
<path d="M562.113 477.425C556.596 467.755 532.414 444.966 476.696 436.057C474.854 435.763 418.049 431.638 417.453 433.907C416.829 436.28 431.555 468.1 432.878 469.95C445.682 487.858 463.613 506.971 484.887 515.739C503.989 523.611 530.384 529.76 550.954 522.423C562.499 518.306 568.392 488.429 562.113 477.425Z" fill="#aaca9c" fill-rule="nonzero" opacity="1" stroke="#121010" stroke-linecap="round" stroke-linejoin="round" stroke-width="10"/>
<path d="M574.325 481.554C572.51 478.103 589.068 469.758 591.202 468.091C607.495 455.362 625.201 447.004 644.01 438.06" fill="none" opacity="1" stroke="#121010" stroke-linecap="round" stroke-linejoin="round" stroke-width="10"/>
<path d="M557.992 500.711C536.36 486.996 513.737 481.249 487.218 478.447" fill="none" opacity="1" stroke="#121010" stroke-linecap="round" stroke-linejoin="round" stroke-width="10"/>
<path d="M199.499 893.99C202.832 898.438 233.521 923.894 267.843 945.921C312.668 974.688 376.876 991.249 389.973 994.712C429.863 1005.26 441.56 1006.51 476.216 1008.06C554.059 1011.54 635.926 992.818 708.67 966.554C741.701 954.629 774.932 941.497 805.955 924.666C814.798 919.869 825.989 913.17 831.68 906.484" fill="none" opacity="1" stroke="#000000" stroke-linecap="round" stroke-linejoin="round" stroke-width="10"/>
</g>
</g>
</svg>
