<svg xmlns="http://www.w3.org/2000/svg" viewBox="0 0 200 200" role="img" aria-label="Planta">
  <circle cx="100" cy="100" r="100" fill="#F2DFC9"/>
  <g stroke="#3D3228" stroke-width="3" stroke-linejoin="round" stroke-linecap="round" fill="#A9C6A3">
    <path d="M100 116 Q68 120 56 90 Q52 64 78 66 Q100 76 100 116 Z"/>
    <path d="M100 116 Q132 120 144 90 Q148 64 122 66 Q100 76 100 116 Z"/>
    <path d="M100 112 Q86 96 88 62 Q100 68 112 62 Q114 96 100 112 Z" fill="#8FAE8C"/>
  </g>
  <path d="M60 126 Q56 118 64 114 Q100 110 136 114 Q144 118 140 126 L134 168 Q132 178 122 180 L78 180 Q68 178 66 168 Z" fill="#D4A37E" stroke="#3D3228" stroke-width="3" stroke-linejoin="round"/>
  <g fill="#F2B5AC" opacity="0.85">
    <ellipse cx="86" cy="154" rx="8" ry="4.5"/>
    <ellipse cx="114" cy="154" rx="8" ry="4.5"/>
  </g>
  <g fill="#3D3228">
    <circle cx="91" cy="146" r="2.6"/>
    <circle cx="109" cy="146" r="2.6"/>
  </g>
  <path d="M94 156 Q100 161 106 156" fill="none" stroke="#3D3228" stroke-width="2.4" stroke-linecap="round"/>
</svg>
