<?xml version="1.0" encoding="UTF-8" standalone="no"?>
<!DOCTYPE svg PUBLIC "-//W3C//DTD SVG 1.1//EN" "http://www.w3.org/Graphics/SVG/1.1/DTD/svg11.dtd">
<!-- Created with Vectornator (http://vectornator.io/) -->
<svg height="1024.0px" stroke-miterlimit="10" style="fill-rule:nonzero;clip-rule:evenodd;stroke-linecap:round;stroke-linejoin:round;" version="1.1" viewBox="0 0 1024 1024" width="1024.0px" xml:space="preserve" xmlns="http://www.w3.org/2000/svg" xmlns:xlink="http://www.w3.org/1999/xlink">
<defs/>
<clipPath id="ArtboardFrame">
<rect height="1024" width="1024" x="0" y="0"/>
</clipPath>
<g clip-path="url(#ArtboardFrame)" id="Layer-1">
<path d="M-26.5609-30.4178L1025.86-30.4178L1025.86 1049.36L-26.5609 1049.36L-26.5609-30.4178Z" fill="#d2ded9" fill-rule="nonzero" opacity="1" stroke="none"/>
<path d="M360.4 577.295C360.679 575.778 376.797 576.249 379.852 576.844C393.305 579.464 412.621 580.92 426.514 582.498C463.39 586.686 665.998 575.04 664.508 579.372C659.743 593.22 504.562 711.413 502.551 710.684C493.516 707.412 389.045 616.652 374.04 596.404C370.379 591.465 359.259 583.498 360.4 577.295Z" fill="#fcf1f1" fill-rule="nonzero" opacity="1" stroke="none"/>
<path d="M308.493 476.897C330.239 463.35 442.547 456.119 466.987 452.449C549.103 440.118 766.715 444.406 760.164 481.787C759.313 486.644 737.349 525.426 731.384 526.844C727.342 527.805 630.553 480.454 530.825 487.553C422.223 495.284 321.169 525.703 310.145 522.208C301.656 519.517 300.912 481.62 308.493 476.897Z" fill="#565d6c" fill-rule="nonzero" opacity="1" stroke="none"/>
<path d="M301.364 478.531C250.482 489.592 232.145 535.698 223.769 557.195C197.578 624.416 184.314 675.922 184.142 746.315C183.984 811.123 181.457 861.887 229.833 899.506C298.381 952.811 406.462 968.351 502.127 972.997C601.976 977.845 719.497 968.662 789.145 903.772C836.972 859.212 842.372 676.604 818.863 601.127C807.85 565.769 788.343 484.905 749.998 473.235C749.144 490.182 746.355 512.4 712.434 552.199C654.519 620.149 585.789 630.4 512.926 686.36C452.634 640.543 378.921 602.196 325.901 551.001C307.152 532.897 298.798 512.585 301.364 478.531Z" fill="#adb4c0" fill-rule="nonzero" opacity="1" stroke="#000000" stroke-linecap="round" stroke-linejoin="round" stroke-width="10"/>
<path d="M461.918 778.612C461.918 778.612 461.366 752.391 474.408 730.271C487.45 708.152 515.107 683.996 515.107 683.996" fill="#9da9c0" fill-rule="nonzero" opacity="1" stroke="#000000" stroke-linecap="round" stroke-linejoin="round" stroke-width="10"/>
<path d="M753.326 474.679C684.785 444.028 645.92 440.207 493.738 450.058C401.161 456.05 370.236 454.926 301.075 479.104" fill="none" opacity="1" stroke="#000000" stroke-linecap="round" stroke-linejoin="round" stroke-width="10"/>
<path d="M565.599 969.162C562.177 943.129 556.834 813.877 575.151 779.036C590.391 750.046 652.575 704.627 678.624 685.358C714.255 659.001 778.783 584.176 799.188 545.362" fill="none" opacity="1" stroke="#000000" stroke-linecap="round" stroke-linejoin="round" stroke-width="10"/>
<path d="M230.198 550.22C243.994 576.462 273.584 633.438 322.849 678.345C377.299 727.978 451.551 765.27 461.074 783.385L468.446 967.535" fill="none" opacity="1" stroke="#000000" stroke-linecap="round" stroke-linejoin="round" stroke-width="10"/>
<path d="M496.337 853.134C496.337 840.751 505.879 830.713 517.649 830.713C529.419 830.713 538.96 840.751 538.96 853.134C538.96 865.516 529.419 875.554 517.649 875.554C505.879 875.554 496.337 865.516 496.337 853.134Z" fill="#dddddd" fill-rule="nonzero" opacity="1" stroke="#000000" stroke-linecap="round" stroke-linejoin="round" stroke-width="10"/>
<path d="M454.48 149.412C460.092 98.6137 530.473 69.5235 578.833 69.5235C603.132 69.5235 637.121 81.3863 642.435 106.652C642.631 107.587 574.796 150.166 576.201 172.565C576.595 178.851 550.405 176.163 543.742 177.571C528.594 180.773 520.969 184.509 509.528 176.737C498.319 169.122 454.075 153.078 454.48 149.412Z" fill="#eecab4" fill-rule="nonzero" opacity="1" stroke="none"/>
<path d="M509.967 266.846C510.035 266.6 489.887 273.501 486.281 276.441C474.252 286.247 462.506 298.108 452.945 310.232C435.972 331.755 416.785 365.089 420.486 393.25C421.7 402.487 423.375 416.12 426.374 424.676C430.23 435.678 444.666 440.825 456.454 444.562C489.778 455.126 514.257 383.047 517.424 361.962C519.665 347.042 522.265 330.776 526.89 316.114C530.771 303.81 533.653 282.739 533.653 270.184C533.653 264.6 508.892 270.723 509.967 266.846Z" fill="#eecab4" fill-rule="nonzero" opacity="1" stroke="none"/>
<path d="M510.844 181.534C509.317 168.969 466.242 155.302 453.822 150.872C390.945 128.447 306.994 187.441 299.861 248.491C299.599 250.735 303.267 272.474 309.511 268.515C312.666 266.515 358.303 232.653 380.57 224.712C403.01 216.708 473.234 221.478 474.876 220.957C479.245 219.572 489.446 198.117 493.299 193.841C496.631 190.144 511.256 184.923 510.844 181.534Z" fill="#eecab4" fill-rule="nonzero" opacity="1" stroke="none"/>
<path d="M578.417 174.106C581.903 154.726 616.431 126.174 632.415 116.255C688.791 81.2701 704.776 72.1466 772.199 67.3189C798.378 65.4444 862.343 103.981 857.781 133.705C845.843 211.492 788.082 182.772 732.458 189.244C713.463 191.454 647.077 196.301 629.155 202.367C627.309 202.992 615.848 209.157 614.076 208.058C613.814 207.894 606.868 191.401 601.443 187.193C598.518 184.924 578.108 175.824 578.417 174.106Z" fill="#eecab4" fill-rule="nonzero" opacity="1" stroke="none"/>
<path d="M620.099 209.954C616.834 212.96 609.822 216.465 607.383 220.111C606.277 221.764 604.574 233.153 605.739 235.371C605.884 235.646 613.495 235.853 614.515 236.13C624.454 238.831 640.068 243.451 648.418 249.407C685.476 275.84 735.373 288.307 781.639 284.307C800.164 282.705 833.628 266.577 836.284 246.372C839.746 220.03 818.205 207.16 795.998 198.953C732.02 175.31 632.023 198.978 620.099 209.954Z" fill="#eecab4" fill-rule="nonzero" opacity="1" stroke="none"/>
<path d="M536.138 264.201C531.58 264.057 554.861 309.909 559.471 316.172C579.657 343.599 612.918 407.103 664.373 379.524C689.532 366.038 650.559 281.703 634.458 264.201C629.113 258.392 612.784 237.445 601.751 239.544C597.263 240.397 583.109 247.213 579.044 250.305C568.608 258.246 549.694 264.631 536.138 264.201Z" fill="#eecab4" fill-rule="nonzero" opacity="1" stroke="none"/>
<path d="M467.858 222.626C468.117 222.949 434.979 216.255 427.504 217.203C401.069 220.555 369.192 232.364 347.234 246.822C298.246 279.077 192.959 357.283 266.584 434.598C317.039 487.581 394.188 355.339 419.498 322.241C430.365 308.029 496.463 272.553 500.756 266.429C501.249 265.725 500.715 264.683 500.317 263.926C495.929 255.578 480.986 248.872 474.438 241.399C470.027 236.365 467.321 221.958 467.858 222.626Z" fill="#eecab4" fill-rule="nonzero" opacity="1" stroke="none"/>
<path d="M476.358 235.366C470.546 212.683 495.26 187.474 531.559 179.061C567.858 170.648 601.995 182.217 607.808 204.9C613.62 227.584 588.905 252.792 552.607 261.205C516.308 269.618 482.17 258.05 476.358 235.366Z" fill="#f3da7f" fill-rule="nonzero" opacity="1" stroke="#000000" stroke-linecap="round" stroke-linejoin="round" stroke-width="10"/>
<path d="M471.264 222.843C401.644 189.736 258.107 292.064 241.714 358.324C232.662 394.915 261.945 458.129 310.091 447.355C349.892 438.448 367.068 396.522 386.607 367.615C415.773 324.466 456.591 287.497 504.639 264.649" fill="none" opacity="1" stroke="#000000" stroke-linecap="round" stroke-linejoin="round" stroke-width="10"/>
<path d="M500.569 269.294C486.903 269.294 476.166 280.889 467.194 289.422C432.424 322.491 402.327 373.807 424.052 421.033C450.842 479.273 503.614 428.37 515.221 390.84C520.115 375.013 522.745 361.486 524.175 345.163C526.245 321.541 533.943 296.447 533.943 273.165" fill="none" opacity="1" stroke="#000000" stroke-linecap="round" stroke-linejoin="round" stroke-width="10"/>
<path d="M537.199 272.39C549.994 296.728 558.188 322.29 574.643 345.163C582.282 355.782 592.591 366.561 603.133 374.582C633.939 398.021 672.953 394.288 670.696 351.357C669.46 327.834 630.848 251.506 606.39 239.875" fill="none" opacity="1" stroke="#000000" stroke-linecap="round" stroke-linejoin="round" stroke-width="10"/>
<path d="M613.716 237.552C636.332 237.552 666.086 264.072 686.162 273.165C715.523 286.462 756.91 290.814 788.727 285.551C808.02 282.36 840.01 267.336 840.01 245.294C840.01 187.09 728.75 181.039 686.976 189.553C669.183 193.179 650.923 196.684 633.252 201.166C627.763 202.558 613.809 209.25 614.53 208.908" fill="none" opacity="1" stroke="#000000" stroke-linecap="round" stroke-linejoin="round" stroke-width="10"/>
<path d="M573.015 171.747C577.137 159.987 591.328 148.95 599.877 140.005C625.985 112.693 718.421 65.3457 778.752 68.2919C833.568 70.9688 861.944 114.974 861.349 133.693C860.308 166.452 812.144 198.652 780.587 192.65" fill="none" opacity="1" stroke="#000000" stroke-linecap="round" stroke-linejoin="round" stroke-width="10"/>
<path d="M513.593 179.489C483.738 165.291 462.043 145.644 424.866 143.876C357.814 140.688 284.931 206.095 301.951 270.842" fill="none" opacity="1" stroke="#000000" stroke-linecap="round" stroke-linejoin="round" stroke-width="10"/>
<path d="M456.001 150.203C448.973 128.954 477.424 107.98 492.713 98.2014C530.933 73.7561 577.818 55.7836 619.427 80.8037C628.336 86.1606 639.107 91.8713 642.469 102.038" fill="none" opacity="1" stroke="#000000" stroke-linecap="round" stroke-linejoin="round" stroke-width="10"/>
<path d="M603.178 189.091C598.528 175.031 640.432 160.953 649.644 158.197" fill="none" opacity="1" stroke="#000000" stroke-linecap="round" stroke-linejoin="round" stroke-width="10"/>
<path d="M609.138 224.811C615.377 213.43 678.402 219.896 686.611 227.124" fill="none" opacity="1" stroke="#000000" stroke-linecap="round" stroke-linejoin="round" stroke-width="10"/>
<path d="M573.053 257.287C594.923 260.62 608.46 296.309 616.305 312.615" fill="none" opacity="1" stroke="#000000" stroke-linecap="round" stroke-linejoin="round" stroke-width="10"/>
<path d="M520.726 267.667C507.881 265.709 495.634 310.229 493.825 316.733" fill="none" opacity="1" stroke="#000000" stroke-linecap="round" stroke-linejoin="round" stroke-width="10"/>
<path d="M477.338 240.8C451.66 236.887 398.033 260.689 387.524 284.076" fill="none" opacity="1" stroke="#000000" stroke-linecap="round" stroke-linejoin="round" stroke-width="10"/>
<path d="M487.781 202.517C471.035 180.512 437.612 178.712 411.922 182.727" fill="none" opacity="1" stroke="#000000" stroke-linecap="round" stroke-linejoin="round" stroke-width="10"/>
<path d="M544.629 173.205C536.506 162.531 544.735 135.601 551.233 126.109" fill="none" opacity="1" stroke="#000000" stroke-linecap="round" stroke-linejoin="round" stroke-width="10"/>
<path d="M310.924 524.947C307.736 508.718 393.705 493.319 423.672 489.248C500.875 478.758 557.31 490.042 641.727 489.298C647.83 489.244 728.881 509.089 729.473 519.388C731.483 554.372 671.861 575.322 641.324 578.549C569.061 586.186 516.65 590.371 444.353 584.121C425.684 582.506 361.197 577.895 344.918 566.229C335.584 559.54 319.844 545.186 315.306 536.884C309.868 526.935 310.924 524.947 310.924 524.947Z" fill="#62482f" fill-rule="nonzero" opacity="1" stroke="#120000" stroke-linecap="round" stroke-linejoin="round" stroke-width="10"/>
<path d="M538.651 291.448C535.05 288.022 541.496 293.376 543.045 296.323C546.957 303.764 548.075 313.401 550.367 321.393C556.914 344.223 556.536 368.417 558.422 391.73C562.494 442.084 544.656 489.643 541.58 539.369C540.961 549.383 538.849 563.422 543.777 572.796" fill="none" opacity="1" stroke="#121010" stroke-linecap="round" stroke-linejoin="round" stroke-width="10"/>
<path d="M551.29 509.74C545.211 507.225 568.059 475.047 569.915 471.137C595.976 416.25 681.441 399.597 684.828 403.624C693.017 413.359 681.503 457.325 677.159 467.179C670.487 482.309 643.421 511.231 618.367 518.214C586.618 527.063 556.017 511.696 551.29 509.74Z" fill="#b1d3a3" fill-rule="nonzero" opacity="1" stroke="#121010" stroke-linecap="round" stroke-linejoin="round" stroke-width="10"/>
<path d="M548.041 503.01C542.524 493.341 518.342 470.551 462.624 461.643C460.782 461.348 403.978 457.223 403.381 459.492C402.757 461.866 417.483 493.685 418.806 495.536C431.61 513.444 449.541 532.556 470.815 541.324C489.917 549.197 516.312 555.345 536.882 548.009C548.427 543.891 554.32 514.014 548.041 503.01Z" fill="#aaca9c" fill-rule="nonzero" opacity="1" stroke="#121010" stroke-linecap="round" stroke-linejoin="round" stroke-width="10"/>
<path d="M560.078 505.135C558.263 501.684 610.955 470.585 629.763 461.641" fill="none" opacity="1" stroke="#121010" stroke-linecap="round" stroke-linejoin="round" stroke-width="10"/>
<path d="M548.658 531.17C527.026 517.455 504.403 511.708 477.883 508.906" fill="none" opacity="1" stroke="#121010" stroke-linecap="round" stroke-linejoin="round" stroke-width="10"/>
</g>
</svg>
