<svg xmlns="http://www.w3.org/2000/svg" viewBox="0 0 200 200" role="img" aria-label="Borrego">
  <circle cx="100" cy="100" r="100" fill="#EADCC4"/>
  <path d="M132 138 Q138 128 148 130 Q154 118 144 110 Q152 100 144 90 Q152 80 140 74 Q144 60 130 58 Q128 46 114 50 Q110 38 98 44 Q86 38 80 50 Q66 46 64 60 Q50 60 52 74 Q40 78 48 90 Q38 100 48 110 Q36 120 48 128 Q54 140 68 138 Q74 152 90 148 Q100 158 112 148 Q122 152 132 138 Z" fill="#F2E8D9" stroke="#2E2E2E" stroke-width="3.2" stroke-linejoin="round"/>
  <ellipse cx="100" cy="106" rx="28" ry="24" fill="#3A2E28" stroke="#2E2E2E" stroke-width="3.2"/>
  <g fill="#F2E8D9">
    <circle cx="90" cy="102" r="3.6"/>
    <circle cx="110" cy="102" r="3.6"/>
  </g>
</svg>
