<svg xmlns="http://www.w3.org/2000/svg" viewBox="0 0 200 200" role="img" aria-label="Borrego">
  <circle cx="100" cy="100" r="100" fill="#F0E3C6"/>
  <path d="M148 148 Q158 140 158 128 Q168 122 162 108 Q172 96 160 86 Q168 74 154 68 Q158 52 140 50 Q136 36 120 42 Q114 28 100 34 Q86 28 80 42 Q64 36 60 50 Q42 52 46 68 Q32 74 40 86 Q28 96 38 108 Q32 122 42 128 Q42 140 52 148 Q60 160 76 156 Q86 168 100 162 Q114 168 124 156 Q140 160 148 148 Z" fill="#F6EBD8" stroke="#3D3228" stroke-width="3" stroke-linejoin="round"/>
  <ellipse cx="100" cy="114" rx="28" ry="22" fill="#3A2A22" stroke="#3D3228" stroke-width="2.8"/>
  <g fill="#F2B5AC" opacity="0.85">
    <ellipse cx="80" cy="122" rx="6" ry="3.2"/>
    <ellipse cx="120" cy="122" rx="6" ry="3.2"/>
  </g>
  <g fill="#F6EBD8">
    <circle cx="90" cy="110" r="3.8"/>
    <circle cx="110" cy="110" r="3.8"/>
  </g>
  <g fill="#3D3228">
    <circle cx="90" cy="110" r="1.8"/>
    <circle cx="110" cy="110" r="1.8"/>
  </g>
  <path d="M94 122 Q100 126 106 122" fill="none" stroke="#F6EBD8" stroke-width="2.2" stroke-linecap="round"/>
</svg>
