<svg xmlns="http://www.w3.org/2000/svg" viewBox="0 0 200 200" role="img" aria-label="Borrego">
  <circle cx="100" cy="100" r="100" fill="#F0E3C6"/>
  <path d="M100 26 Q112 18 126 28 Q142 22 150 38 Q166 40 166 58 Q180 66 170 82 Q184 94 170 108 Q180 124 162 130 Q166 148 144 146 Q142 164 122 158 Q114 172 100 166 Q86 172 78 158 Q58 164 56 146 Q38 148 42 130 Q24 124 34 108 Q20 94 34 82 Q24 66 38 58 Q38 40 54 38 Q62 22 78 28 Q88 18 100 26 Z" fill="#F6EBD8" stroke="#3D3228" stroke-width="3" stroke-linejoin="round"/>
  <ellipse cx="100" cy="112" rx="32" ry="26" fill="#3A2A22" stroke="#3D3228" stroke-width="2.8"/>
  <g fill="#F2B5AC" opacity="0.85">
    <ellipse cx="78" cy="120" rx="6.5" ry="3.4"/>
    <ellipse cx="122" cy="120" rx="6.5" ry="3.4"/>
  </g>
  <g fill="#F6EBD8">
    <circle cx="90" cy="108" r="4.2"/>
    <circle cx="110" cy="108" r="4.2"/>
  </g>
  <g fill="#3D3228">
    <circle cx="90" cy="108" r="2"/>
    <circle cx="110" cy="108" r="2"/>
  </g>
  <path d="M94 122 Q100 126 106 122" fill="none" stroke="#F6EBD8" stroke-width="2.4" stroke-linecap="round"/>
</svg>
